<svg xmlns="http://www.w3.org/2000/svg" viewBox="0 0 61.06 55.95"><defs><style>.cls-1{fill:#ffffff;}</style></defs><title>business</title><g id="Layer_2" data-name="Layer 2"><g id="Layer_1-2" data-name="Layer 1"><path class="cls-1" d="M60.12,1.1A3.52,3.52,0,0,0,57.59,0h-54A3.57,3.57,0,0,0,0,3.56V56H61.06V3.57A3.34,3.34,0,0,0,60.12,1.1ZM1.74,54.31V8.79H59.51V54.31ZM59.41,7.24H1.74V3.56A1.85,1.85,0,0,1,3.56,1.64h54a1.85,1.85,0,0,1,1.82,1.92Z"/><rect class="cls-1" x="49.57" y="3.62" width="1.64" height="1.64"/><rect class="cls-1" x="46.05" y="3.62" width="1.64" height="1.64"/><rect class="cls-1" x="53.1" y="3.62" width="1.64" height="1.64"/><rect class="cls-1" x="5.94" y="3.62" width="35.99" height="1.64"/><path class="cls-1" d="M50.75,39.56V31.29h-19V23.72a5.71,5.71,0,0,0,4.83-5.59,5.61,5.61,0,0,0-11.21,0,5.71,5.71,0,0,0,4.83,5.59v7.57h-19v8.27a5.71,5.71,0,0,0-4.83,5.59,5.61,5.61,0,0,0,11.21,0,5.71,5.71,0,0,0-4.83-5.59V32.93H30.08v6.63a5.53,5.53,0,0,0-4.74,5.59,5.61,5.61,0,0,0,11.21,0,5.71,5.71,0,0,0-4.83-5.59V32.93H49.11v6.63a5.71,5.71,0,0,0-4.83,5.59,5.61,5.61,0,0,0,11.21,0A5.45,5.45,0,0,0,50.75,39.56ZM50,41.19a4,4,0,1,1-4,4A4,4,0,0,1,50,41.19ZM27,18a4,4,0,1,1,4,4A3.92,3.92,0,0,1,27,18Zm6.69,24.19a4,4,0,0,1,1.22,2.92,4,4,0,1,1-3.95-4h.16A3.74,3.74,0,0,1,33.68,42.23Zm-18.93,0A3.94,3.94,0,0,1,16,45.15a4,4,0,1,1-4.05-4h.16A3.78,3.78,0,0,1,14.75,42.26Z"/></g></g></svg>