<svg xmlns="http://www.w3.org/2000/svg" xmlns:xlink="http://www.w3.org/1999/xlink" viewBox="0 0 358.54811 278.27916">
    <defs>
        <style>
.cls-1 {
isolation: isolate;
}

.cls-2 {
fill: #fcfcfc;
opacity: 0.08;
mix-blend-mode: screen;
}

.cls-3 {
fill: #0ae2f5;
}

.cls-4 {
fill: #8fa6b5;
opacity: 0.42;
mix-blend-mode: multiply;
}

.cls-5 {
fill: #c6d0dc;
}

.cls-6 {
fill: #e4f2fd;
}

.cls-7 {
fill: #011c53;
}

.cls-8 {
fill: #82e8c1;
}

.cls-9 {
fill: #fffffd;
opacity: 0.67;
}

.cls-10 {
fill: #626bc1;
}

.cls-11 {
fill: #acbfc6;
}

.cls-12 {
fill: #85a8ff;
}

.cls-13 {
fill: #fff;
}

.cls-14 {
fill: #f86174;
}

.cls-15 {
fill: #f5f8fa;
}

.cls-16 {
opacity: 0.46;
}

.cls-17 {
fill: #89fce5;
}

.cls-18 {
opacity: 0.73;
}

.cls-19 {
fill: url(#linear-gradient);
}

.cls-20 {
opacity: 0.45;
}

.cls-21 {
fill: #c5d5dd;
}

.cls-22 {
fill: #e6e6e6;
}

.cls-23 {
fill: #fafffd;
}

.cls-24 {
fill: url(#linear-gradient-2);
}

.cls-25 {
fill: #545456;
}

.cls-26 {
fill: url(#linear-gradient-3);
}

.cls-27 {
fill: url(#linear-gradient-4);
}

.cls-28 {
fill: url(#linear-gradient-5);
}

.cls-29 {
fill: url(#linear-gradient-6);
}

.cls-30 {
fill: url(#linear-gradient-7);
}

.cls-31 {
fill: url(#linear-gradient-8);
}

.cls-32 {
fill: url(#linear-gradient-9);
}

.cls-33 {
fill: url(#linear-gradient-10);
}

.cls-34 {
fill: url(#linear-gradient-11);
}
        </style>
        <linearGradient id="linear-gradient" x1="185.31673" y1="225.71158" x2="376.00282" y2="225.71158" gradientUnits="userSpaceOnUse">
            <stop offset="0" stop-color="#ffb7ff" />
            <stop offset="1" stop-color="#a86fff" />
        </linearGradient>
        <linearGradient id="linear-gradient-2" x1="99.21431" y1="208.24017" x2="143.83902" y2="241.12159" gradientUnits="userSpaceOnUse">
            <stop offset="0" stop-color="#212940" />
            <stop offset="1" stop-color="#313b5e" />
        </linearGradient>
        <linearGradient id="linear-gradient-3" x1="219.93852" y1="299.86225" x2="255.53402" y2="321.29223" xlink:href="#linear-gradient" />
        <linearGradient id="linear-gradient-4" x1="245.69453" y1="322.04511" x2="268.99298" y2="322.04511" xlink:href="#linear-gradient" />
        <linearGradient id="linear-gradient-5" x1="249.45474" y1="324.21613" x2="272.75316" y2="324.21613" xlink:href="#linear-gradient" />
        <linearGradient id="linear-gradient-6" x1="253.21492" y1="326.38708" x2="276.51337" y2="326.38708" xlink:href="#linear-gradient" />
        <linearGradient id="linear-gradient-7" x1="256.97492" y1="328.55795" x2="280.27336" y2="328.55795" xlink:href="#linear-gradient" />
        <linearGradient id="linear-gradient-8" x1="256.39489" y1="320.71476" x2="262.90132" y2="320.71476" xlink:href="#linear-gradient" />
        <linearGradient id="linear-gradient-9" x1="255.76584" y1="325.4198" x2="262.27225" y2="325.4198" xlink:href="#linear-gradient" />
        <linearGradient id="linear-gradient-10" x1="268.30448" y1="322.52255" x2="274.81091" y2="322.52255" xlink:href="#linear-gradient" />
        <linearGradient id="linear-gradient-11" x1="258.89693" y1="332.2958" x2="265.40336" y2="332.2958" xlink:href="#linear-gradient" />
    </defs>
    <title>data_specialists</title>
    <g class="cls-1">
        <g id="_ÎÓÈ_1" data-name="—ÎÓÈ_1">
            <polygon class="cls-2" points="49.798 103.227 290.28 242.98 291.225 242.434 50.743 102.681 49.798 103.227" />
            <polygon class="cls-3" points="222.391 278.279 208.965 270.528 227.611 259.763 241.036 267.514 222.391 278.279" />
            <polygon class="cls-3" points="204.391 267.946 190.965 260.195 209.611 249.43 223.036 257.181 204.391 267.946" />
            <polygon class="cls-2" points="31.262 149.222 0 131.173 43.419 106.105 74.681 124.154 31.262 149.222" />
            <path id="dataSpecialistScreen_shadow" class="cls-2" d="M370.72429,135.8225l-77.84-44.9409c-1.0155-.5863-1.8387.036-1.8387,1.3899v56.9871L372.563,196.3228V139.3357A4.40346,4.40346,0,0,0,370.72429,135.8225Z" transform="translate(-125.89 -90.66094)" />
            <polygon class="cls-4" points="132.429 158.336 84.869 130.878 81.904 132.59 78.987 130.906 12.933 169.042 60.493 196.501 63.458 194.789 66.375 196.473 132.429 158.336" />
            <path class="cls-4" d="M484.43809,204.3521a10.55373,10.55373,0,0,0-4.7845-8.2931l-4.1648-2.4046V304.0261l-84.818,50.632-143.2519-84.0952-2.6602,1.5459a3.35833,3.35833,0,0,0-1.9678,2.7644l-.0008-.0091-.0095,3.3454a3.39,3.39,0,0,0,2,2.7936l139.4515,80.5124a10.55393,10.55393,0,0,0,9.5744-.0032l87.7837-51.0142.00881-3.1332,2.55119-1.4826Z" transform="translate(-125.89 -90.66094)" />
            <path class="cls-5" d="M331.99729,216.1121l149.0573,86.0582-87.7837,51.0144a10.55372,10.55372,0,0,1-9.5743.003L244.245,272.6753c-2.65691-1.5339-2.66581-4.0179-.03141-5.5489Zm.6084,90.4309,6.94-4.0331-49.2019-28.4067-6.9399,4.0331,49.2018,28.4067Zm28.5736,6.8345,6.94-4.0331-28.9689-16.7252-6.94,4.0331,28.9689,16.7252Zm8.3404-4.8469,6.94-4.0331L357.61,293.6147l-6.93991,4.0331,18.8496,10.8828Zm-70.8185-40.8871,6.94-4.0331-18.8495-10.8827-6.94,4.033,18.8495,10.8828Zm36.897,3.6002-6.9451,4.0361,8.7358,5.0437,6.9452-4.0361-8.7359-5.0437Zm28.5737,6.8346-6.9451,4.0361,8.7358,5.0437,6.9452-4.0361-8.7359-5.0437Zm-8.3405,4.847-6.9452,4.0361,8.7359,5.0437,6.9451-4.0361-8.7358-5.0437Zm-11.8926-16.5286-6.9452,4.0361,8.7359,5.0437,6.9452-4.0361-8.7359-5.0437Zm42.2568,32.4429,6.9452-4.0361-8.73579-5.0436-6.94511,4.0361,8.7357,5.0436Zm-8.3405,4.847,6.9451-4.0361-8.7357-5.0436-6.9452,4.0361,8.7358,5.0436Zm-23.8023-31.4505-6.9452,4.036,8.7358,5.0436,6.9451-4.0361-8.7357-5.0435Zm-8.3406,4.847-6.9451,4.036,8.7357,5.0436,6.94521-4.0361-8.73581-5.0435Zm80.9496,45.1196,6.9451-4.0361-8.7357-5.0435-6.94519,4.036,8.73579,5.0436Zm-101.1827-56.8013-6.9452,4.0361,8.7358,5.0436,6.9451-4.0361-8.7357-5.0436Zm92.8421,61.6483,6.9452-4.0361-8.7358-5.0435-6.9451,4.036,8.7357,5.0436Zm-84.5015-66.4953-6.9452,4.0361,8.7357,5.0436,6.9452-4.0361-8.7357-5.0436Zm-26.7831,2.2451,6.9451-4.0361-8.7356-5.0435L298.301,257.756l8.73559,5.0435Zm91.0515,52.5686,6.9451-4.0361-8.7356-5.0435-6.9451,4.0361,8.7356,5.0435Zm8.3405-4.847,6.9452-4.0361-8.7356-5.0435-6.94519,4.0361,8.73559,5.0435Zm-91.0515-52.5686,6.9452-4.0361-8.7356-5.0435-6.9452,4.0361,8.7356,5.0435Zm92.825,63.255,6.9452-4.0361-8.7306-5.0406-6.9451,4.0361,8.7305,5.0406Zm8.3406-4.847,6.9451-4.0361-8.7305-5.0406-6.9452,4.0361,8.7306,5.0406Zm-121.4105-68.4798-6.9451,4.0361,8.7303,5.0404,6.9452-4.036-8.7304-5.0405Zm28.5737,6.8346-6.9451,4.0361,8.7303,5.0404,6.9452-4.036-8.7304-5.0405Zm-20.2331-11.6816-6.9452,4.036,8.73041,5.0405,6.94519-4.0361-8.7304-5.0404Zm11.8926,16.5286-6.9452,4.0361,8.7304,5.0404,6.9451-4.036-8.7303-5.0405Zm50.5852,29.2054-6.9452,4.0361,8.7304,5.0404,6.94521-4.036-8.73041-5.0405Zm8.3406-4.847-6.94519,4.0361,8.73039,5.0404,6.9451-4.036-8.7303-5.0405Zm-22.0171-22.368-6.94009,4.0332,8.73589,5.0436,6.94011-4.0331-8.73591-5.0437Zm20.2332,11.6816-6.9401,4.0332,8.7359,5.0437,6.9401-4.0332-8.7359-5.0437ZM394.536,293.9927l6.94019-4.0332-8.7358-5.0436-6.9401,4.0332,8.73571,5.0436Zm-32.14781-26.6006-6.9401,4.0331,8.7357,5.0436,6.9401-4.0332-8.7357-5.0435ZM342.155,255.7105l-6.94011,4.0331,8.7358,5.0436,6.9401-4.0332-8.73579-5.0435Zm92.84719,61.6453,6.9401-4.0331-8.7357-5.0436-6.9402,4.0331,8.7358,5.0436Zm-116.085-36.4182-6.9399,4.0331,8.7359,5.0437,6.9399-4.0331-8.7359-5.0437Zm45.4095-26.3891-6.94,4.0331,8.7359,5.0437,6.94-4.0331-8.7359-5.0437Zm-16.8359,33.2238-6.94,4.0331,8.7359,5.0437,6.94-4.0331-8.7359-5.0437Zm37.069-21.5421-6.94,4.033,8.7359,5.0437,6.94-4.0331-8.7359-5.0436Zm-57.3021,9.8605-6.94,4.0331,8.7359,5.0437,6.9399-4.0331-8.7358-5.0437Zm-3.5402-22.9851,6.9401-4.0332-8.73559-5.0435-6.94011,4.0332,8.7356,5.0435ZM414.769,305.6742l6.94019-4.0332-8.7356-5.0435-6.9402,4.0332,8.73561,5.0435Zm-61.93031,12.5503,6.94-4.0331-8.73569-5.0435-6.94,4.033,8.73569,5.0436Zm53.75-31.2361,6.94-4.033-8.73569-5.0436-6.94,4.033,8.73569,5.0436Zm-4.9433,49.7522,6.94-4.033-8.7357-5.0436-6.94,4.0331,8.7357,5.0435Zm-72.6141-49.9636-6.94,4.033,8.73571,5.0436,6.94-4.033-8.73571-5.0436Zm-20.2332-11.6816-6.9399,4.033,8.7357,5.0436,6.94-4.0331-8.7358-5.0435Zm101.1877,56.7983,6.94-4.033-8.7357-5.0436-6.94,4.033,8.7357,5.0436Zm-92.8473-61.6453-6.9399,4.0331,8.7357,5.0436,6.94-4.0331-8.7358-5.0436Zm37.0691-21.5421-6.94,4.0331,8.7357,5.0435,6.94-4.033-8.7357-5.0436Zm20.2331,11.6816-6.94,4.0331,8.7358,5.0435,6.94-4.033-8.7358-5.0436Zm-37.069,21.5422-6.94,4.033,8.7358,5.0436,6.9399-4.0331-8.7357-5.0435Zm55.9332,59.6575,6.9399-4.033-8.7357-5.0436-6.94,4.0331,8.7358,5.0435Zm53.75-31.236,6.9399-4.0331-8.7357-5.0436-6.94,4.0331,8.7358,5.0436Zm-156.6941-37.8612,6.9399-4.0331-8.7356-5.0435-6.9399,4.0331,8.7356,5.0435Zm91.0515,52.5686,6.94-4.033-8.7356-5.0435-6.94,4.033,8.7356,5.0435Zm-8.3406,4.847,6.94-4.033-8.7356-5.0435-6.94,4.033,8.7356,5.0435Zm-37.3015-83.8047,6.94-4.033-8.7356-5.0435-6.94,4.033,8.7356,5.0435Zm-53.75,31.2361,6.94-4.0331-8.7356-5.0435-6.94,4.0331,8.7356,5.0435Zm107.7325,42.8747,6.94-4.0331-8.7356-5.0435-6.94,4.0331,8.7356,5.0435Zm37.069-21.5422,6.94-4.033-8.7356-5.0435-6.94,4.033,8.7356,5.0435Zm-1.9386,12.8436,6.9401-4.0331-8.7305-5.0406-6.9402,4.0332,8.7306,5.0405Zm-92.8418-61.6422-6.9401,4.0331,8.7304,5.0405,6.9401-4.0331-8.7304-5.0405Zm50.5852,29.2054-6.9401,4.0331,8.7304,5.0405,6.9401-4.0331-8.7304-5.0405Zm-70.8183-40.887-6.94019,4.0331,8.73039,5.0405,6.9401-4.0331-8.7303-5.0405Zm79.7181,92.7087,6.94-4.0331-8.7305-5.0406-6.94,4.0331,8.7305,5.0406Zm8.3404-4.8469,6.94-4.0331-8.7305-5.0406-6.94,4.0331,8.7305,5.0406Zm-16.6809,9.6939,6.9399-4.0331-8.7305-5.0406-6.94,4.0331,8.7306,5.0406Zm53.75-31.2361,6.9399-4.0331-8.7305-5.0406-6.94,4.0331,8.7306,5.0406Zm-156.6941-37.8612,6.9399-4.033-8.7303-5.0405-6.94,4.0331,8.7304,5.0404Zm18.4427,2.6081-6.94,4.0331,8.7304,5.0405,6.94-4.0331-8.7304-5.0405Zm8.3404-4.8469-6.94,4.033,8.7304,5.0405,6.94-4.033-8.7304-5.0405Zm-35.1237,7.0858,6.94-4.033-8.7304-5.0405-6.94,4.0331,8.7304,5.0404Zm72.1927-28.628-6.9399,4.0331,8.7303,5.0405,6.94-4.0331-8.7304-5.0405Zm72.6088,49.9606,6.94-4.0331-8.7304-5.0405-6.94,4.0331,8.7304,5.0405Zm-22.0235-20.7552-6.94,4.0331,8.7304,5.0405,6.94-4.0331-8.7304-5.0405Zm-51.9596,40.3097,6.94-4.0331-8.7304-5.0405-6.94,4.0331,8.7304,5.0405Zm-18.8588-81.1967-6.94,4.0331,8.7304,5.0405,6.94-4.0331-8.7304-5.0405Z" transform="translate(-125.89 -90.66094)" />
            <path class="cls-6" d="M393.27089,353.1846a10.55342,10.55342,0,0,1-9.5743.0031h0L244.245,272.6753a3.3892,3.3892,0,0,1-1.99991-2.7936l-.0095,3.3454a3.38966,3.38966,0,0,0,1.9999,2.7936l139.4516,80.5124h0a10.55372,10.55372,0,0,0,9.5743-.0031l87.7838-51.0143.0094-3.3454Z" transform="translate(-125.89 -90.66094)" />
            <g class="cls-1">
                <path class="cls-7" d="M476.55819,192.3471a10.554,10.554,0,0,1,4.7845,8.2931l-.2879,101.5301-149.0572-86.0582.2878-101.5301c.0087-3.0468,2.1644-4.2812,4.8212-2.7473Zm-.5265,98.66.25731-90.7694-138.96431-80.231-.2573,90.7694,138.9643,80.231ZM406.822,154.769c-.74921-.4326-1.35921-.0851-1.36171.776a2.98272,2.98272,0,0,0,1.3529,2.3431c.7495.4327,1.3592.0852,1.3617-.7759a2.98213,2.98213,0,0,0-1.35289-2.3432Z" transform="translate(-125.89 -90.66094)" />
                <polygon class="cls-5" points="350.399 109.577 350.142 200.346 211.177 120.115 211.435 29.346 350.399 109.577" />
                <path class="cls-6" d="M479.45049,190.6663,339.999,110.1539a3.38944,3.38944,0,0,0-3.41921-.3353l-2.8924,1.6809a3.3896,3.3896,0,0,1,3.4192.3352l139.4516,80.5124a10.554,10.554,0,0,1,4.7845,8.2931l-.2878,101.5301,2.8923-1.6808.2879-101.5301A10.55353,10.55353,0,0,0,479.45049,190.6663Z" transform="translate(-125.89 -90.66094)" />
            </g>
            
            <g id="dataSpecialistScreen">
                <path class="cls-7" d="M359.399,139.3755,284.61709,96.2001c-.9756-.5632-1.7665.0347-1.7665,1.3354v2.4184l78.3148,45.2151v-2.4184A4.23034,4.23034,0,0,0,359.399,139.3755Z" transform="translate(-125.89 -90.66094)" />
                <path class="cls-8" d="M288.19649,100.7768c0,.4752-.3336.6678-.7451.4302a1.64717,1.64717,0,0,1-.745-1.2905c0-.4751.33361-.6677.745-.4301A1.64665,1.64665,0,0,1,288.19649,100.7768Z" transform="translate(-125.89 -90.66094)" />
                <path class="cls-8" d="M290.59989,102.1644c0,.4752-.3336.6678-.7451.4302a1.64688,1.64688,0,0,1-.745-1.2905c0-.4751.3335-.6677.745-.4301A1.64665,1.64665,0,0,1,290.59989,102.1644Z" transform="translate(-125.89 -90.66094)" />
                <path class="cls-8" d="M293.00329,103.552c0,.4752-.3336.6678-.7451.4302a1.647,1.647,0,0,1-.7451-1.2905c0-.4751.3336-.6677.7451-.4301A1.64665,1.64665,0,0,1,293.00329,103.552Z" transform="translate(-125.89 -90.66094)" />
                <polygon class="cls-9" points="235.275 107.856 156.961 62.641 156.961 9.293 235.275 54.508 235.275 107.856" />
                <polygon class="cls-10" points="229.163 57.842 181.647 30.408 181.647 29.134 229.163 56.568 229.163 57.842" />
                <polygon class="cls-10" points="229.163 60.634 181.647 33.201 181.647 31.927 229.163 59.36 229.163 60.634" />
                <polygon class="cls-10" points="229.163 63.427 181.647 35.993 181.647 34.719 229.163 62.153 229.163 63.427" />
                <polygon class="cls-10" points="216.952 59.169 181.647 38.785 181.647 37.512 216.952 57.895 216.952 59.169" />
                <polygon class="cls-11" points="229.163 70.663 181.647 43.229 181.647 41.955 229.163 69.389 229.163 70.663" />
                <polygon class="cls-11" points="229.163 73.455 181.647 46.021 181.647 44.748 229.163 72.181 229.163 73.455" />
                <polygon class="cls-11" points="229.163 76.248 181.647 48.814 181.647 47.54 229.163 74.974 229.163 76.248" />
                <polygon class="cls-11" points="229.163 81.15 181.647 53.717 181.647 52.443 229.163 79.877 229.163 81.15" />
                <polygon class="cls-11" points="229.163 83.943 181.647 56.509 181.647 55.235 229.163 82.669 229.163 83.943" />
                <polygon class="cls-11" points="195.388 67.235 181.647 59.301 181.647 58.028 195.388 65.961 195.388 67.235" />
                <polygon class="cls-12" points="177.886 52.173 163.22 43.705 163.22 19.958 177.886 28.425 177.886 52.173" />
            </g>
            <g id="dataSpecialistLaptopScreen">
                <polygon class="cls-6" points="315.373 166.729 244.84 126.007 244.84 68.436 315.373 109.158 315.373 166.729" />
                <path class="cls-7" d="M439.357,194.666l-66.72041-38.5211c-1.0528-.6078-1.9063.0374-1.9063,1.4411v1.5416l70.533,40.7222v-1.5415A4.56522,4.56522,0,0,0,439.357,194.666Z" transform="translate(-125.89 -90.66094)" />
                <path class="cls-8" d="M376.49939,160.5752c0,.5127-.36.7205-.8041.4642a1.7774,1.7774,0,0,1-.804-1.3927c0-.5127.36-.7205.804-.4642A1.77723,1.77723,0,0,1,376.49939,160.5752Z" transform="translate(-125.89 -90.66094)" />
                <path class="cls-8" d="M379.093,162.0726c0,.5127-.36.7206-.80411.4642a1.77737,1.77737,0,0,1-.804-1.3926c0-.5128.36-.7206.804-.4642A1.77719,1.77719,0,0,1,379.093,162.0726Z" transform="translate(-125.89 -90.66094)" />
                <path class="cls-8" d="M381.68659,163.57c0,.5128-.36.7206-.804.4642a1.77721,1.77721,0,0,1-.8041-1.3926c0-.5127.36-.7206.8041-.4642A1.77737,1.77737,0,0,1,381.68659,163.57Z" transform="translate(-125.89 -90.66094)" />
                <polygon class="cls-13" points="296.495 143.858 263.719 124.935 263.719 89.227 296.495 108.15 296.495 143.858" />
                <polygon class="cls-6" points="293.631 114.813 266.279 99.021 266.279 95.667 293.631 111.459 293.631 114.813" />
                <polygon class="cls-6" points="277.584 122.83 273.516 120.482 273.516 119.488 277.584 121.837 277.584 122.83" />
                <polygon class="cls-6" points="286.042 127.714 278.406 123.305 278.406 122.311 286.042 126.72 286.042 127.714" />
                <polygon class="cls-6" points="293.631 121.768 266.279 105.976 266.279 102.171 293.631 117.963 293.631 121.768" />
                <path class="cls-14" d="M418.70659,218.2266l-25.7232-14.8512a1.95092,1.95092,0,0,1-.8146-1.5564v-1.6326c0-.5998.3647-.8755.8146-.6158l25.7232,14.8513a1.95077,1.95077,0,0,1,.8145,1.5563v1.6326C419.52109,218.2107,419.15639,218.4864,418.70659,218.2266Z" transform="translate(-125.89 -90.66094)" />
                <path class="cls-12" d="M418.70659,227.8913,392.98339,213.04a1.95058,1.95058,0,0,1-.8146-1.5563v-1.6326c0-.5999.3647-.8756.8146-.6158l25.7232,14.8512a1.95111,1.95111,0,0,1,.8145,1.5564v1.6326C419.52109,227.8753,419.15639,228.151,418.70659,227.8913Z" transform="translate(-125.89 -90.66094)" />
            </g>
            
            <polygon class="cls-6 keys" points="206.701 145.565 199.761 149.598 191.031 144.558 197.971 140.525 206.701 145.565" />
            <polygon class="cls-6 keys" points="216.82 151.407 209.88 155.44 201.145 150.397 208.085 146.364 216.82 151.407" />
            <polygon class="cls-6 keys" points="194.649 152.569 187.709 156.602 178.978 151.562 185.918 147.529 194.649 152.569" />
            <polygon class="cls-6 keys" points="226.934 157.247 219.994 161.28 211.264 156.239 218.204 152.206 226.934 157.247" />
            <polygon class="cls-6 keys" points="177.973 162.26 171.028 166.296 162.297 161.256 169.242 157.22 177.973 162.26" />
            <polygon class="cls-6 keys" points="196.432 163.255 189.487 167.292 180.752 162.248 187.697 158.212 196.432 163.255" />
            <polygon class="cls-6 keys" points="214.882 164.251 207.942 168.284 199.211 163.243 206.151 159.21 214.882 164.251" />
            <polygon class="cls-6 keys" points="225.001 170.093 218.061 174.126 209.325 169.083 216.265 165.05 225.001 170.093" />
            <polygon class="cls-6 keys" points="257.287 174.77 250.346 178.804 241.611 173.76 248.551 169.727 257.287 174.77" />
            <polygon class="cls-6 keys" points="216.665 174.937 209.72 178.973 200.985 173.93 207.93 169.894 216.665 174.937" />
            <polygon class="cls-6 keys" points="208.325 179.784 201.38 183.82 192.644 178.777 199.589 174.74 208.325 179.784" />
            <polygon class="cls-6 keys" points="267.406 180.613 260.466 184.646 251.73 179.602 258.67 175.569 267.406 180.613" />
            <polygon class="cls-6 keys" points="245.234 181.775 238.294 185.808 229.558 180.764 236.498 176.731 245.234 181.775" />
            <polygon class="cls-6 keys" points="218.444 185.626 211.499 189.662 202.763 184.619 209.708 180.583 218.444 185.626" />
            <polygon class="cls-6 keys" points="277.52 186.452 270.58 190.485 261.849 185.445 268.789 181.412 277.52 186.452" />
            <polygon class="cls-6 keys" points="236.899 186.619 229.953 190.655 221.218 185.611 228.163 181.575 236.899 186.619" />
            <polygon class="cls-6 keys" points="255.353 187.617 248.413 191.65 239.677 186.607 246.617 182.573 255.353 187.617" />
            <polygon class="cls-6 keys" points="210.104 190.473 203.164 194.506 194.428 189.463 201.368 185.43 210.104 190.473" />
            <polygon class="cls-6 keys" points="228.558 191.466 221.613 195.502 212.877 190.458 219.822 186.422 228.558 191.466" />
            <polygon class="cls-6 keys" points="287.639 192.294 280.699 196.328 271.963 191.284 278.903 187.251 287.639 192.294" />
            <polygon class="cls-6 keys" points="247.018 192.461 240.073 196.497 231.337 191.453 238.282 187.417 247.018 192.461" />
            <polygon class="cls-6 keys" points="265.467 193.456 258.527 197.489 249.797 192.449 256.737 188.416 265.467 193.456" />
            <polygon class="cls-6 keys" points="238.677 197.308 231.732 201.344 222.996 196.3 229.942 192.264 238.677 197.308" />
            <polygon class="cls-6 keys" points="297.753 198.134 290.813 202.167 282.082 197.126 289.022 193.093 297.753 198.134" />
            <polygon class="cls-6 keys" points="257.132 198.3 250.186 202.336 241.456 197.296 248.401 193.26 257.132 198.3" />
            <polygon class="cls-6 keys" points="275.586 199.299 268.646 203.332 259.91 198.288 266.85 194.255 275.586 199.299" />
            <polygon class="cls-6 keys" points="211.877 201.16 204.937 205.193 196.201 200.149 203.141 196.116 211.877 201.16" />
            <polygon class="cls-6 keys" points="248.791 203.147 241.846 207.183 233.116 202.143 240.061 198.107 248.791 203.147" />
            <polygon class="cls-6 keys" points="307.872 203.976 300.932 208.009 292.196 202.965 299.136 198.932 307.872 203.976" />
            <polygon class="cls-6 keys" points="267.251 204.143 260.306 208.179 251.57 203.135 258.515 199.099 267.251 204.143" />
            <polygon class="cls-6 keys" points="258.91 208.99 251.965 213.026 243.229 207.982 250.175 203.946 258.91 208.99" />
            <polygon class="cls-6 keys" points="317.986 209.815 311.046 213.848 302.315 208.808 309.255 204.775 317.986 209.815" />
            <polygon class="cls-6 keys" points="295.819 210.98 288.879 215.013 280.144 209.97 287.084 205.937 295.819 210.98" />
            <polygon class="cls-6 keys" points="250.57 213.837 243.63 217.87 224.78 206.987 231.72 202.954 250.57 213.837" />
            <polygon class="cls-6 keys" points="328.105 215.657 321.165 219.691 312.429 214.647 319.369 210.614 328.105 215.657" />
            <polygon class="cls-6 keys" points="287.484 215.824 280.539 219.86 271.803 214.817 278.748 210.781 287.484 215.824" />
            <polygon class="cls-6 keys" points="305.933 216.819 298.993 220.853 290.263 215.812 297.203 211.779 305.933 216.819" />
            <polygon class="cls-6 keys" points="242.229 218.684 235.289 222.717 206.32 205.991 213.26 201.958 242.229 218.684" />
            <polygon class="cls-6 keys" points="279.143 220.671 272.198 224.707 263.463 219.664 270.408 215.628 279.143 220.671" />
            <polygon class="cls-6 keys" points="297.598 221.663 290.653 225.7 281.922 220.659 288.867 216.623 297.598 221.663" />
            <polygon class="cls-6 keys" points="316.052 222.662 309.112 226.695 300.377 221.651 307.317 217.618 316.052 222.662" />
            <polygon class="cls-6 keys" points="233.889 223.53 226.949 227.564 218.213 222.52 225.153 218.487 233.889 223.53" />
            <polygon class="cls-6 keys" points="270.803 225.518 263.863 229.551 255.127 224.508 262.067 220.475 270.803 225.518" />
            <polygon class="cls-6 keys" points="289.257 226.51 282.312 230.546 273.582 225.506 280.527 221.47 289.257 226.51" />
            <polygon class="cls-6 keys" points="307.717 227.506 300.772 231.542 292.036 226.498 298.981 222.462 307.717 227.506" />
            <polygon class="cls-6 keys" points="262.462 230.365 255.522 234.398 246.787 229.355 253.727 225.321 262.462 230.365" />
            <polygon class="cls-6 keys" points="280.917 231.357 273.977 235.39 265.246 230.35 272.186 226.317 280.917 231.357" />
            <polygon class="cls-6 keys" points="299.376 232.353 292.431 236.389 283.696 231.345 290.641 227.309 299.376 232.353" />
            <polygon class="cls-6 keys" points="254.122 235.212 247.182 239.245 238.446 234.202 245.386 230.168 254.122 235.212" />
            <polygon class="cls-6 keys" points="272.576 236.204 265.636 240.237 256.906 235.197 263.846 231.164 272.576 236.204" />
            <polygon class="cls-6 keys" points="291.036 237.2 284.096 241.233 275.36 236.189 282.3 232.156 291.036 237.2" />
            <polygon class="cls-6 keys" points="264.236 241.051 257.296 245.084 248.565 240.044 255.505 236.011 264.236 241.051" />
            <polygon class="cls-6 keys" points="282.695 242.047 275.755 246.08 267.02 241.036 273.96 237.003 282.695 242.047" />
            <polygon class="cls-6 keys" points="274.355 246.894 267.415 250.927 258.679 245.883 265.619 241.85 274.355 246.894" />
            <polygon class="cls-6 keys" points="186.313 157.413 179.368 161.449 170.638 156.409 177.583 152.373 186.313 157.413" />
            <polygon class="cls-6 keys" points="204.768 158.412 197.828 162.445 189.092 157.401 196.032 153.368 204.768 158.412" />
            <polygon class="cls-6 keys" points="237.053 163.089 230.113 167.122 221.378 162.078 228.318 158.045 237.053 163.089" />
            <polygon class="cls-6 keys" points="188.092 168.102 181.147 172.139 172.411 167.095 179.356 163.059 188.092 168.102" />
            <polygon class="cls-6 keys" points="247.173 168.931 240.233 172.964 231.497 167.921 238.437 163.888 247.173 168.931" />
            <polygon class="cls-6 keys" points="206.546 169.095 199.601 173.131 190.871 168.09 197.816 164.054 206.546 169.095" />
            <polygon class="cls-6 keys" points="161.292 171.954 154.352 175.987 145.621 170.947 152.561 166.914 161.292 171.954" />
            <polygon class="cls-6 keys" points="179.751 172.949 172.811 176.983 153.962 166.1 160.902 162.067 179.751 172.949" />
            <polygon class="cls-6 keys" points="198.206 173.942 191.261 177.978 182.53 172.937 189.475 168.901 198.206 173.942" />
            <polygon class="cls-6 keys" points="235.12 175.935 228.18 179.969 219.444 174.925 226.384 170.892 235.12 175.935" />
            <polygon class="cls-6 keys" points="152.951 176.801 146.011 180.834 137.281 175.794 144.221 171.761 152.951 176.801" />
            <polygon class="cls-6 keys" points="171.411 177.796 164.471 181.829 155.735 176.786 162.675 172.753 171.411 177.796" />
            <polygon class="cls-6 keys" points="189.865 178.789 182.925 182.822 174.195 177.781 181.135 173.748 189.865 178.789" />
            <polygon class="cls-6 keys" points="226.785 180.779 219.84 184.816 211.104 179.772 218.049 175.736 226.785 180.779" />
            <polygon class="cls-6 keys" points="163.07 182.643 156.13 186.676 147.395 181.633 154.335 177.6 163.07 182.643" />
            <polygon class="cls-6 keys" points="181.525 183.636 174.585 187.669 165.854 182.628 172.794 178.595 181.525 183.636" />
            <polygon class="cls-6 keys" points="199.984 184.631 193.044 188.664 184.309 183.621 191.249 179.587 199.984 184.631" />
            <polygon class="cls-6 keys" points="191.644 189.478 184.704 193.511 175.968 188.468 182.908 184.434 191.644 189.478" />
            <polygon class="cls-6 keys" points="201.763 195.32 194.823 199.353 186.087 194.31 193.027 190.277 201.763 195.32" />
            <polygon class="cls-6 keys" points="220.218 196.313 213.278 200.346 204.542 195.302 211.482 191.269 220.218 196.313" />
            <polygon class="cls-6 keys" points="230.337 202.155 223.397 206.188 214.661 201.144 221.601 197.111 230.337 202.155" />
            <polygon class="cls-6 keys" points="213.656 211.849 206.716 215.882 157.514 187.475 164.454 183.442 213.656 211.849" />
            <polygon class="cls-6 keys" points="223.77 217.688 216.83 221.721 208.099 216.681 215.039 212.648 223.77 217.688" />
            <path class="cls-8" d="M406.81249,158.1226c.8623.4978,1.5637.0981,1.56651-.8925a3.43118,3.43118,0,0,0-1.55631-2.6957c-.8619-.4976-1.56369-.0978-1.5665.8927A3.43081,3.43081,0,0,0,406.81249,158.1226Z" transform="translate(-125.89 -90.66094)" />
            <polygon class="cls-5" points="66.278 193.54 18.719 166.082 84.773 127.946 132.332 155.404 66.278 193.54" />
            <polygon class="cls-15" points="60.396 193.568 12.837 166.11 78.891 127.974 126.45 155.432 60.396 193.568" />
            <g class="cls-16">
                <path class="cls-17" d="M316.79113,161.9596q.4917.284.994.6161c7.4227,4.9103,12.3217,14.9996,17.5106,25.681,5.3681,11.0505,10.9183,22.4757,19.5942,28.3685q1.40685.955,2.71,1.7044c12.5767,7.2611,17.9101.9994,17.9637.9302l1.1256,1.4717c-.2442.3008-5.7913,6.8139-19.0233-.8256q-1.39035-.80265-2.89729-1.8247c-9.2547-6.2822-14.9842-18.0802-20.5255-29.4898-5.0036-10.2981-9.7265-20.0232-16.5583-24.5441q-.4587-.30345-.9081-.5627c-8.1384-4.6987-13.9137,1.3228-20.5701,8.2529-7.7418,8.0666-16.5204,17.2058-31.165,9.7243q-1.6788-.86025-3.246-1.767c-12.6411-7.2983-20.3478-16.9233-27.8241-26.2597-6.9701-8.706-14.1769-17.7074-25.4693-24.8486q-.5334-.3372-1.0628-.6427c-11.6795-6.7434-21.4858-1.9524-21.5852-1.8992l-.9118-1.6416c.4261-.216,10.2807-5.0474,22.4791,1.9953q.5712.32985,1.1481.6943c11.6193,7.3471,18.9697,16.5281,26.0777,25.4068,7.633,9.533,14.8755,18.5799,27.0711,25.621q1.56885.9057,3.2495,1.766c14.0055,7.1573,22.5852-1.779,30.1523-9.6635C301.71343,163.3564,307.95393,156.8574,316.79113,161.9596Z" transform="translate(-125.89 -90.66094)" />
            </g>
            <g class="cls-18">
                <path class="cls-19" d="M280.84563,166.4289c23.2122,13.4016,17.4629,61.7499,37.0334,73.049,20.4254,11.7926,17.7922-29.1282,36.9645-18.3353,19.22359,11.0909,20.64509,73.3002,21.15929,76.4792L185.31673,187.5291c.2783-2.122,6.5275-36.2615,20.9169-33.5775,12.9891,2.4228,18.5284,39.5596,36.8691,51.3269C257.38873,214.4443,258.72843,153.6595,280.84563,166.4289Z" transform="translate(-125.89 -90.66094)" />
            </g>
            <path id="dataSpecialist_whiteDot" class="cls-13" d="M317.76713,157.9132a8.29953,8.29953,0,0,1,3.7644,6.5201c-.0068,2.3991-1.7041,3.3629-3.789,2.1593a8.28958,8.28958,0,0,1-3.7644-6.5203C313.98493,157.6767,315.67933,156.7077,317.76713,157.9132Z" transform="translate(-125.89 -90.66094)" />
            <g class="cls-20">
                <polygon class="cls-13" points="80.569 109.916 80.017 109.643 80.017 10.739 80.569 11.013 80.569 109.916" />
                <polygon class="cls-13" points="117.755 131.149 117.203 130.876 117.203 31.972 117.755 32.246 117.755 131.149" />
                <polygon class="cls-13" points="150.712 150.164 150.16 149.89 150.16 50.987 150.712 51.26 150.712 150.164" />
                <polygon class="cls-13" points="191.854 173.832 191.302 173.558 191.302 74.655 191.854 74.929 191.854 173.832" />
                <polygon class="cls-13" points="229.039 195.719 228.487 195.446 228.487 96.542 229.039 96.816 229.039 195.719" />
            </g>
            <polygon class="cls-21" points="82.323 115.825 77.732 113.175 77.732 111.931 82.323 114.582 82.323 115.825" />
            <polygon class="cls-21" points="119.499 136.248 114.908 133.597 114.908 132.354 119.499 135.004 119.499 136.248" />
            <polygon class="cls-21" points="152.732 154.569 148.141 151.919 148.141 150.675 152.732 153.325 152.732 154.569" />
            <path class="cls-4" d="M302.41084,334.95509l-.01437.01634a2.549,2.549,0,0,0-1.50968-2.07406l-70.342-40.59532a7.42053,7.42053,0,0,0-6.70287-.15078L199.29165,306.3332a2.1692,2.1692,0,0,0-1.23676,1.70556l-.02313-.01057v3.979l.019.01043a2.51115,2.51115,0,0,0,1.50536,2.1224l70.342,40.59532a7.421,7.421,0,0,0,6.70329.15106l24.55028-14.18193a2.12926,2.12926,0,0,0,1.24588-1.80744l.01324-.00719Z" transform="translate(-125.89 -90.66094)" />
            <path class="cls-22" d="M198.03174,304.03219v3.97889l3.49523,1.92215s-.15412-4.35979-.22019-4.40376S198.03174,304.03219,198.03174,304.03219Z" transform="translate(-125.89 -90.66094)" />
            <polygon class="cls-22" points="176.521 240.298 176.521 244.233 169.943 247.897 176.521 240.298" />
            <path class="cls-22" d="M269.89815,350.73922a7.42138,7.42138,0,0,0,6.70329.15107l24.55042-14.18179c1.77785-1.027,1.65779-2.76077-.26493-3.87038l-70.34217-40.59531a7.42027,7.42027,0,0,0-6.70273-.15079l-24.55038,14.18179c-1.77871,1.02759-1.65926,2.75993.26444,3.8701Z" transform="translate(-125.89 -90.66094)" />
            <path class="cls-23" d="M269.89815,346.80233a7.42138,7.42138,0,0,0,6.70329.15107l24.55042-14.18179c1.77785-1.027,1.65779-2.76077-.26493-3.87038l-70.34217-40.59531a7.42073,7.42073,0,0,0-6.70273-.15093l-24.55038,14.18193c-1.77871,1.02759-1.65926,2.75993.26444,3.8701Z" transform="translate(-125.89 -90.66094)" />
            <polygon class="cls-24" points="140.647 252.413 168.537 236.301 109.839 202.426 81.949 218.537 140.647 252.413" />
            <path class="cls-5" d="M212.84123,300.52779a1.83879,1.83879,0,0,0,1.65215.06863l6.343-3.66421c.4222-.24379.36921-.67177-.1195-.95375h0a1.83919,1.83919,0,0,0-1.65158-.06834l-6.343,3.66406c-.42228.24394-.36887.67205.119.95361Z" transform="translate(-125.89 -90.66094)" />
            <path class="cls-5" d="M281.78787,339.642c1.48333.8561,3.43113,1.11891,4.348.58919l3.37969-1.95231c.917-.52972.45912-1.65327-1.02421-2.50922h0c-1.4836-.85623-3.42943-1.12-4.3464-.59032l-3.37969,1.95231c-.917.52972-.461,1.65412,1.02266,2.51035Z" transform="translate(-125.89 -90.66094)" />
            <path class="cls-5" d="M209.20291,301.1181a1.93483,1.93483,0,0,0,1.74176.07272c.44614-.25774.38955-.70756-.12681-1.00561a1.9344,1.9344,0,0,0-1.7408-.07215C208.63092,300.3708,208.68751,300.82062,209.20291,301.1181Z" transform="translate(-125.89 -90.66094)" />
            <path class="cls-5" d="M211.82118,302.62919c-.5154-.29748-.572-.74744-.12585-1.00518a1.93439,1.93439,0,0,1,1.74078.07229c.51588.29762.57248.74758.12635,1.00533A1.935,1.935,0,0,1,211.82118,302.62919Z" transform="translate(-125.89 -90.66094)" />
            <polygon class="cls-25" points="86.38 225.432 82.967 223.461 82.967 222.542 86.38 224.513 86.38 225.432" />
            <polygon class="cls-25" points="92.265 228.847 88.852 226.877 88.852 225.958 92.265 227.928 92.265 228.847" />
            <path id="dataSpecialistMobCircle" class="cls-26" d="M250.07838,315.59521c-5.39757,3.11624-14.18034,3.11624-19.57835-.00022-5.398-3.11668-5.398-8.18747-.00066-11.30371a18.12781,18.12781,0,0,1,6.37353-2.09539,1.53557,1.53557,0,0,1,1.5774.5423c.17741.40169-.24246.80863-.93917.91069a14.71913,14.71913,0,0,0-5.17614,1.70224c-4.38569,2.53189-4.38569,6.65169.00044,9.184a17.60562,17.60562,0,0,0,15.90755.00044,6.41528,6.41528,0,0,0,3.11076-3.41981c.12945-.408.80469-.67677,1.51016-.60274.70481.07424,1.1722.46454,1.0432.87126A7.88862,7.88862,0,0,1,250.07838,315.59521Z" transform="translate(-125.89 -90.66094)" />
            <path class="cls-27" d="M245.78543,328.71832a.13373.13373,0,0,1,0-.25337l22.67773-13.093a.48449.48449,0,0,1,.43882,0,.13368.13368,0,0,1,0,.25337l-22.67759,13.093A.48478.48478,0,0,1,245.78543,328.71832Z" transform="translate(-125.89 -90.66094)" />
            <path class="cls-28" d="M249.54574,330.88934a.13369.13369,0,0,1,0-.25338l22.67759-13.093a.48457.48457,0,0,1,.43883,0,.13369.13369,0,0,1,0,.25338l-22.67759,13.093A.48457.48457,0,0,1,249.54574,330.88934Z" transform="translate(-125.89 -90.66094)" />
            <path class="cls-29" d="M253.30592,333.06035a.13368.13368,0,0,1,0-.25337l22.67759-13.09318a.48478.48478,0,0,1,.439,0,.13383.13383,0,0,1,0,.25351l-22.67759,13.093A.48478.48478,0,0,1,253.30592,333.06035Z" transform="translate(-125.89 -90.66094)" />
            <path class="cls-30" d="M257.06581,335.23123a.13373.13373,0,0,1,0-.25337l22.67773-13.09318a.48451.48451,0,0,1,.43883,0,.13378.13378,0,0,1,0,.25351l-22.67759,13.093A.4848.4848,0,0,1,257.06581,335.23123Z" transform="translate(-125.89 -90.66094)" />
            <path class="cls-31 dataSpecialistEquilizers" d="M256.75846,322.38311a.53514.53514,0,0,1,0-1.01378l4.02356-2.32293a1.94066,1.94066,0,0,1,1.75572,0,.535.535,0,0,1,0,1.01364l-4.02355,2.32307A1.94068,1.94068,0,0,1,256.75846,322.38311Z" transform="translate(-125.89 -90.66094)" />
            <path class="cls-32 dataSpecialistEquilizers" d="M256.12954,327.08815a.535.535,0,0,1-.00015-1.01363l4.0237-2.32307a1.94036,1.94036,0,0,1,1.75558,0,.535.535,0,0,1,0,1.01363l-4.02355,2.32307A1.94036,1.94036,0,0,1,256.12954,327.08815Z" transform="translate(-125.89 -90.66094)" />
            <path class="cls-33 dataSpecialistEquilizers" d="M268.66805,324.19083a.535.535,0,0,1,0-1.01363l4.02356-2.32293a1.93979,1.93979,0,0,1,1.75572,0,.535.535,0,0,1,0,1.01364l-4.02355,2.32292A1.93981,1.93981,0,0,1,268.66805,324.19083Z" transform="translate(-125.89 -90.66094)" />
            <path class="cls-34 dataSpecialistEquilizers" d="M259.2605,333.96408a.535.535,0,0,1,0-1.01364l4.02356-2.32293a1.93979,1.93979,0,0,1,1.75572,0,.535.535,0,0,1,0,1.01364l-4.02369,2.32307A1.94,1.94,0,0,1,259.2605,333.96408Z" transform="translate(-125.89 -90.66094)" />
        </g>
    </g>
</svg>