<svg xmlns="http://www.w3.org/2000/svg" viewBox="0 0 80.73 67.5"><defs><style>.cls-1{fill:#ffffff;}</style></defs><title>entry</title><g id="Layer_2" data-name="Layer 2"><g id="Layer_1-2" data-name="Layer 1"><path class="cls-1" d="M52.16,65.5c-6.7,0-7-3.88-7-4.1l-.63-6.73h6.95a1,1,0,0,0,0-2H3a1,1,0,0,1-1-1V45.73H51.16a1,1,0,0,0,0-2H2V3A1,1,0,0,1,3,2H73.83a1,1,0,0,1,1,1V24.7a1,1,0,1,0,2,0V3a3,3,0,0,0-3-3H3A3,3,0,0,0,0,3V51.67a3,3,0,0,0,3,3H32.31l-.63,6.78c0,.17-.31,4-7,4a1,1,0,0,0,0,2H52.16a1,1,0,0,0,0-2Zm-20.65,0a6,6,0,0,0,2.16-3.91l.65-6.92h8.2l.64,6.86a5.94,5.94,0,0,0,2.17,4ZM59,35.05H75.63a1,1,0,0,0,0-2H59a1,1,0,1,0,0,2Zm0,12.31H75.63a1,1,0,0,0,0-2H59a1,1,0,1,0,0,2Zm0-6.15H75.63a1,1,0,0,0,0-2H59a1,1,0,0,0,0,2ZM79.73,27.73H54.86a1,1,0,0,0-1,1V57.84a1,1,0,0,0,1,1H79.73a1,1,0,0,0,1-1V28.73A1,1,0,0,0,79.73,27.73Zm-1,29.11H55.86V29.73H78.73ZM59,53.52H75.63a1,1,0,0,0,0-2H59a1,1,0,0,0,0,2Z"/></g></g></svg>