<svg id="_ÎÓÈ_1" data-name="—ÎÓÈ_1" xmlns="http://www.w3.org/2000/svg" viewBox="0 0 589.63119 513.4978">
    <defs>
        <style>
            .cls-1 {
                fill: #ebeaed;
            }
            
            .cls-2 {
                fill: #6338ab;
            }
            
            .cls-3 {
                fill: #b7bbd1;
            }
            
            .cls-4 {
                fill: #e6edf4;
            }
            
            .cls-5 {
                fill: #8187d5;
            }
            
            .cls-6 {
                fill: #ffb236;
            }
            
            .cls-7 {
                fill: #dce7f5;
            }
            
            .cls-8 {
                fill: #f7f7f9;
            }
            
            .cls-9 {
                fill: #fff;
            }
            
            .cls-10 {
                fill: #ff5d73;
            }
            
            .cls-11 {
                fill: #7068bf;
            }
            
            .cls-12 {
                fill: #cdd4ea;
            }
            
            .cls-13 {
                fill: #8bcc34;
            }
            
            .cls-14 {
                fill: #a0aed3;
            }
            
            .cls-15 {
                fill: #e3e7ec;
            }
        </style>
    </defs>
    <title>legal</title>
    <polygon class="cls-1" points="277.058 391.359 237.334 391.289 251.368 382.619 277.058 391.359" />
    <polygon class="cls-1" points="298.18 409.64 328.17 409.64 436.305 347.208 414.703 334.662 414.713 342.36 298.18 409.64" />
    <polygon class="cls-1" points="443.172 351.099 546.938 291.19 546.938 261.471 587.1 285.263 473.172 351.099 443.172 351.099" />
    <polygon class="cls-1" points="311.882 436.689 311.882 465.765 229.205 513.498 259.205 513.498 351.882 459.991 311.882 436.689" />
    <polygon class="cls-1" points="546.685 396.102 546.688 426.06 442.922 485.969 476.922 485.969 589.631 420.897 546.685 396.102" />
    <polygon class="cls-2" points="148.439 305.817 252.202 245.91 169.526 198.176 65.763 258.084 148.439 305.817" />
    <polygon class="cls-3" points="169.526 121.367 169.526 198.176 252.202 245.91 252.202 169.1 169.526 121.367" />
    <polygon class="cls-4" points="169.526 198.176 82.444 248.453 65.763 181.275 169.526 121.367 169.526 198.176" />
    <path class="cls-5" d="M208.95479,224.5258l82.6763,47.7331,103.7626-59.9073-82.6763-47.7332Zm82.67621,45.095-78.10611-45.095,99.1924-57.2688,78.1061,45.0946Z" transform="translate(-143.1917 -43.2511)" />
    <path class="cls-6" d="M225.63559,269.8514l77.929-44.9923V177.2645c0-2.5664-1.8018-3.6066-4.0245-2.3234l-14.1805,8.1871a8.41047,8.41047,0,0,0-3.0288,3.3357l-3.357,6.3683a8.40907,8.40907,0,0,1-3.02879,3.3357l-46.28491,26.7225a8.89547,8.89547,0,0,0-4.0245,6.9706Z" transform="translate(-143.1917 -43.2511)" />
    <path class="cls-6" d="M226.903,271.1188l77.929-44.9923V178.5319c0-2.5664-1.80181-3.6066-4.02451-2.3234L286.627,184.3956a8.409,8.409,0,0,0-3.02881,3.3357l-3.357,6.3683a8.40788,8.40788,0,0,1-3.0288,3.3356l-46.2849,26.7226a8.89543,8.89543,0,0,0-4.02449,6.9705Z" transform="translate(-143.1917 -43.2511)" />
    <polygon class="cls-7" points="157.222 192.2 87.849 232.252 87.849 185.844 157.222 145.792 157.222 192.2" />
    <polygon class="cls-8" points="159.756 194.735 90.383 234.787 90.383 188.379 159.756 148.327 159.756 194.735" />
    <polygon class="cls-9" points="159.756 148.327 157.222 145.792 87.849 185.844 90.383 188.379 159.756 148.327" />
    <path class="cls-6" d="M313.70369,234.9982l-77.929,44.9924V232.396a8.8954,8.8954,0,0,1,4.0245-6.9705L263.858,211.5351a2.72544,2.72544,0,0,1,3.02879-.1617l3.357,2.492a2.72546,2.72546,0,0,0,3.0288-.1617l36.4066-21.0194c2.2227-1.2832,4.0245-.243,4.0245,2.3234Z" transform="translate(-143.1917 -43.2511)" />
    <path class="cls-10" d="M314.97109,262.9251l-77.929,44.9923V233.6633a8.89544,8.89544,0,0,1,4.0245-6.9705l24.0588-13.8903a2.72527,2.72527,0,0,1,3.0288-.1617l3.357,2.492a2.72548,2.72548,0,0,0,3.02881-.1617l36.40659-21.0194c2.2227-1.2832,4.0245-.243,4.0245,2.3234Z" transform="translate(-143.1917 -43.2511)" />
    <path class="cls-6" d="M256.61169,296.8928l77.929-44.9923.0001-63.5903c0-2.5664-1.8019-3.6066-4.0245-2.3234l-14.1805,8.1871a8.40892,8.40892,0,0,0-3.02879,3.3357l-3.357,6.3683a8.40983,8.40983,0,0,1-3.02881,3.3357l-46.285,26.7225a8.89574,8.89574,0,0,0-4.0245,6.9706Z" transform="translate(-143.1917 -43.2511)" />
    <path class="cls-6" d="M257.87909,298.1602l77.929-44.9923V189.5776c.0001-2.5664-1.8018-3.6066-4.0245-2.3234l-14.1804,8.1871a8.40834,8.40834,0,0,0-3.0288,3.3357l-3.357,6.3683a8.40875,8.40875,0,0,1-3.0288,3.3356l-46.285,26.7226a8.89574,8.89574,0,0,0-4.0245,6.9705Z" transform="translate(-143.1917 -43.2511)" />
    <polygon class="cls-7" points="187.071 218.23 117.698 258.282 117.698 195.879 187.071 155.826 187.071 218.23" />
    <polygon class="cls-8" points="189.606 204.769 120.233 244.822 120.233 198.413 189.606 158.361 189.606 204.769" />
    <polygon class="cls-9" points="189.606 158.361 187.071 155.826 117.698 195.879 120.233 198.413 189.606 158.361" />
    <path class="cls-10" d="M344.67989,246.0439l-77.929,44.9924V243.4417a8.89547,8.89547,0,0,1,4.0245-6.9706l24.0588-13.8903a2.72548,2.72548,0,0,1,3.02881-.1617l3.357,2.492a2.72544,2.72544,0,0,0,3.02879-.1617l36.4066-21.0194c2.22261-1.2832,4.0245-.243,4.0245,2.3234Z" transform="translate(-143.1917 -43.2511)" />
    <path class="cls-10" d="M345.94729,247.3113l-77.9291,44.9924V244.709a8.89555,8.89555,0,0,1,4.0246-6.9705l24.0587-13.8903a2.72527,2.72527,0,0,1,3.0288-.1617l3.3571,2.492a2.72546,2.72546,0,0,0,3.0288-.1617l36.4065-21.0194c2.2227-1.2832,4.0246-.243,4.0246,2.3234Z" transform="translate(-143.1917 -43.2511)" />
    <polygon class="cls-11" points="148.439 305.817 252.205 245.908 252.205 169.099 148.439 229.008 148.439 305.817" />
    <polygon class="cls-5" points="252.205 169.099 247.632 169.1 148.439 226.37 148.439 229.008 252.205 169.099" />
    <polygon class="cls-5" points="148.439 229.008 148.439 226.37 70.333 181.275 65.763 181.275 148.439 229.008" />
    <path class="cls-12" d="M240.01569,257.6988a3.3579,3.3579,0,0,0-.4358,1.7916v7.3475a7.022,7.022,0,0,0,2.9322,5.6024l18.6085,10.7437a2.48147,2.48147,0,0,0,.973.3366,1.69837,1.69837,0,0,1-2.4964.4251l-18.6085-10.7437a7.022,7.022,0,0,1-2.9322-5.6024v-7.3475C238.05649,258.5484,238.87529,257.576,240.01569,257.6988Z" transform="translate(-143.1917 -43.2511)" />
    <path class="cls-11" d="M208.95479,224.5258v76.8091l82.6763,47.7332V272.2589Zm29.1017,35.7263c0-2.1592,1.3128-3.1516,2.9322-2.2166l18.6085,10.7436a7.02233,7.02233,0,0,1,2.9322,5.6025v7.3474c0,2.1592-1.3128,3.1516-2.9322,2.2167l-18.6085-10.7437a7.022,7.022,0,0,1-2.9322-5.6024Z" transform="translate(-143.1917 -43.2511)" />
    <polygon class="cls-8" points="89.998 255.175 122.535 273.96 122.535 251.379 89.998 232.594 89.998 255.175" />
    <polygon class="cls-5" points="94.063 240.895 118.47 254.987 118.47 254.107 94.063 240.016 94.063 240.895" />
    <polygon class="cls-5" points="94.063 247.115 118.47 261.207 118.47 260.327 94.063 246.236 94.063 247.115" />
    <polygon class="cls-8" points="185.036 239.917 185.036 265.756 226.133 242.028 226.133 216.189 185.036 239.917" />
    <polygon class="cls-5" points="192.804 251.721 192.804 252.937 218.365 238.179 218.365 236.963 192.804 251.721" />
    <polygon class="cls-5" points="192.804 244.566 192.804 245.782 218.365 231.025 218.365 229.809 192.804 244.566" />
    <polygon class="cls-12" points="63.758 175.416 169.52 114.354 254.196 163.242 148.433 224.303 63.758 175.416" />
    <polygon class="cls-3" points="63.758 175.416 63.758 185.416 148.433 234.303 148.433 224.303 63.758 175.416" />
    <polygon class="cls-12" points="148.433 224.303 148.433 234.303 254.196 173.242 254.196 163.242 148.433 224.303" />
    <polygon class="cls-2" points="443.172 351.099 546.935 291.192 464.259 243.458 360.496 303.366 443.172 351.099" />
    <polygon class="cls-3" points="464.259 166.649 464.259 243.458 546.935 291.192 546.935 214.382 464.259 166.649" />
    <polygon class="cls-4" points="464.259 243.458 377.177 293.735 360.496 226.557 464.259 166.649 464.259 243.458" />
    <path class="cls-5" d="M503.68769,269.8077,586.364,317.5409l103.76258-59.9074-82.6763-47.7331Zm82.6762,45.095-78.1062-45.095,99.19239-57.2687,78.1062,45.0946Z" transform="translate(-143.1917 -43.2511)" />
    <path class="cls-6" d="M520.36849,315.1334l77.929-44.9923V222.5465c0-2.5665-1.8018-3.6067-4.02448-2.3234l-14.18051,8.1871a8.40882,8.40882,0,0,0-3.0288,3.3356l-3.357,6.3683a8.40766,8.40766,0,0,1-3.0288,3.3357L524.393,268.1724a8.89543,8.89543,0,0,0-4.02451,6.9705Z" transform="translate(-143.1917 -43.2511)" />
    <path class="cls-6" d="M521.63589,316.4008l77.929-44.9923V223.8139c0-2.5665-1.8018-3.6067-4.0245-2.3234l-14.18049,8.1871a8.40875,8.40875,0,0,0-3.0288,3.3356l-3.357,6.3683a8.40766,8.40766,0,0,1-3.0288,3.3357l-46.2849,26.7226a8.89513,8.89513,0,0,0-4.0245,6.9705Z" transform="translate(-143.1917 -43.2511)" />
    <polygon class="cls-7" points="451.954 237.482 382.582 277.534 382.582 231.126 451.954 191.074 451.954 237.482" />
    <polygon class="cls-8" points="454.489 240.017 385.116 280.069 385.116 233.661 454.489 193.609 454.489 240.017" />
    <polygon class="cls-9" points="454.489 193.609 451.954 191.074 382.582 231.126 385.116 233.661 454.489 193.609" />
    <path class="cls-6" d="M608.43658,280.2802l-77.929,44.9923V277.6779a8.89544,8.89544,0,0,1,4.0245-6.9705l24.0588-13.8904a2.72543,2.72543,0,0,1,3.0288-.1616l3.357,2.4919a2.72527,2.72527,0,0,0,3.0288-.1617l36.40659-21.0193c2.2227-1.2833,4.0245-.2431,4.0245,2.3234Z" transform="translate(-143.1917 -43.2511)" />
    <path class="cls-6" d="M609.704,308.2071l-77.929,44.9923V278.9453a8.89528,8.89528,0,0,1,4.02449-6.9705l24.0588-13.8904a2.72565,2.72565,0,0,1,3.0288-.1617l3.357,2.492a2.72527,2.72527,0,0,0,3.0288-.1617l36.40659-21.0193c2.2227-1.2833,4.02452-.2431,4.02452,2.3234Z" transform="translate(-143.1917 -43.2511)" />
    <path class="cls-10" d="M551.34459,342.1748l77.929-44.9923V233.5922c0-2.5665-1.8018-3.6067-4.0245-2.3234l-14.1804,8.1871a8.408,8.408,0,0,0-3.0288,3.3356l-3.357,6.3683a8.40839,8.40839,0,0,1-3.0288,3.3357l-46.285,26.7226a8.89571,8.89571,0,0,0-4.0245,6.9705Z" transform="translate(-143.1917 -43.2511)" />
    <path class="cls-10" d="M552.612,343.4422l77.929-44.9923V234.8596c0-2.5665-1.80182-3.6067-4.02452-2.3234l-14.1804,8.1871a8.408,8.408,0,0,0-3.0288,3.3356l-3.357,6.3683a8.4095,8.4095,0,0,1-3.0288,3.3357l-46.285,26.7226a8.89539,8.89539,0,0,0-4.02449,6.9705Z" transform="translate(-143.1917 -43.2511)" />
    <polygon class="cls-7" points="481.804 263.512 412.431 303.564 412.431 241.161 481.804 201.108 481.804 263.512" />
    <polygon class="cls-8" points="484.339 250.051 414.966 290.104 414.966 243.695 484.339 203.643 484.339 250.051" />
    <polygon class="cls-9" points="484.339 203.643 481.804 201.108 412.431 241.161 414.966 243.695 484.339 203.643" />
    <path class="cls-10" d="M639.41268,291.3259l-77.929,44.9923V288.7236a8.89555,8.89555,0,0,1,4.0246-6.9705L589.567,267.8627a2.72541,2.72541,0,0,1,3.02879-.1616l3.35709,2.4919a2.72527,2.72527,0,0,0,3.0288-.1617l36.4065-21.0193c2.2227-1.2833,4.0245-.2431,4.0245,2.3234Z" transform="translate(-143.1917 -43.2511)" />
    <path class="cls-10" d="M640.68008,292.5933l-77.929,44.9923V289.991a8.89543,8.89543,0,0,1,4.0245-6.9705l24.0588-13.8904a2.72563,2.72563,0,0,1,3.02879-.1617l3.357,2.492a2.72531,2.72531,0,0,0,3.02882-.1617l36.40658-21.0193c2.2227-1.2833,4.0245-.2431,4.0245,2.3234Z" transform="translate(-143.1917 -43.2511)" />
    <polygon class="cls-11" points="443.172 351.099 546.938 291.19 546.938 214.381 443.172 274.29 443.172 351.099" />
    <polygon class="cls-5" points="546.938 214.381 542.365 214.382 443.172 271.652 443.172 274.29 546.938 214.381" />
    <polygon class="cls-5" points="443.172 274.29 443.172 271.652 365.066 226.557 360.496 226.557 443.172 274.29" />
    <path class="cls-12" d="M534.74859,302.9807a3.35837,3.35837,0,0,0-.4358,1.7917v7.3474a7.022,7.022,0,0,0,2.93221,5.6024l18.60849,10.7437a2.48176,2.48176,0,0,0,.973.3367,1.69835,1.69835,0,0,1-2.4964.425l-18.6085-10.7437a7.022,7.022,0,0,1-2.9322-5.6024v-7.3474C532.78939,303.8303,533.60819,302.8579,534.74859,302.9807Z" transform="translate(-143.1917 -43.2511)" />
    <path class="cls-2" d="M503.68769,269.8077v76.8092L586.364,394.35V317.5409Zm29.1017,35.7264c0-2.1592,1.3128-3.1517,2.9322-2.2167l18.6085,10.7436a7.02233,7.02233,0,0,1,2.9322,5.6025v7.3474c0,2.1592-1.3128,3.1517-2.9322,2.2167l-18.6085-10.7437a7.022,7.022,0,0,1-2.9322-5.6024Z" transform="translate(-143.1917 -43.2511)" />
    <polygon class="cls-8" points="384.731 300.457 417.268 319.242 417.268 296.661 384.731 277.876 384.731 300.457" />
    <polygon class="cls-5" points="388.796 286.177 413.203 300.268 413.203 299.389 388.796 285.297 388.796 286.177" />
    <polygon class="cls-5" points="388.796 292.397 413.203 306.489 413.203 305.609 388.796 291.518 388.796 292.397" />
    <polygon class="cls-8" points="479.768 285.199 479.768 311.037 520.866 287.31 520.866 261.471 479.768 285.199" />
    <polygon class="cls-8" points="358.491 220.697 464.253 159.635 548.929 208.524 443.166 269.585 358.491 220.697" />
    <polygon class="cls-3" points="358.491 220.697 358.491 230.697 443.166 279.585 443.166 269.585 358.491 220.697" />
    <polygon class="cls-12" points="443.166 269.585 443.166 279.585 548.929 218.524 548.929 208.524 443.166 269.585" />
    <polygon class="cls-2" points="460.961 262.338 372.336 211.17 442.951 175.401 531.575 221.568 460.961 262.338" />
    <polygon class="cls-11" points="442.951 109.798 442.951 175.401 372.336 211.17 372.336 150.567 442.951 109.798" />
    <polygon class="cls-2" points="442.951 175.401 517.328 218.343 531.575 160.965 442.951 109.798 442.951 175.401" />
    <path class="cls-5" d="M586.14249,153.0488,515.528,193.8181l88.62448,51.1674L674.767,204.2162Zm-66.7111,40.7693,66.7112-38.5157,84.72109,48.9138-66.7112,38.516Z" transform="translate(-143.1917 -43.2511)" />
    
    
    <g id="rightOrange">
        <path class="cls-6" d="M659.43728,236.3247l-66.55979-38.4283V157.2455c0-2.192,1.53889-3.0805,3.43729-1.9845l12.1117,6.9927a7.18225,7.18225,0,0,1,2.5869,2.849l2.8673,5.4392a7.18189,7.18189,0,0,0,2.5869,2.8491l39.5323,22.824a7.59753,7.59753,0,0,1,3.4374,5.9535Z" transform="translate(-143.1917 -43.2511)" />
        <path class="cls-6" d="M660.51978,235.2423,593.96,196.8139V156.163c0-2.192,1.53888-3.0805,3.43728-1.9845l12.11172,6.9927a7.18236,7.18236,0,0,1,2.58688,2.849l2.8673,5.4393a7.18153,7.18153,0,0,0,2.5869,2.849l39.5323,22.824a7.59753,7.59753,0,0,1,3.4374,5.9535Z" transform="translate(-143.1917 -43.2511)" />
        <polygon class="cls-7" points="453.46 162.609 512.712 196.819 512.712 157.181 453.46 122.972 453.46 162.609" />
        <polygon class="cls-8" points="451.295 164.774 510.547 198.984 510.547 159.346 451.295 125.137 451.295 164.774" />
        <polygon class="cls-9" points="451.295 125.137 453.46 122.972 512.712 157.181 510.547 159.346 451.295 125.137" />
        <path class="cls-6" d="M585.30009,205.4738l66.55979,38.4284v-40.651a7.59786,7.59786,0,0,0-3.4374-5.9536l-20.5488-11.8638a2.32759,2.32759,0,0,0-2.5869-.1381l-2.8673,2.1284a2.32777,2.32777,0,0,1-2.5869-.1381l-31.09519-17.9528c-1.89839-1.0961-3.4373-.2076-3.4373,1.9844Z" transform="translate(-143.1917 -43.2511)" />
        <path class="cls-6" d="M584.21759,229.3264l66.55979,38.4283v-63.421a7.5979,7.5979,0,0,0-3.43738-5.9536l-20.54882-11.8638a2.32781,2.32781,0,0,0-2.5869-.1382l-2.86728,2.1285a2.328,2.328,0,0,1-2.58692-.1381l-31.09519-17.9529c-1.8984-1.096-3.4373-.2075-3.4373,1.9845Z" transform="translate(-143.1917 -43.2511)" />
    </g>
    
    <g id="rightPink">
        <path class="cls-10" d="M632.98028,259.421l-66.55979-38.4283v-54.313c0-2.192,1.5389-3.0805,3.4373-1.9844l12.1117,6.9926a7.18225,7.18225,0,0,1,2.5869,2.849l2.8673,5.4393a7.18225,7.18225,0,0,0,2.5869,2.849l39.53241,22.824a7.59746,7.59746,0,0,1,3.43728,5.9535Z" transform="translate(-143.1917 -43.2511)" />
        <path class="cls-10" d="M634.06278,258.3385,567.503,219.9102v-54.313c0-2.192,1.53889-3.0805,3.43729-1.9844l12.11171,6.9926a7.18231,7.18231,0,0,1,2.58689,2.849l2.8673,5.4393a7.18225,7.18225,0,0,0,2.5869,2.849l39.53229,22.824a7.59755,7.59755,0,0,1,3.4374,5.9536Z" transform="translate(-143.1917 -43.2511)" />
        <polygon class="cls-7" points="427.965 184.842 487.217 219.051 487.217 165.751 427.965 131.542 427.965 184.842" />
        <polygon class="cls-8" points="425.8 173.345 485.052 207.554 485.052 167.916 425.8 133.707 425.8 173.345" />
        <polygon class="cls-9" points="425.8 133.707 427.965 131.542 487.217 165.751 485.052 167.916 425.8 133.707" />
        <path class="cls-10" d="M557.76059,215.9905l66.55979,38.4284v-40.651a7.59763,7.59763,0,0,0-3.43738-5.9536l-20.54882-11.8638a2.32759,2.32759,0,0,0-2.5869-.1381l-2.8672,2.1284a2.32792,2.32792,0,0,1-2.587-.1381l-31.0952-17.9528c-1.8984-1.0961-3.4373-.2076-3.4373,1.9844Z" transform="translate(-143.1917 -43.2511)" />
        <path class="cls-10" d="M558.84309,214.9081l66.55979,38.4283v-40.651a7.59753,7.59753,0,0,0-3.4374-5.9535l-20.5488-11.8639a2.32777,2.32777,0,0,0-2.5869-.1381l-2.8673,2.1284a2.32776,2.32776,0,0,1-2.58689-.1381l-31.0952-17.9528c-1.89839-1.0961-3.4373-.2076-3.4373,1.9844Z" transform="translate(-143.1917 -43.2511)" />      
    </g>
    <g id="rightGreen">
        <path class="cls-13" d="M613.75268,257.6223,547.19289,219.194V178.5431c0-2.192,1.5389-3.0805,3.4373-1.9845l12.1117,6.9927a7.18225,7.18225,0,0,1,2.5869,2.849l2.8673,5.4392a7.18184,7.18184,0,0,0,2.58691,2.8491l39.53228,22.824a7.59753,7.59753,0,0,1,3.4374,5.9535Z" transform="translate(-143.1917 -43.2511)" />
        <path class="cls-13" d="M614.83518,256.5399l-66.55979-38.4284-.0001-40.6509c0-2.192,1.539-3.0805,3.4374-1.9845l12.1117,6.9927a7.18225,7.18225,0,0,1,2.5869,2.849l2.8672,5.4393a7.18245,7.18245,0,0,0,2.587,2.849l39.53229,22.824a7.59753,7.59753,0,0,1,3.4374,5.9535Z" transform="translate(-143.1917 -43.2511)" />
        <polygon class="cls-7" points="408.738 183.043 467.99 217.252 467.99 177.615 408.738 143.406 408.738 183.043" />
        <polygon class="cls-8" points="404.621 185.859 463.873 220.068 463.873 180.43 404.621 146.221 404.621 185.859" />
        <polygon class="cls-9" points="404.621 146.221 408.738 143.406 467.99 177.615 463.873 180.43 404.621 146.221" />
        <path class="cls-13" d="M538.533,227.8539l66.55978,38.4284v-40.651a7.59786,7.59786,0,0,0-3.4374-5.9536l-20.54879-11.8638a2.32781,2.32781,0,0,0-2.5869-.1382l-2.8673,2.1285a2.328,2.328,0,0,1-2.5869-.1381l-31.0952-17.9528c-1.8984-1.0961-3.43729-.2076-3.43729,1.9844Z" transform="translate(-143.1917 -43.2511)" />
        <path class="cls-13" d="M539.61549,226.7714l66.55979,38.4284v-40.651a7.59786,7.59786,0,0,0-3.4374-5.9536l-20.54879-11.8638a2.32759,2.32759,0,0,0-2.5869-.1381l-2.8673,2.1284a2.32776,2.32776,0,0,1-2.58689-.1381l-31.09521-17.9528c-1.8984-1.0961-3.4373-.2076-3.4373,1.9844Z" transform="translate(-143.1917 -43.2511)" />  
      </g>  
        
    
        <polygon class="cls-2" points="460.961 262.338 372.334 211.169 372.334 150.565 460.961 201.734 460.961 262.338" />
        <polygon class="cls-5" points="372.334 150.565 376.24 150.567 460.961 199.481 460.961 201.734 372.334 150.565" />
        <polygon class="cls-5" points="460.961 201.734 460.961 199.481 527.672 160.965 531.575 160.965 460.961 201.734" />
        <path class="cls-3" d="M648.23758,232.5495a2.86769,2.86769,0,0,1,.3722,1.5303v6.2755a5.99743,5.99743,0,0,1-2.5044,4.7851l-15.8937,9.1762a2.11785,2.11785,0,0,1-.831.2876,1.45058,1.45058,0,0,0,2.1322.363l15.8937-9.1762a5.99787,5.99787,0,0,0,2.50442-4.7851v-6.2755C649.911,233.2752,649.21158,232.4446,648.23758,232.5495Z" transform="translate(-143.1917 -43.2511)" />
        <path class="cls-11" d="M604.15248,244.9855v60.6033L674.767,264.8195V204.2162Zm45.75852-3.9796a5.99787,5.99787,0,0,1-2.50442,4.7851l-15.8937,9.1762c-1.3832.7986-2.5044-.0491-2.5044-1.8933v-6.2755a5.99758,5.99758,0,0,1,2.5044-4.7851l15.8937-9.1762c1.3831-.7986,2.50442.0491,2.50442,1.8933Z" transform="translate(-143.1917 -43.2511)" />
        <polygon class="cls-8" points="510.876 224.084 483.086 240.129 483.086 220.841 510.876 204.797 510.876 224.084" />
        <polygon class="cls-11" points="367.239 316.288 237.334 391.289 237.334 201.906 367.239 126.905 367.239 316.288" />
        <polygon class="cls-2" points="315.809 285.263 412.671 341.229 412.671 295.656 355.276 262.476 315.809 285.263" />
        <polygon class="cls-5" points="367.239 126.905 237.334 201.906 135.773 143.269 265.677 68.269 367.239 126.905" />
        <polygon class="cls-2" points="237.334 391.289 135.77 332.651 135.77 143.267 237.334 201.906 237.334 391.289" />
        <polygon class="cls-8" points="360.553 190.358 244.02 257.638 244.02 205.971 360.553 138.691 360.553 190.358" />
        <polygon class="cls-2" points="244.02 378.377 294.063 407.269 409.995 339.636 315.809 285.263 244.02 326.709 244.02 378.377" />
        <polygon class="cls-5" points="410.586 299.163 414.703 296.786 355.276 262.476 351.186 264.875 410.586 299.163" />
        <path class="cls-5" d="M431.85429,249.6641c-1.0538,0-2.1169-.8549-2.1169-2.7648v-11.863a6.35335,6.35335,0,0,1,2.71661-5.1297l25.36409-14.6442a2.57109,2.57109,0,0,1,1.2851-.3764c1.0531,0,2.1162.8548,2.1162,2.7645v11.8632a6.35341,6.35341,0,0,1-2.7166,5.1298l-25.3641,14.6442A2.57066,2.57066,0,0,1,431.85429,249.6641Z" transform="translate(-143.1917 -43.2511)" />
        <polygon class="cls-5" points="316.048 188.775 311.103 183.072 316.681 179.689 316.681 187.341 316.048 188.775" />
        
    <polygon class="cls-8" points="360.553 250.727 244.02 318.007 244.02 266.34 360.553 199.06 360.553 250.727" />
    <path class="cls-5" d="M431.85429,311.9868c-1.0538,0-2.1169-.8548-2.1169-2.7648V297.3591a6.35339,6.35339,0,0,1,2.71661-5.1298l25.36409-14.6441a2.57025,2.57025,0,0,1,1.2851-.3765c1.0531,0,2.1162.8549,2.1162,2.7645v11.8633a6.35341,6.35341,0,0,1-2.7166,5.1298l-25.3641,14.6441A2.57066,2.57066,0,0,1,431.85429,311.9868Z" transform="translate(-143.1917 -43.2511)" />
    <polygon class="cls-5" points="316.048 251.097 311.103 245.395 316.681 242.012 316.681 249.664 316.048 251.097" />
    <polygon class="cls-11" points="244.02 326.709 244.02 318.007 360.553 250.727 360.553 259.429 244.02 326.709" />
        
    <g id="middleGreen">
        <path class="cls-13" d="M405.41949,403.5861l77.929-44.9923V310.9992c0-2.5665-1.8018-3.6067-4.02449-2.3234l-14.18051,8.1871a8.40882,8.40882,0,0,0-3.0288,3.3356l-3.357,6.3683a8.40906,8.40906,0,0,1-3.0288,3.3357L409.444,356.6251a8.89512,8.89512,0,0,0-4.02451,6.9705Z" transform="translate(-143.1917 -43.2511)" />
        <path class="cls-13" d="M406.68679,404.8535l77.9291-44.9923V312.2666c0-2.5665-1.80189-3.6067-4.0245-2.3234l-14.1805,8.187a8.40974,8.40974,0,0,0-3.0288,3.3357l-3.357,6.3683a8.40974,8.40974,0,0,1-3.0288,3.3357l-46.2849,26.7226a8.89513,8.89513,0,0,0-4.0245,6.9705Z" transform="translate(-143.1917 -43.2511)" />
        <polygon class="cls-7" points="335.879 324.923 266.506 364.976 266.506 318.568 335.879 278.515 335.879 324.923" />
        <polygon class="cls-8" points="338.413 327.458 269.041 367.51 269.041 321.102 338.413 281.05 338.413 327.458" />
        <polygon class="cls-9" points="338.413 281.05 335.879 278.515 266.506 318.568 269.041 321.102 338.413 281.05" />
        <path class="cls-13" d="M493.48759,368.7329l-77.929,44.9923V366.1306a8.89513,8.89513,0,0,1,4.0245-6.9705l24.0588-13.8904a2.72565,2.72565,0,0,1,3.0288-.1617l3.357,2.492a2.72527,2.72527,0,0,0,3.0288-.1617l36.4066-21.0193c2.2227-1.2833,4.0245-.2431,4.0245,2.3234Z" transform="translate(-143.1917 -43.2511)" />
        <path class="cls-13" d="M494.755,370.0003l-77.929,44.9923V367.398a8.89512,8.89512,0,0,1,4.02449-6.9705l24.0588-13.8904a2.72546,2.72546,0,0,1,3.0288-.1617l3.357,2.492a2.72527,2.72527,0,0,0,3.0288-.1617l36.4066-21.0193c2.2226-1.2833,4.02451-.2431,4.02451,2.3234Z" transform="translate(-143.1917 -43.2511)" />
    </g>
        
    
    <g id="middlePink">
        <path class="cls-10" d="M424.46189,408.1563,502.391,363.164V315.5694c0-2.5665-1.80191-3.6067-4.02451-2.3234L484.186,321.4331a8.4087,8.4087,0,0,0-3.02881,3.3356l-3.357,6.3683a8.409,8.409,0,0,1-3.0288,3.3357l-46.2849,26.7226a8.89512,8.89512,0,0,0-4.02449,6.9705Z" transform="translate(-143.1917 -43.2511)" />
        <path class="cls-10" d="M425.72929,409.4237l77.929-44.9923.0001-47.5946c0-2.5665-1.8019-3.6067-4.0245-2.3235l-14.1805,8.1871a8.409,8.409,0,0,0-3.0288,3.3357l-3.357,6.3683a8.40974,8.40974,0,0,1-3.0288,3.3357l-46.2849,26.7226a8.89524,8.89524,0,0,0-4.0246,6.9705Z" transform="translate(-143.1917 -43.2511)" />
        <polygon class="cls-7" points="354.921 329.493 285.548 369.546 285.548 323.138 354.921 283.085 354.921 329.493" />
        <polygon class="cls-8" points="357.456 332.028 288.083 372.081 288.083 325.672 357.456 285.62 357.456 332.028" />
        <polygon class="cls-9" points="357.456 285.62 354.921 283.085 285.548 323.138 288.083 325.672 357.456 285.62" />
        <path class="cls-10" d="M512.53009,373.3031l-77.929,44.9923V370.7008a8.89513,8.89513,0,0,1,4.0245-6.9705l24.0588-13.8904a2.72565,2.72565,0,0,1,3.0288-.1617l3.357,2.492a2.72529,2.72529,0,0,0,3.02881-.1617l36.40659-21.0193c2.2226-1.2833,4.0245-.2431,4.0245,2.3234Z" transform="translate(-143.1917 -43.2511)" />
        <path class="cls-10" d="M513.79749,374.5705l-77.929,44.9923V371.9682a8.89512,8.89512,0,0,1,4.02451-6.9705l24.05879-13.8904a2.72546,2.72546,0,0,1,3.0288-.1617l3.357,2.492a2.72527,2.72527,0,0,0,3.0288-.1617L509.773,332.2566c2.22259-1.2833,4.02449-.2431,4.02449,2.3234Z" transform="translate(-143.1917 -43.2511)" />
    </g>
    
    
    <g id="middleOrange">
        <path class="cls-6" d="M444.26609,417.2967l77.929-44.9923.0001-47.5946c0-2.5665-1.8019-3.6067-4.0245-2.3234l-14.1805,8.187a8.409,8.409,0,0,0-3.0288,3.3357l-3.357,6.3683a8.40974,8.40974,0,0,1-3.0288,3.3357l-46.2849,26.7226a8.89526,8.89526,0,0,0-4.0246,6.9705Z" transform="translate(-143.1917 -43.2511)" />
        <path class="cls-6" d="M445.53349,418.5641l77.929-44.9923.0001-47.5946c0-2.5665-1.8019-3.6067-4.0245-2.3235l-14.1805,8.1871a8.40916,8.40916,0,0,0-3.0288,3.3357l-3.357,6.3683a8.40979,8.40979,0,0,1-3.02879,3.3357l-46.285,26.7226a8.89538,8.89538,0,0,0-4.02451,6.9705Z" transform="translate(-143.1917 -43.2511)" />
        <polygon class="cls-7" points="375.852 339.645 306.479 379.698 306.479 333.289 375.852 293.237 375.852 339.645" />
        <polygon class="cls-8" points="378.387 342.18 309.014 382.232 309.014 335.824 378.387 295.772 378.387 342.18" />
        <polygon class="cls-9" points="378.387 295.772 375.852 293.237 306.479 333.289 309.014 335.824 378.387 295.772" />
        <path class="cls-6" d="M532.33429,382.4435l-77.929,44.9923V379.8412a8.89513,8.89513,0,0,1,4.0245-6.9705l24.0588-13.8904a2.72546,2.72546,0,0,1,3.0288-.1617l3.357,2.492a2.72527,2.72527,0,0,0,3.0288-.1617l36.4066-21.0193c2.2226-1.2833,4.0245-.2431,4.0245,2.3234Z" transform="translate(-143.1917 -43.2511)" />
        <path class="cls-6" d="M533.60169,383.7109l-77.929,44.9923V381.1086a8.89513,8.89513,0,0,1,4.0245-6.9705L483.756,360.2477a2.72528,2.72528,0,0,1,3.02869-.1617l3.3571,2.492a2.72546,2.72546,0,0,0,3.0288-.1617l36.4066-21.0194c2.2226-1.2832,4.0245-.243,4.0245,2.3235Z" transform="translate(-143.1917 -43.2511)" />
    </g>
    <polygon class="cls-5" points="294.063 355.598 298.18 357.973 414.713 290.693 410.596 288.316 294.063 355.598" />
    <polygon class="cls-3" points="244.02 378.377 298.17 409.64 298.17 364.066 244.02 332.803 244.02 378.377" />
    <polygon class="cls-5" points="298.18 364.066 302.298 361.69 244.02 328.043 244.02 332.803 298.18 364.066" />
    
    <polygon class="cls-9" points="414.713 342.36 298.18 409.64 298.18 357.973 414.713 290.693 414.713 342.36" />
    <path class="cls-5" d="M486.01439,401.6661c-1.0537,0-2.1169-.8549-2.1169-2.7649V387.0383a6.35326,6.35326,0,0,1,2.7167-5.1298l25.3641-14.6441a2.57025,2.57025,0,0,1,1.2851-.3765c1.0531,0,2.1162.8549,2.1162,2.7645v11.8633a6.35323,6.35323,0,0,1-2.7167,5.1298l-25.364,14.6441A2.57089,2.57089,0,0,1,486.01439,401.6661Z" transform="translate(-143.1917 -43.2511)" />
    <polygon class="cls-5" points="370.208 340.777 365.263 335.074 370.841 331.691 370.841 339.343 370.208 340.777" />
    <polygon class="cls-12" points="294.063 355.598 294.063 407.269 298.18 409.64 298.18 357.973 294.063 355.598" />
    <polygon class="cls-2" points="247.191 184.45 350.954 124.542 268.277 76.809 164.515 136.716 247.191 184.45" />
    <polygon class="cls-3" points="268.277 0 268.277 76.809 350.954 124.542 350.954 47.733 268.277 0" />
    <polygon class="cls-4" points="268.277 76.809 181.196 127.086 164.515 59.907 268.277 0 268.277 76.809" />
    <path class="cls-5" d="M307.70649,103.1584l82.6763,47.7332,103.7626-59.9073-82.6763-47.7332Zm82.6762,45.0951-78.1062-45.095,99.1924-57.2688,78.1062,45.0946Z" transform="translate(-143.1917 -43.2511)"/> 
    
    
    <g id="toporange">
            <path class="cls-6" d="M324.38729,139.4841l77.929-44.9923V46.8972c0-2.5664-1.8018-3.6067-4.0245-2.3234l-14.1805,8.1871a8.40839,8.40839,0,0,0-3.0288,3.3357l-3.357,6.3683a8.408,8.408,0,0,1-3.0288,3.3356l-46.2849,26.7226a8.89544,8.89544,0,0,0-4.0245,6.9705Z" transform="translate(-143.1917 -43.2511)" />
            <path class="cls-6" d="M325.65469,140.7515l77.929-44.9923V48.1646c0-2.5664-1.8018-3.6067-4.0245-2.3234l-14.1805,8.1871a8.40875,8.40875,0,0,0-3.0288,3.3356l-3.357,6.3684a8.40875,8.40875,0,0,1-3.0288,3.3356l-46.2849,26.7226a8.89544,8.89544,0,0,0-4.0245,6.9705Z" transform="translate(-143.1917 -43.2511)" />
            <path class="cls-6" d="M413.72279,132.5578l-77.929,44.9923V103.296a8.89544,8.89544,0,0,1,4.0245-6.9705l24.0588-13.8903a2.72527,2.72527,0,0,1,3.0288-.1617l3.357,2.4919a2.72543,2.72543,0,0,0,3.0288-.1616l36.4066-21.0194c2.22271-1.2833,4.0245-.243,4.0245,2.3234Z" transform="translate(-143.1917 -43.2511)" />
            <polygon class="cls-7" points="255.973 61.833 186.6 101.885 186.6 55.477 255.973 15.424 255.973 61.833" />
            <polygon class="cls-8" points="258.508 64.367 189.135 104.42 189.135 58.012 258.508 17.959 258.508 64.367" />
            <polygon class="cls-9" points="258.508 17.959 255.973 15.424 186.6 55.477 189.135 58.012 258.508 17.959" />
            <path class="cls-6" d="M412.45539,104.6309l-77.929,44.9923V102.0286a8.89544,8.89544,0,0,1,4.0245-6.9705l24.0588-13.8903a2.72527,2.72527,0,0,1,3.0288-.1617l3.357,2.492a2.72565,2.72565,0,0,0,3.0288-.1617l36.4066-21.0194c2.2227-1.2833,4.0245-.243,4.0245,2.3234Z" transform="translate(-143.1917 -43.2511)" />    
        </g>
    <g id="toppink">
            <path class="cls-10" d="M443.43149,115.6766l-77.929,44.9923V113.0743a8.89569,8.89569,0,0,1,4.02451-6.9705l24.05879-13.8903a2.72527,2.72527,0,0,1,3.0288-.1617l3.357,2.492a2.72565,2.72565,0,0,0,3.0288-.1617L439.407,73.3627c2.22269-1.2833,4.02449-.243,4.02449,2.3234Z" transform="translate(-143.1917 -43.2511)" />
             <path class="cls-10" d="M356.63079,167.7929l77.929-44.9923V59.2103c0-2.5664-1.80179-3.6067-4.0245-2.3234l-14.1804,8.1871a8.408,8.408,0,0,0-3.0288,3.3356L409.969,74.778a8.40812,8.40812,0,0,1-3.02881,3.3356l-46.2849,26.7226a8.89544,8.89544,0,0,0-4.0245,6.9705Z" transform="translate(-143.1917 -43.2511)" />
            <path class="cls-10" d="M355.36339,166.5255l77.929-44.9923V57.9429c0-2.5664-1.8018-3.6067-4.0245-2.3234l-14.1804,8.1871a8.40766,8.40766,0,0,0-3.0288,3.3357l-3.357,6.3683a8.40947,8.40947,0,0,1-3.0288,3.3356l46.285,26.7226a8.89571,8.89571,0,0,0-4.0245,6.9705Z" transform="translate(-143.1917 -43.2511)" />
            <polygon class="cls-7" points="285.823 87.863 216.45 127.915 216.45 65.511 285.823 25.459 285.823 87.863" />
            <polygon class="cls-9" points="288.357 27.994 285.823 25.459 216.45 65.511 218.984 68.046 288.357 27.994" />
            <polygon class="cls-8" points="288.357 74.402 218.984 114.454 218.984 68.046 288.357 27.994 288.357 74.402" />
             <path class="cls-10" d="M444.69889,116.944l-77.929,44.9923V114.3417a8.89571,8.89571,0,0,1,4.0245-6.9705l24.0588-13.8903a2.72529,2.72529,0,0,1,3.02881-.1617l3.357,2.4919a2.72541,2.72541,0,0,0,3.02879-.1616l36.4066-21.0194c2.2227-1.2833,4.0245-.243,4.0245,2.3234Z" transform="translate(-143.1917 -43.2511)" />
    </g>
    <g id="topgreen">
         <path class="cls-13" d="M379.14269,165.687l77.929-44.9923V73.1001c0-2.5665-1.8018-3.6067-4.0245-2.3234l-14.1804,8.1871a8.40793,8.40793,0,0,0-3.02879,3.3356l-3.357,6.3683a8.40848,8.40848,0,0,1-3.02881,3.3357l-46.285,26.7226a8.89556,8.89556,0,0,0-4.0245,6.9705Z" transform="translate(-143.1917 -43.2511)" />
         <path class="cls-13" d="M377.87529,164.4196l77.929-44.9923.0001-47.5946c0-2.5665-1.8019-3.6067-4.0245-2.3234l-14.1805,8.1871a8.408,8.408,0,0,0-3.0288,3.3356l-3.357,6.3683a8.40839,8.40839,0,0,1-3.0288,3.3357l-46.285,26.7226a8.89571,8.89571,0,0,0-4.0245,6.9705Z" transform="translate(-143.1917 -43.2511)" />
        <polygon class="cls-7" points="308.335 85.757 238.962 125.809 238.962 79.401 308.335 39.349 308.335 85.757" />
        <polygon class="cls-8" points="313.154 89.053 243.782 129.106 243.782 82.698 313.154 42.645 313.154 89.053" />
        <polygon class="cls-9" points="313.154 42.645 308.335 39.349 238.962 79.401 243.782 82.698 313.154 42.645" />
        <path class="cls-13" d="M467.21079,130.8338l-77.929,44.9923V128.2315a8.89571,8.89571,0,0,1,4.0245-6.9705l24.0588-13.8904a2.72564,2.72564,0,0,1,3.0288-.1617l3.35711,2.492a2.72525,2.72525,0,0,0,3.02879-.1617l36.4065-21.0193c2.22271-1.2833,4.0245-.2431,4.0245,2.3234Z" transform="translate(-143.1917 -43.2511)" />
        <path class="cls-13" d="M465.94349,129.5664l-77.929,44.9923V126.9641a8.89543,8.89543,0,0,1,4.02451-6.9705l24.05879-13.8904a2.72543,2.72543,0,0,1,3.0288-.1616l3.357,2.4919a2.72527,2.72527,0,0,0,3.0288-.1617L461.919,87.2525c2.22259-1.2833,4.02449-.2431,4.02449,2.3234Z" transform="translate(-143.1917 -43.2511)" />   
    </g>
    
   
    <polygon class="cls-11" points="247.191 184.45 350.957 124.541 350.957 47.731 247.191 107.64 247.191 184.45" />
    <polygon class="cls-5" points="350.957 47.731 346.383 47.733 247.191 105.002 247.191 107.64 350.957 47.731" />
    <polygon class="cls-5" points="247.191 107.64 247.191 105.002 169.085 59.907 164.515 59.907 247.191 107.64" />
    <path class="cls-5" d="M338.76739,136.3315a3.3579,3.3579,0,0,0-.4358,1.7916v7.3475a7.022,7.022,0,0,0,2.9322,5.6024l18.6085,10.7436a2.48015,2.48015,0,0,0,.973.3367,1.69835,1.69835,0,0,1-2.4964.425l-18.6085-10.7436a7.022,7.022,0,0,1-2.9322-5.6024v-7.3475C336.80819,137.1811,337.627,136.2086,338.76739,136.3315Z" transform="translate(-143.1917 -43.2511)" />
    <path class="cls-2" d="M307.70649,103.1584v76.8092l82.6763,47.7332V150.8916Zm29.1017,35.7264c0-2.1592,1.31281-3.1516,2.9322-2.2167l18.6085,10.7437a7.022,7.022,0,0,1,2.9322,5.6024v7.3475c0,2.1591-1.3128,3.1516-2.9322,2.2166l-18.6085-10.7436a7.022,7.022,0,0,1-2.9322-5.6024Z" transform="translate(-143.1917 -43.2511)" />
    <polygon class="cls-8" points="188.75 133.808 221.287 152.593 221.287 130.011 188.75 111.226 188.75 133.808" />
    <polygon class="cls-8" points="283.787 118.55 283.787 144.388 324.885 120.66 324.885 94.822 283.787 118.55" />
    <polygon class="cls-5" points="147.161 399.545 55.145 346.419 55.145 208.624 147.161 261.75 147.161 399.545" />
    <polygon class="cls-5" points="55.145 346.419 31.121 360.289 31.121 310.212 55.145 296.342 55.145 346.419" />
    <polygon class="cls-3" points="56.668 347.181 32.644 361.051 32.644 310.974 56.668 297.104 56.668 347.181" />
    <polygon class="cls-8" points="60.027 346.901 132.589 388.794 132.589 264.958 60.027 223.064 60.027 346.901" />
    <polygon class="cls-14" points="69.186 297.232 123.938 328.843 123.938 306.754 69.186 275.144 69.186 297.232" />
    <polygon class="cls-14" points="69.186 334.936 123.938 366.547 123.938 335.279 69.186 303.668 69.186 334.936" />
    <polygon class="cls-14" points="93.594 266.892 69.186 252.8 69.186 247.245 93.594 261.337 93.594 266.892" />
    <polygon class="cls-9" points="55.486 350.266 128.048 392.16 128.048 268.323 55.486 226.43 55.486 350.266" />
    <polygon class="cls-14" points="64.646 300.598 119.397 332.208 119.397 310.12 64.646 278.509 64.646 300.598" />
    <polygon class="cls-14" points="64.646 338.302 119.397 369.912 119.397 338.644 64.646 307.034 64.646 338.302" />
    <polygon class="cls-14" points="89.053 270.257 64.646 256.166 64.646 250.611 89.053 264.702 89.053 270.257" />
    <polygon class="cls-8" points="52.094 353.659 124.655 395.553 124.655 271.716 52.094 229.823 52.094 353.659" />
    <polygon class="cls-14" points="61.253 303.991 116.004 335.601 116.004 313.513 61.253 281.902 61.253 303.991" />
    <polygon class="cls-14" points="61.253 341.695 116.004 373.305 116.004 342.037 61.253 310.427 61.253 341.695" />
    <polygon class="cls-14" points="85.66 273.65 61.253 259.559 61.253 254.004 85.66 268.095 85.66 273.65" />
    <polygon class="cls-9" points="47.824 356.36 120.385 398.253 120.385 274.417 47.824 232.523 47.824 356.36" />
    <polygon class="cls-10" points="56.983 299.074 111.734 330.685 111.734 308.596 56.983 276.986 56.983 299.074" />
    <polygon class="cls-6" points="56.983 342.11 111.734 373.721 111.734 334.836 56.983 303.225 56.983 342.11" />
    <polygon class="cls-13" points="81.39 274.526 56.983 260.434 56.983 256.704 81.39 270.796 81.39 274.526" />
    <path class="cls-5" d="M267.85249,455.7866l-92.01669-53.008V352.7019c53.3552,30.8047,55.554-55.644,76.77279-43.3933l15.2439,8.801Z" transform="translate(-143.1917 -43.2511)" />
    <path class="cls-2" d="M266.32909,456.6662,174.3124,403.5403V353.4636c53.35519,30.8047,55.554-55.644,76.77279-43.3933l15.2439,8.801Z" transform="translate(-143.1917 -43.2511)" />
    <polygon class="cls-5" points="121.614 274.797 123.137 275.62 147.161 261.75 145.638 260.927 121.614 274.797" />
    <rect class="cls-8" x="132.589" y="362.328" width="2.7238" height="29.0397" />
    <rect class="cls-15" x="135.3128" y="362.328" width="3.2" height="29.0397" />
    <path class="cls-11" d="M266.32909,318.8713V456.6662l24.024-13.8703V305.0011Zm12.012,110.705c-4.4659,2.5784-8.0863.4883-8.0863-4.6684s3.6204-11.4271,8.0863-14.0056,8.0863-.4883,8.0863,4.6684S282.80709,426.9979,278.34109,429.5763Z" transform="translate(-143.1917 -43.2511)" />
    <path class="cls-5" d="M284.45349,410.6093a6.75537,6.75537,0,0,1,1.2122,4.1997c0,5.1566-3.6204,11.4271-8.0863,14.0055-2.4439,1.4111-4.6296,1.4157-6.11239.2931,1.425,1.8369,3.96659,2.1473,6.87409.4686,4.46591-2.5784,8.0863-8.8489,8.0863-14.0055C286.42739,413.236,285.68019,411.5381,284.45349,410.6093Z" transform="translate(-143.1917 -43.2511)" />
    <polygon class="cls-8" points="102.347 372.391 102.347 388.495 44.565 354.998 44.565 338.893 102.347 372.391" />
    <polygon class="cls-5" points="116.041 417.407 24.024 364.281 24.024 226.486 116.041 279.612 116.041 417.407" />
    <polygon class="cls-5" points="24.024 364.281 0 378.151 0 328.075 24.024 314.204 24.024 364.281" />
    <polygon class="cls-3" points="25.547 365.043 1.523 378.913 1.523 328.837 25.547 314.966 25.547 365.043" />
    <polygon class="cls-8" points="28.907 364.763 101.468 406.657 101.468 282.82 28.907 240.926 28.907 364.763" />
    <polygon class="cls-14" points="38.066 315.095 92.817 346.705 92.817 324.616 38.066 293.006 38.066 315.095" />
    <polygon class="cls-14" points="38.066 352.799 92.817 384.409 92.817 353.141 38.066 321.53 38.066 352.799" />
    <polygon class="cls-14" points="62.473 284.754 38.066 270.663 38.066 265.107 62.473 279.199 62.473 284.754" />
    <polygon class="cls-9" points="24.366 368.129 96.927 410.022 96.927 286.186 24.366 244.292 24.366 368.129" />
    <polygon class="cls-14" points="33.525 318.46 88.276 350.071 88.276 327.982 33.525 296.372 33.525 318.46" />
    <polygon class="cls-14" points="33.525 356.164 88.276 387.775 88.276 356.507 33.525 324.896 33.525 356.164" />
    <polygon class="cls-14" points="57.932 288.12 33.525 274.028 33.525 268.473 57.932 282.564 57.932 288.12" />
    <polygon class="cls-8" points="20.973 371.522 93.534 413.415 93.534 289.578 20.973 247.685 20.973 371.522" />
    <polygon class="cls-14" points="30.132 321.853 84.883 353.464 84.883 331.375 30.132 299.764 30.132 321.853" />
    <polygon class="cls-14" points="30.132 359.557 84.883 391.168 84.883 359.9 30.132 328.289 30.132 359.557" />
    <polygon class="cls-14" points="54.539 291.513 30.132 277.421 30.132 271.866 54.539 285.957 54.539 291.513" />
    <polygon class="cls-9" points="16.703 374.222 89.265 416.116 89.265 292.279 16.703 250.386 16.703 374.222" />
    <polygon class="cls-10" points="25.862 316.937 80.613 348.547 80.613 326.459 25.862 294.848 25.862 316.937" />
    <polygon class="cls-6" points="25.862 359.973 80.613 391.583 80.613 352.698 25.862 321.088 25.862 359.973" />
    <polygon class="cls-8" points="50.269 292.388 25.862 278.296 25.862 274.567 50.269 288.658 50.269 292.388" />
    <path class="cls-5" d="M236.73179,473.6489,144.7151,420.6408V370.5642c53.35519,30.8046,55.554-55.644,76.77279-43.3934l15.2439,8.8011Z" transform="translate(-143.1917 -43.2511)" />
    <path class="cls-2" d="M235.20839,474.5284,143.1917,421.4025V371.3259c53.3552,30.8046,55.554-55.644,76.77279-43.3934l15.2439,8.8011Z" transform="translate(-143.1917 -43.2511)" />
    <polygon class="cls-5" points="90.493 292.659 92.017 293.482 116.041 279.612 114.517 278.789 90.493 292.659" />
    <rect class="cls-8" x="101.4683" y="380.1902" width="2.72379" height="29.0398" />
    <rect class="cls-15" x="104.1921" y="380.1902" width="3.2" height="29.0398" />
    <path class="cls-11" d="M235.20839,336.7336V474.5284l24.024-13.8702V322.8633Zm12.012,110.7049c-4.4659,2.5784-8.0863.4883-8.0863-4.6683s3.6204-11.4272,8.0863-14.0056,8.0863-.4883,8.0863,4.6684S251.68629,444.8601,247.22039,447.4385Z" transform="translate(-143.1917 -43.2511)" />
    <path class="cls-5" d="M253.33279,428.4716a6.75486,6.75486,0,0,1,1.21221,4.1996c0,5.1567-3.62041,11.4272-8.08631,14.0056-2.4439,1.411-4.6296,1.4157-6.1124.293,1.425,1.8369,3.9666,2.1474,6.8741.4687,4.4659-2.5784,8.0863-8.8489,8.0863-14.0056C255.30669,431.0982,254.55949,429.4004,253.33279,428.4716Z" transform="translate(-143.1917 -43.2511)" />
    <polygon class="cls-8" points="71.227 390.253 71.227 406.358 13.444 372.86 13.444 356.756 71.227 390.253" />
    <polygon class="cls-2" points="229.205 513.498 125.443 453.59 208.119 405.857 311.882 465.765 229.205 513.498" />
    <polygon class="cls-3" points="208.119 329.048 208.119 405.857 125.443 453.59 125.443 376.781 208.119 329.048" />
    <polygon class="cls-4" points="208.119 405.857 295.201 456.134 311.882 388.955 208.119 329.048 208.119 405.857" />
    <path class="cls-5" d="M351.31089,372.2992l-82.6763,47.7332,103.7626,59.9073,82.6762-47.7332Zm-78.1061,47.7332L351.311,374.9378l99.19239,57.2688-78.1062,45.095Z" transform="translate(-143.1917 -43.2511)" />
    <g id="leftOrange2">
            <path class="cls-6" d="M437.12529,469.7996l-77.929-44.9923V377.2127c0-2.5664,1.8018-3.6067,4.0245-2.3234l14.1805,8.1871a8.40911,8.40911,0,0,1,3.0288,3.3357l3.357,6.3683a8.408,8.408,0,0,0,3.0288,3.3356l46.2849,26.7226a8.89544,8.89544,0,0,1,4.0245,6.9705Z" transform="translate(-143.1917 -43.2511)" />
            <path class="cls-6" d="M438.39269,468.5322l-77.929-44.9923V375.9453c0-2.5664,1.8018-3.6067,4.0245-2.3234l14.1804,8.1871a8.40766,8.40766,0,0,1,3.0288,3.3357l3.3571,6.3683a8.408,8.408,0,0,0,3.0288,3.3356l46.2849,26.7226a8.89544,8.89544,0,0,1,4.0245,6.9705Z" transform="translate(-143.1917 -43.2511)" />
            <path class="cls-6" d="M349.05719,461.6059l77.929,44.9923V432.3441a8.89571,8.89571,0,0,0-4.0245-6.9705l-24.0588-13.8903a2.72527,2.72527,0,0,0-3.0288-.1617l-3.357,2.492a2.72565,2.72565,0,0,1-3.0288-.1617l-36.4066-21.0194c-2.22269-1.2833-4.0245-.243-4.0245,2.3234Z" transform="translate(-143.1917 -43.2511)" />
            <polygon class="cls-7" points="220.423 390.881 289.796 430.933 289.796 384.525 220.423 344.473 220.423 390.881" />
            <polygon class="cls-8" points="217.888 393.416 287.261 433.468 287.261 387.06 217.888 347.007 217.888 393.416" />
            <polygon class="cls-9" points="217.888 347.007 220.423 344.473 289.796 384.525 287.261 387.06 217.888 347.007" />
            <path class="cls-6" d="M349.05719,461.6059l77.929,44.9923V432.3441a8.89571,8.89571,0,0,0-4.0245-6.9705l-24.0588-13.8903a2.72527,2.72527,0,0,0-3.0288-.1617l-3.357,2.492a2.72565,2.72565,0,0,1-3.0288-.1617l-36.4066-21.0194c-2.22269-1.2833-4.0245-.243-4.0245,2.3234Z" transform="translate(-143.1917 -43.2511)" />
            <path class="cls-6" d="M350.32459,433.679l77.929,44.9923V431.0767a8.89571,8.89571,0,0,0-4.0245-6.9705l-24.0588-13.8903a2.72527,2.72527,0,0,0-3.0288-.1617l-3.357,2.492a2.72546,2.72546,0,0,1-3.0288-.1617l-36.4066-21.0194c-2.2227-1.2832-4.0245-.243-4.0245,2.3234Z" transform="translate(-143.1917 -43.2511)" />
        </g>
    <g id="leftGreen">
        <path class="cls-13" d="M406.14919,496.841l-77.929-44.9923-.0001-63.5903c0-2.5664,1.80191-3.6067,4.0245-2.3234l14.1805,8.1871a8.408,8.408,0,0,1,3.0288,3.3356l3.357,6.3684a8.40875,8.40875,0,0,0,3.0288,3.3356l46.285,26.7226a8.89571,8.89571,0,0,1,4.0245,6.9705Z" transform="translate(-143.1917 -43.2511)" />
        <path class="cls-13" d="M407.41659,495.5736l-77.9291-44.9923V386.991c0-2.5664,1.8019-3.6067,4.02451-2.3234l14.18049,8.1871a8.40832,8.40832,0,0,1,3.0288,3.3357l3.357,6.3683a8.40875,8.40875,0,0,0,3.0288,3.3356L403.392,432.6169a8.89546,8.89546,0,0,1,4.02449,6.9705Z" transform="translate(-143.1917 -43.2511)" />
        <polygon class="cls-7" points="190.574 416.911 259.947 456.963 259.947 394.559 190.574 354.507 190.574 416.911" />
        <polygon class="cls-8" points="188.039 403.45 257.412 443.502 257.412 397.094 188.039 357.042 188.039 403.45" />
        <polygon class="cls-9" points="188.039 357.042 190.574 354.507 259.947 394.559 257.412 397.094 188.039 357.042" />
        <path class="cls-13" d="M319.34839,444.7247l77.929,44.9923V442.1224a8.89544,8.89544,0,0,0-4.0245-6.9705l-24.0588-13.8903a2.72527,2.72527,0,0,0-3.0288-.1617l-3.357,2.492a2.72564,2.72564,0,0,1-3.0288-.1617l-36.4066-21.0194c-2.2226-1.2832-4.0245-.243-4.0245,2.3234Z" transform="translate(-143.1917 -43.2511)" />
        <path class="cls-13" d="M318.081,445.9921l77.929,44.9923V443.3898a8.89545,8.89545,0,0,0-4.02451-6.9705l-24.0588-13.8903a2.72527,2.72527,0,0,0-3.0288-.1617l-3.357,2.492a2.72564,2.72564,0,0,1-3.0288-.1617l-36.4066-21.0194c-2.2226-1.2833-4.02449-.243-4.02449,2.3234Z" transform="translate(-143.1917 -43.2511)" />

        
    </g>
    
    <g id="leftOrange">
        <path class="cls-6" d="M383.63729,494.7351l-77.9291-44.9923V402.1482c0-2.5665,1.8019-3.6067,4.0245-2.3234l14.1805,8.1871a8.40884,8.40884,0,0,1,3.02881,3.3356l3.357,6.3683a8.4083,8.4083,0,0,0,3.02879,3.3357l46.2849,26.7226a8.89544,8.89544,0,0,1,4.0245,6.9705Z" transform="translate(-143.1917 -43.2511)" />
        <path class="cls-6" d="M384.90459,493.4677l-77.929-44.9923V400.8808c0-2.5664,1.8018-3.6067,4.0245-2.3234l14.1805,8.1871a8.40875,8.40875,0,0,1,3.0288,3.3356l3.357,6.3684a8.40875,8.40875,0,0,0,3.0288,3.3356l46.2849,26.7226a8.89544,8.89544,0,0,1,4.0245,6.9705Z" transform="translate(-143.1917 -43.2511)" />
        <polygon class="cls-7" points="168.062 414.805 237.435 454.857 237.435 408.449 168.062 368.397 168.062 414.805" />
        <polygon class="cls-8" points="163.242 418.101 232.615 458.154 232.615 411.746 163.242 371.693 163.242 418.101" />
        <polygon class="cls-9" points="163.242 371.693 168.062 368.397 237.435 408.449 232.615 411.746 163.242 371.693" />
        <path class="cls-6" d="M295.56909,459.8819l77.929,44.9923V457.2796a8.89544,8.89544,0,0,0-4.0245-6.9705l-24.0588-13.8904a2.72541,2.72541,0,0,0-3.02879-.1616l-3.357,2.4919a2.72529,2.72529,0,0,1-3.02881-.1617l-36.4066-21.0193c-2.22259-1.2833-4.0245-.2431-4.0245,2.3234Z" transform="translate(-143.1917 -43.2511)" />
        <path class="cls-6" d="M296.83649,458.6145l77.929,44.9923V456.0122a8.89546,8.89546,0,0,0-4.02449-6.9705l-24.05881-13.8903a2.72527,2.72527,0,0,0-3.0288-.1617l-3.357,2.4919a2.72527,2.72527,0,0,1-3.0288-.1617L300.861,416.3006c-2.22271-1.2833-4.02451-.243-4.02451,2.3234Z" transform="translate(-143.1917 -43.2511)" />
    </g>
    <polygon class="cls-2" points="229.205 513.498 125.44 453.589 125.44 376.779 229.205 436.689 229.205 513.498" />
    <polygon class="cls-5" points="125.44 376.779 130.013 376.781 229.205 434.051 229.205 436.689 125.44 376.779" />
    <polygon class="cls-5" points="229.205 436.689 229.205 434.051 307.312 388.955 311.882 388.955 229.205 436.689" />
    <path class="cls-5" d="M424.01259,465.3796a3.3579,3.3579,0,0,1,.4358,1.7916v7.3475a7.022,7.022,0,0,1-2.9322,5.6024l-18.6085,10.7436a2.48015,2.48015,0,0,1-.973.3367,1.69835,1.69835,0,0,0,2.4964.425l18.6085-10.7436a7.022,7.022,0,0,0,2.9322-5.6024v-7.3475C425.97179,466.2292,425.153,465.2567,424.01259,465.3796Z" transform="translate(-143.1917 -43.2511)" />
    <path class="cls-11" d="M372.39719,479.9397v76.8092l82.6762-47.7332V432.2065Zm53.5746-4.6593a7.022,7.022,0,0,1-2.9322,5.6024l-18.6085,10.7436c-1.6194.935-2.9322-.0575-2.9322-2.2166v-7.3475a7.022,7.022,0,0,1,2.9322-5.6024l18.6085-10.7437c1.61941-.9349,2.9322.0575,2.9322,2.2167Z" transform="translate(-143.1917 -43.2511)" />
    <polygon class="cls-8" points="287.646 462.856 255.11 481.641 255.11 459.06 287.646 440.275 287.646 462.856" />
    <polygon class="cls-8" points="192.609 447.598 192.609 473.436 151.512 449.709 151.512 423.87 192.609 447.598" />
    <polygon class="cls-2" points="442.922 485.969 546.685 426.062 464.009 378.329 360.246 438.236 442.922 485.969" />
    <polygon class="cls-3" points="464.009 301.52 464.009 378.329 546.685 426.062 546.685 349.253 464.009 301.52" />
    <polygon class="cls-4" points="464.009 378.329 376.927 428.606 360.246 361.427 464.009 301.52 464.009 378.329" />
    <path class="cls-5" d="M503.43769,404.6782,586.114,452.4113,689.87658,392.504l-82.6763-47.7332Zm82.6762,45.095-78.1061-45.095,99.19229-57.2688,78.1062,45.0946Z" transform="translate(-143.1917 -43.2511)" />
    <path class="cls-6" d="M520.11849,450.0039l77.929-44.9923V357.4169c0-2.5664-1.8018-3.6066-4.02448-2.3234l-14.18051,8.1871a8.40981,8.40981,0,0,0-3.0288,3.3357l-3.357,6.3683a8.409,8.409,0,0,1-3.0288,3.3357L524.143,403.0429a8.89512,8.89512,0,0,0-4.02451,6.9705Z" transform="translate(-143.1917 -43.2511)" />
    <path class="cls-6" d="M521.38589,451.2712l77.929-44.9923V358.6843c0-2.5664-1.8018-3.6066-4.0245-2.3234l-14.18049,8.1871a8.40974,8.40974,0,0,0-3.0288,3.3357l-3.357,6.3683a8.408,8.408,0,0,1-3.0288,3.3356l-46.2849,26.7226a8.89544,8.89544,0,0,0-4.0245,6.9705Z" transform="translate(-143.1917 -43.2511)" />
    <polygon class="cls-7" points="451.704 372.352 382.332 412.405 382.332 365.997 451.704 325.944 451.704 372.352" />
    <polygon class="cls-8" points="454.239 374.887 384.866 414.94 384.866 368.532 454.239 328.479 454.239 374.887" />
    <polygon class="cls-9" points="454.239 328.479 451.704 325.944 382.332 365.997 384.866 368.532 454.239 328.479" />
    <path class="cls-6" d="M608.18658,415.1506l-77.929,44.9924V412.5484a8.89513,8.89513,0,0,1,4.0245-6.9705l24.0588-13.8904a2.72546,2.72546,0,0,1,3.0288-.1617l3.357,2.492a2.72546,2.72546,0,0,0,3.0288-.1617l36.40659-21.0194c2.2227-1.2832,4.0245-.243,4.0245,2.3234Z" transform="translate(-143.1917 -43.2511)" />
    <path class="cls-10" d="M609.454,443.0775l-77.929,44.9923v-74.254a8.89546,8.89546,0,0,1,4.02449-6.9706l24.0588-13.8903a2.72546,2.72546,0,0,1,3.0288-.1617l3.357,2.492a2.72546,2.72546,0,0,0,3.0288-.1617l36.40659-21.0194c2.2227-1.2832,4.02452-.243,4.02452,2.3234Z" transform="translate(-143.1917 -43.2511)" />
    <path class="cls-6" d="M551.09459,477.0452l77.929-44.9923.0001-63.5903c0-2.5664-1.8019-3.6066-4.0245-2.3234l-14.1805,8.1871a8.409,8.409,0,0,0-3.0288,3.3357l-3.357,6.3683a8.40974,8.40974,0,0,1-3.0288,3.3357l-46.285,26.7226a8.8954,8.8954,0,0,0-4.0245,6.9705Z" transform="translate(-143.1917 -43.2511)" />
    <path class="cls-6" d="M552.362,478.3126l77.929-44.9923V369.73c0-2.5664-1.80182-3.6066-4.02452-2.3234l-14.1804,8.1871a8.409,8.409,0,0,0-3.0288,3.3357l-3.357,6.3683a8.40918,8.40918,0,0,1-3.0288,3.3356l-46.285,26.7226a8.8957,8.8957,0,0,0-4.02449,6.9705Z" transform="translate(-143.1917 -43.2511)" />
    <polygon class="cls-7" points="481.554 398.382 412.181 438.435 412.181 376.031 481.554 335.979 481.554 398.382" />
    <polygon class="cls-8" points="484.089 384.921 414.716 424.974 414.716 378.566 484.089 338.513 484.089 384.921" />
    <polygon class="cls-9" points="484.089 338.513 481.554 335.979 412.181 376.031 414.716 378.566 484.089 338.513" />
    <path class="cls-10" d="M639.16278,426.1963l-77.929,44.9924V423.5941a8.89513,8.89513,0,0,1,4.0245-6.9705l24.0588-13.8904a2.72529,2.72529,0,0,1,3.0287-.1617l3.35709,2.492a2.72546,2.72546,0,0,0,3.0288-.1617l36.4066-21.0194c2.2226-1.2832,4.0245-.243,4.0245,2.3234Z" transform="translate(-143.1917 -43.2511)" />
    <path class="cls-10" d="M640.43008,427.4637l-77.929,44.9924V424.8614a8.89574,8.89574,0,0,1,4.0245-6.9705l24.0588-13.8903a2.72546,2.72546,0,0,1,3.0288-.1617l3.357,2.492a2.72549,2.72549,0,0,0,3.02882-.1617l36.40658-21.0194c2.2227-1.2832,4.0245-.243,4.0245,2.3234Z" transform="translate(-143.1917 -43.2511)" />
    <polygon class="cls-11" points="442.922 485.969 546.688 426.06 546.688 349.251 442.922 409.16 442.922 485.969" />
    <polygon class="cls-5" points="546.688 349.251 542.115 349.253 442.922 406.522 442.922 409.16 546.688 349.251" />
    <polygon class="cls-5" points="442.922 409.16 442.922 406.522 364.816 361.427 360.246 361.427 442.922 409.16" />
    <path class="cls-12" d="M534.49859,437.8512a3.35824,3.35824,0,0,0-.4358,1.7916v7.3475a7.022,7.022,0,0,0,2.93221,5.6024l18.60849,10.7437a2.48337,2.48337,0,0,0,.973.3367,1.69843,1.69843,0,0,1-2.4964.425l-18.6085-10.7437a7.022,7.022,0,0,1-2.9322-5.6024v-7.3475C532.53939,438.7008,533.35819,437.7284,534.49859,437.8512Z" transform="translate(-143.1917 -43.2511)" />
    <path class="cls-2" d="M503.43769,404.6782v76.8091L586.114,529.2205V452.4113Zm29.1017,35.7263c0-2.1592,1.3128-3.1516,2.9322-2.2166l18.6085,10.7436a7.02233,7.02233,0,0,1,2.9322,5.6025v7.3474c0,2.1592-1.3128,3.1516-2.9322,2.2167l-18.6085-10.7437a7.022,7.022,0,0,1-2.9322-5.6024Z" transform="translate(-143.1917 -43.2511)" />
    <polygon class="cls-8" points="384.481 435.328 417.018 454.113 417.018 431.531 384.481 412.746 384.481 435.328" />
    <polygon class="cls-8" points="479.518 420.069 479.518 445.908 520.616 422.18 520.616 396.342 479.518 420.069" />
    <polygon class="cls-8" points="358.241 355.568 464.003 294.506 548.679 343.394 442.916 404.456 358.241 355.568" />
    <polygon class="cls-3" points="358.241 355.568 358.241 365.568 442.916 414.456 442.916 404.456 358.241 355.568" />
    <polygon class="cls-12" points="442.916 404.456 442.916 414.456 548.679 353.394 548.679 343.394 442.916 404.456" />
</svg>