<svg xmlns="http://www.w3.org/2000/svg" viewBox="0 0 91.51 60.51"><defs><style>.cls-1{fill:#ffffff;}</style></defs><title>mining</title><g id="Layer_2" data-name="Layer 2"><g id="Layer_1-2" data-name="Layer 1"><path class="cls-1" d="M51.78,29h-4a.93.93,0,0,0-.9.89.8.8,0,0,0,.3.46.67.67,0,0,0,.27.13h0l.19,0h4.11a.72.72,0,0,0,.53-.23.71.71,0,0,0,.24-.53.79.79,0,0,0-.75-.75Z"/><path class="cls-1" d="M58.77,33.51h19a.79.79,0,0,0,.75-.76v-26A.79.79,0,0,0,77.76,6H63.6a.79.79,0,0,0-.57.61l-5,26a.79.79,0,0,0,.18.61A.74.74,0,0,0,58.77,33.51ZM59.68,32,64.4,7.51H77V32Z"/><path class="cls-1" d="M88.7,41.71a8.55,8.55,0,0,0-4-2.34l-.18,0V.75A.8.8,0,0,0,83.76,0h-27a.92.92,0,0,0-.89.89.81.81,0,0,0,.56.59h0l.17,0H57.9L55.13,18H49.46v-.25A.8.8,0,0,0,48.7,17H46.52a.81.81,0,0,0-.67.75V18H38.52V7.69A.76.76,0,0,0,38,7c-1.16-.38-2.3-.73-3.3-1h0a.76.76,0,0,0-.15,1.5L37,8.23V18H29.77a.79.79,0,0,0-.75.75V39.32l-.19,0a8.55,8.55,0,0,0-4,2.34,9.74,9.74,0,0,0-2.28,4l-.05.17-2,0V35.75a.8.8,0,0,0-.76-.75H12.59a.78.78,0,0,0-.57.66L10.07,52.33.35,59.11A.79.79,0,0,0,0,60a.82.82,0,0,0,.74.54h17a.77.77,0,0,0,.74-.61l.91-4.49L23,55l.08.16a8.94,8.94,0,0,0,8.55,5.39H81.91a9.27,9.27,0,0,0,6.79-2.74,11.23,11.23,0,0,0,2.81-8A11.27,11.27,0,0,0,88.7,41.71ZM56.52,18.87,59.43,1.51H83V39h-.24c-7.43,0-15.27,0-23.84,0s-17.84,0-28.15,0h-.25V19.51H55.79A.8.8,0,0,0,56.52,18.87Zm19,31.38a3.25,3.25,0,1,1,3.25,3.25A3.25,3.25,0,0,1,75.51,50.25ZM31.78,53.9l.08.07a4.67,4.67,0,0,0,2.91,1,4.74,4.74,0,0,0,3.74-1.84l.06-.08,13-1.59,2.77,1.86a.7.7,0,0,0,.43.15H75.3l.07.07a4.76,4.76,0,1,0,0-6.65L75.3,47H57l-2.81-1.88a.7.7,0,0,0-.44-.12l-29.65.89.13-.35a8.1,8.1,0,0,1,1.71-2.77,7.68,7.68,0,0,1,5.7-2.26H81.91a7.71,7.71,0,0,1,5.71,2.26,9.7,9.7,0,0,1,2.38,7,9.66,9.66,0,0,1-2.38,7A7.71,7.71,0,0,1,81.91,59H31.64a7.35,7.35,0,0,1-6.86-3.91l-.18-.32Zm21.77-7.39,2.79,1.85a.68.68,0,0,0,.43.15H74.35l-.11.33a5.05,5.05,0,0,0,0,2.86l.06.3H55l-2.81-1.88a.74.74,0,0,0-.52-.12l-33,4a.78.78,0,0,0-.64.59L17.16,59h-14l8-5.63a.78.78,0,0,0,.3-.54l1.93-16.32H19V46.75a.79.79,0,0,0,.24.54.74.74,0,0,0,.51.22h0Zm2.24-27Zm-36,28ZM56.12,1.29l0,0Zm.21.14.07,0Zm.24.06a.25.25,0,0,0,.12,0h0Z"/><path class="cls-1" d="M51.78,24h-4a.93.93,0,0,0-.9.89.8.8,0,0,0,.3.46.84.84,0,0,0,.27.13h0l.18,0h4.14a.74.74,0,0,0,.51-.23A.76.76,0,0,0,51.78,24Zm-4.44,1.43.07,0Zm.23.06a.29.29,0,0,0,.13,0h-.05Zm4.22,0h0Z"/></g></g></svg>