<?xml version="1.0" encoding="utf-8"?>
<!-- Generator: Adobe Illustrator 23.0.1, SVG Export Plug-In . SVG Version: 6.00 Build 0)  -->
<svg version="1.1" id="Layer_1" xmlns="http://www.w3.org/2000/svg" xmlns:xlink="http://www.w3.org/1999/xlink" x="0px" y="0px"
	 viewBox="0 0 376.9 298.6" style="enable-background:new 0 0 376.9 298.6;" xml:space="preserve">
<style type="text/css">
	.st0{opacity:0.29;fill:#8BCC34;enable-background:new    ;}
	.st1{fill:#47881E;}
	.st2{fill:#97DC4C;}
	.st3{opacity:0.42;fill:#8FA6B5;enable-background:new    ;}
	.st4{fill:#C6D0DC;}
	.st5{fill:#E4F2FD;}
	.st6{fill:#011C53;}
	.st7{fill:#FFD3FF;}
	.st8{fill:#82E8C1;}
	.st9{fill:#E2EEF8;}
	.st10{fill:#626BC1;}
	.st11{fill:#ACBFC6;}
	.st12{fill:#551EAD;}
	.st13{fill:#C892FD;}
	.st14{fill:#FFFFFF;}
	.st15{opacity:8.000000e-02;enable-background:new    ;}
	.st16{fill:#E0B784;}
	.st17{fill:#C99748;}
	.st18{opacity:0.36;fill:#B88A4D;enable-background:new    ;}
	.st19{opacity:0.92;fill:#B88A4D;}
	.st20{opacity:0.86;fill:#B88A4D;}
	.st21{opacity:0.46;fill:#B88A4D;enable-background:new    ;}
	.st22{fill:#F7D5AB;}
	.st23{fill:#453726;}
	.st24{opacity:0.24;fill:#B88A4D;enable-background:new    ;}
	.st25{clip-path:url(#SVGID_2_);}
	.st26{fill:#DBE1E3;}
	.st27{fill:#BEBEBE;}
	.st28{fill:#EDF1F2;}
	.st29{fill:#79BD04;}
	.st30{opacity:7.000000e-02;enable-background:new    ;}
	.st31{fill:#FAE8D0;}
	.st32{fill:#F86174;}
	.st33{fill:#B88A4D;}
</style>
<title>political</title>
<g>
	<g id="_ÎÓÈ_1">
		<polygon class="st0" points="376.9,130.4 331.7,104.2 328.8,105.9 326.1,104.3 263.2,140.5 308.5,166.7 311.3,165.1 314.1,166.7 
					"/>
		<polygon class="st1" points="314,163.9 268.7,137.7 331.6,101.4 376.8,127.6 		"/>
		<polygon class="st2" points="308.4,163.9 263.1,137.8 326,101.5 371.2,127.6 		"/>
		<path class="st3" d="M242.2,126.6c-0.2-3.4-2-6.5-4.8-8.3l-4.2-2.4v110.4l-84.8,50.6L5.2,192.8l-2.7,1.5c-1.1,0.5-1.9,1.6-2,2.8
			l0,0l0,3.3c0.1,1.2,0.9,2.3,2,2.8L142,283.8c3,1.5,6.6,1.5,9.6,0l87.8-51l0-3.1l2.6-1.5L242.2,126.6z"/>
		<path class="st4" d="M89.8,138.4l149.1,86.1l-87.8,51c-3,1.5-6.6,1.5-9.6,0L2,195c-2.7-1.5-2.7-4,0-5.5L89.8,138.4z M90.4,228.8
			l6.9-4l-49.2-28.4l-6.9,4L90.4,228.8z M118.9,235.7l6.9-4l-29-16.7l-6.9,4L118.9,235.7z M127.3,230.8l6.9-4l-18.8-10.9l-6.9,4
			L127.3,230.8z M56.5,189.9l6.9-4L44.6,175l-6.9,4L56.5,189.9z M93.4,193.5l-6.9,4l8.7,5l6.9-4L93.4,193.5z M121.9,200.4l-6.9,4
			l8.7,5l6.9-4L121.9,200.4z M113.6,205.2l-6.9,4l8.7,5l6.9-4L113.6,205.2z M101.7,188.7l-6.9,4l8.7,5l6.9-4L101.7,188.7z
			 M144,221.1l6.9-4l-8.7-5l-6.9,4L144,221.1z M135.6,226l6.9-4l-8.7-5l-6.9,4L135.6,226L135.6,226z M111.8,194.5l-6.9,4l8.7,5
			l6.9-4L111.8,194.5L111.8,194.5z M103.5,199.4l-6.9,4l8.7,5l6.9-4L103.5,199.4L103.5,199.4z M184.4,244.5l6.9-4l-8.7-5l-6.9,4
			L184.4,244.5L184.4,244.5z M83.2,187.7l-6.9,4l8.7,5l6.9-4L83.2,187.7L83.2,187.7z M176.1,249.3l6.9-4l-8.7-5l-6.9,4L176.1,249.3
			L176.1,249.3z M91.6,182.8l-6.9,4l8.7,5l6.9-4L91.6,182.8z M64.8,185.1l6.9-4l-8.7-5l-6.9,4L64.8,185.1L64.8,185.1z M155.9,237.6
			l6.9-4l-8.7-5l-6.9,4L155.9,237.6z M164.2,232.8l6.9-4l-8.7-5l-6.9,4L164.2,232.8z M73.1,180.2l6.9-4l-8.7-5l-6.9,4L73.1,180.2z
			 M166,243.5l6.9-4l-8.7-5l-6.9,4L166,243.5z M174.3,238.6l6.9-4l-8.7-5l-6.9,4L174.3,238.6z M52.9,170.2l-6.9,4l8.7,5l6.9-4
			L52.9,170.2L52.9,170.2z M81.5,177l-6.9,4l8.7,5l6.9-4L81.5,177L81.5,177z M61.2,165.3l-6.9,4l8.7,5l6.9-4L61.2,165.3L61.2,165.3z
			 M73.1,181.8l-6.9,4l8.7,5l6.9-4L73.1,181.8L73.1,181.8z M123.7,211l-6.9,4l8.7,5l6.9-4L123.7,211L123.7,211z M132.1,206.2l-6.9,4
			l8.7,5l6.9-4L132.1,206.2z M110,183.8l-6.9,4l8.7,5l6.9-4L110,183.8L110,183.8z M130.3,195.5l-6.9,4l8.7,5l6.9-4L130.3,195.5z
			 M152.3,216.3l6.9-4l-8.7-5l-6.9,4L152.3,216.3z M120.2,189.7l-6.9,4l8.7,5l6.9-4L120.2,189.7L120.2,189.7z M99.9,178l-6.9,4
			l8.7,5l6.9-4L99.9,178z M192.8,239.6l6.9-4l-8.7-5l-6.9,4L192.8,239.6L192.8,239.6z M76.7,203.2l-6.9,4l8.7,5l6.9-4L76.7,203.2z
			 M122.1,176.8l-6.9,4l8.7,5l6.9-4L122.1,176.8z M105.3,210.1l-6.9,4l8.7,5l6.9-4L105.3,210.1z M142.3,188.5l-6.9,4l8.7,5l6.9-4
			L142.3,188.5L142.3,188.5z M85,198.4l-6.9,4l8.7,5l6.9-4L85,198.4z M81.5,175.4l6.9-4l-8.7-5l-6.9,4L81.5,175.4L81.5,175.4z
			 M172.5,228l6.9-4l-8.7-5l-6.9,4L172.5,228z M110.6,240.5l6.9-4l-8.7-5l-6.9,4L110.6,240.5z M164.4,209.3l6.9-4l-8.7-5l-6.9,4
			L164.4,209.3z M159.4,259l6.9-4l-8.7-5l-6.9,4L159.4,259z M86.8,209.1l-6.9,4l8.7,5l6.9-4L86.8,209.1z M66.6,197.4l-6.9,4l8.7,5
			l6.9-4L66.6,197.4L66.6,197.4z M167.8,254.2l6.9-4l-8.7-5l-6.9,4L167.8,254.2z M74.9,192.5l-6.9,4l8.7,5l6.9-4L74.9,192.5
			L74.9,192.5z M112,171l-6.9,4l8.7,5l6.9-4L112,171L112,171z M132.2,182.7l-6.9,4l8.7,5l6.9-4L132.2,182.7z M95.1,204.2l-6.9,4
			l8.7,5l6.9-4L95.1,204.2L95.1,204.2z M151.1,263.9l6.9-4l-8.7-5l-6.9,4L151.1,263.9L151.1,263.9z M204.8,232.6l6.9-4l-8.7-5
			l-6.9,4L204.8,232.6L204.8,232.6z M48.1,194.8l6.9-4l-8.7-5l-6.9,4L48.1,194.8z M139.2,247.3l6.9-4l-8.7-5l-6.9,4L139.2,247.3z
			 M130.8,252.2l6.9-4l-8.7-5l-6.9,4L130.8,252.2z M93.5,168.4l6.9-4l-8.7-5l-6.9,4L93.5,168.4z M39.8,199.6l6.9-4l-8.7-5l-6.9,4
			L39.8,199.6z M147.5,242.5l6.9-4l-8.7-5l-6.9,4L147.5,242.5z M184.6,220.9l6.9-4l-8.7-5l-6.9,4L184.6,220.9z M182.6,233.8l6.9-4
			l-8.7-5l-6.9,4L182.6,233.8z M89.8,172.2l-6.9,4l8.7,5l6.9-4L89.8,172.2z M140.4,201.4l-6.9,4l8.7,5l6.9-4L140.4,201.4z
			 M69.6,160.5l-6.9,4l8.7,5l6.9-4L69.6,160.5z M149.3,253.2l6.9-4l-8.7-5l-6.9,4L149.3,253.2z M157.6,248.3l6.9-4l-8.7-5l-6.9,4
			L157.6,248.3z M141,258l6.9-4l-8.7-5l-6.9,4L141,258z M194.7,226.8l6.9-4l-8.7-5l-6.9,4L194.7,226.8z M38,188.9l6.9-4l-8.7-5
			l-6.9,4L38,188.9L38,188.9z M56.4,191.5l-6.9,4l8.7,5l6.9-4L56.4,191.5z M64.8,186.7l-6.9,4l8.7,5l6.9-4L64.8,186.7z M29.7,193.8
			l6.9-4l-8.7-5l-6.9,4L29.7,193.8L29.7,193.8z M101.9,165.1l-6.9,4l8.7,5l6.9-4L101.9,165.1L101.9,165.1z M174.5,215.1l6.9-4
			l-8.7-5l-6.9,4L174.5,215.1z M152.4,194.4l-6.9,4l8.7,5l6.9-4L152.4,194.4z M100.5,234.7l6.9-4l-8.7-5l-6.9,4L100.5,234.7z
			 M81.6,153.5l-6.9,4l8.7,5l6.9-4L81.6,153.5z"/>
		<path class="st5" d="M151,275.5c-3,1.5-6.6,1.5-9.6,0l0,0L2,195c-1.1-0.5-1.9-1.6-2-2.8l0,3.3c0.1,1.2,0.9,2.3,2,2.8l139.5,80.5
			l0,0c3,1.5,6.6,1.5,9.6,0l87.8-51l0-3.3L151,275.5z"/>
        
        <g id="screen">
            <path class="st6" d="M315.7,60.4L211.5,0.3c-1.4-0.8-2.5,0-2.5,1.9v3.4l109.1,63v-3.4C318.1,63.3,317.2,61.5,315.7,60.4z"/>
            <path class="st8" d="M216.5,6.7c0,0.7-0.5,0.9-1,0.6c-0.6-0.4-1-1.1-1-1.8c0-0.7,0.5-0.9,1-0.6C216.1,5.3,216.4,5.9,216.5,6.7z"/>
            <path class="st8" d="M219.8,8.6c0,0.7-0.5,0.9-1,0.6c-0.6-0.4-1-1.1-1-1.8c0-0.7,0.5-0.9,1-0.6C219.4,7.2,219.8,7.9,219.8,8.6z"/>
            <path class="st8" d="M223.2,10.5c0,0.7-0.5,0.9-1,0.6c-0.6-0.4-1-1.1-1-1.8c0-0.7,0.5-0.9,1-0.6C222.8,9.1,223.1,9.8,223.2,10.5z"
                />
            <polygon class="st9" points="318.1,142.8 209,79.8 209,5.5 318.1,68.5 		"/>
            <polygon class="st10" points="309.6,73.2 243.4,34.9 243.4,33.2 309.6,71.4 		"/>
            <polygon class="st10" points="309.6,77 243.4,38.8 243.4,37.1 309.6,75.3 		"/>
            <polygon class="st10" points="309.6,80.9 243.4,42.7 243.4,40.9 309.6,79.2 		"/>
            <polygon class="st10" points="292.6,75 243.4,46.6 243.4,44.8 292.6,73.2 		"/>
            <polygon class="st11" points="309.6,91 243.4,52.8 243.4,51 309.6,89.2 		"/>
            <polygon class="st11" points="309.6,94.9 243.4,56.7 243.4,54.9 309.6,93.1 		"/>
            <polygon class="st11" points="309.6,98.8 243.4,60.6 243.4,58.8 309.6,97 		"/>
            <polygon class="st11" points="309.6,105.6 243.4,67.4 243.4,65.6 309.6,103.9 		"/>
            <polygon class="st11" points="309.6,109.5 243.4,71.3 243.4,69.5 309.6,107.7 		"/>
            <polygon class="st11" points="262.6,86.2 243.4,75.2 243.4,73.4 262.6,84.5 		"/>
            <polygon class="st12" points="238.2,65.3 217.8,53.5 217.8,20.4 238.2,32.2 		"/>
        </g>
        
		<g>
			<path class="st6" d="M234.3,114.6c2.8,1.8,4.6,4.9,4.8,8.3l-0.3,101.5L89.8,138.4L90,36.9c0-3,2.2-4.3,4.8-2.7L234.3,114.6z
				 M233.8,213.3l0.3-90.8l-139-80.2l-0.3,90.8L233.8,213.3L233.8,213.3z M164.6,77c-0.7-0.4-1.4-0.1-1.4,0.8c0.1,1,0.6,1.8,1.4,2.3
				c0.7,0.4,1.4,0.1,1.4-0.8C165.9,78.4,165.4,77.6,164.6,77L164.6,77z"/>
			<polygon class="st7" points="234.1,122.5 233.8,213.3 94.8,133.1 95.1,42.3 			"/>
			<path class="st5" d="M237.2,112.9L97.8,32.4c-1-0.7-2.3-0.9-3.4-0.3l-2.9,1.7c1.1-0.5,2.4-0.4,3.4,0.3l139.5,80.5
				c2.8,1.8,4.6,4.9,4.8,8.3l-0.3,101.5l2.9-1.7l0.3-101.5C241.8,117.9,240,114.8,237.2,112.9z"/>
		</g>
        
        <g id="lavenderScreen">
            <polygon class="st13" points="199,179.7 128.5,138.9 128.5,81.4 199,122.1 		"/>
            <path class="st6" d="M197.1,116.9l-66.7-38.5c-1.1-0.6-1.9,0-1.9,1.4v1.5l70.5,40.7v-1.5C199,119.1,198.3,117.8,197.1,116.9z"/>
            <path class="st8" d="M134.3,82.9c0,0.5-0.4,0.7-0.8,0.5c-0.5-0.3-0.8-0.8-0.8-1.4c0-0.5,0.4-0.7,0.8-0.5
                C133.9,81.8,134.2,82.3,134.3,82.9z"/>
            <path class="st8" d="M136.9,84.4c0,0.5-0.4,0.7-0.8,0.5c-0.5-0.3-0.8-0.8-0.8-1.4c0-0.5,0.4-0.7,0.8-0.5
                C136.5,83.3,136.8,83.8,136.9,84.4z"/>
            <path class="st8" d="M139.5,85.8c0,0.5-0.4,0.7-0.8,0.5c-0.5-0.3-0.8-0.8-0.8-1.4c0-0.5,0.4-0.7,0.8-0.5
                C139.1,84.8,139.4,85.3,139.5,85.8z"/>
            <polygon class="st14" points="180.1,156.8 147.4,137.9 147.4,102.2 180.1,121.1 		"/>
            <polygon class="st11" points="177.3,127.8 149.9,112 149.9,108.6 177.3,124.4 		"/>
            <polygon class="st11" points="161.2,135.8 157.2,133.4 157.2,132.4 161.2,134.8 		"/>
            <polygon class="st11" points="169.7,140.7 162.1,136.2 162.1,135.3 169.7,139.7 		"/>
            <polygon class="st11" points="177.3,134.7 149.9,118.9 149.9,115.1 177.3,130.9 		"/>
            <path class="st11" d="M176.5,140.5l-25.7-14.9c-0.5-0.4-0.8-0.9-0.8-1.6v-1.6c0-0.6,0.4-0.9,0.8-0.6l25.7,14.9
                c0.5,0.4,0.8,0.9,0.8,1.6v1.6C177.3,140.5,176.9,140.8,176.5,140.5z"/>
            <path class="st2" d="M176.5,150.2l-25.7-14.9c-0.5-0.4-0.8-0.9-0.8-1.6v-1.6c0-0.6,0.4-0.9,0.8-0.6l25.7,14.9
                c0.5,0.4,0.8,0.9,0.8,1.6v1.6C177.3,150.2,176.9,150.4,176.5,150.2z"/>
        </g>    
		<polygon class="st5 keyspoly" points="90.4,158.5 83.4,162.5 74.7,157.5 81.6,153.5 		"/>
		<polygon class="st5 keyspoly" points="100.5,164.3 93.5,168.4 84.8,163.3 91.7,159.3 		"/>
		<polygon class="st5 keyspoly" points="78.3,165.5 71.4,169.5 62.6,164.5 69.6,160.5 		"/>
		<polygon class="st5 keyspoly" points="110.6,170.2 103.6,174.2 94.9,169.2 101.9,165.1 		"/>
		<polygon class="st5 keyspoly" points="61.6,175.2 54.7,179.2 46,174.2 52.9,170.2 		"/>
		<polygon class="st5 keyspoly" points="80.1,176.2 73.1,180.2 64.4,175.2 71.4,171.2 		"/>
		<polygon class="st5 keyspoly" points="98.5,177.2 91.6,181.2 82.9,176.2 89.8,172.1 		"/>
		<polygon class="st5 keyspoly" points="108.7,183 101.7,187.1 93,182 99.9,178 		"/>
		<polygon class="st5 keyspoly" points="140.9,187.7 134,191.7 125.3,186.7 132.2,182.7 		"/>
		<polygon class="st5 keyspoly" points="100.3,187.9 93.4,191.9 84.6,186.9 91.6,182.8 		"/>
		<polygon class="st5 keyspoly" points="92,192.7 85,196.8 76.3,191.7 83.2,187.7 		"/>
		<polygon class="st5 keyspoly" points="151.1,193.6 144.1,197.6 135.4,192.5 142.3,188.5 		"/>
		<polygon class="st5 keyspoly" points="128.9,194.7 121.9,198.7 113.2,193.7 120.2,189.7 		"/>
		<polygon class="st5 keyspoly" points="102.1,198.6 95.2,202.6 86.4,197.6 93.4,193.5 		"/>
		<polygon class="st5 keyspoly" points="161.2,199.4 154.2,203.4 145.5,198.4 152.4,194.4 		"/>
		<polygon class="st5 keyspoly" points="120.6,199.6 113.6,203.6 104.9,198.6 111.8,194.5 		"/>
		<polygon class="st5 keyspoly" points="139,200.6 132.1,204.6 123.3,199.5 130.3,195.5 		"/>
		<polygon class="st5 keyspoly" points="93.8,203.4 86.8,207.4 78.1,202.4 85,198.4 		"/>
		<polygon class="st5 keyspoly" points="112.2,204.4 105.3,208.4 96.5,203.4 103.5,199.4 		"/>
		<polygon class="st5 keyspoly" points="171.3,205.2 164.4,209.3 155.6,204.2 162.6,200.2 		"/>
		<polygon class="st5 keyspoly" points="130.7,205.4 123.7,209.4 115,204.4 121.9,200.4 		"/>
		<polygon class="st5 keyspoly" points="149.1,206.4 142.2,210.4 133.5,205.4 140.4,201.4 		"/>
		<polygon class="st5 keyspoly" points="122.3,210.2 115.4,214.3 106.7,209.2 113.6,205.2 		"/>
		<polygon class="st5 keyspoly" points="181.4,211.1 174.5,215.1 165.7,210.1 172.7,206 		"/>
		<polygon class="st5 keyspoly" points="140.8,211.2 133.8,215.3 125.1,210.2 132.1,206.2 		"/>
		<polygon class="st5 keyspoly" points="159.2,212.2 152.3,216.3 143.6,211.2 150.5,207.2 		"/>
		<polygon class="st5 keyspoly" points="95.5,214.1 88.6,218.1 79.9,213.1 86.8,209.1 		"/>
		<polygon class="st5 keyspoly" points="132.4,216.1 125.5,220.1 116.8,215.1 123.7,211 		"/>
		<polygon class="st5 keyspoly" points="191.5,216.9 184.6,220.9 175.9,215.9 182.8,211.9 		"/>
		<polygon class="st5 keyspoly" points="150.9,217.1 144,221.1 135.2,216.1 142.2,212 		"/>
		<polygon class="st5 keyspoly" points="142.6,221.9 135.6,226 126.9,220.9 133.8,216.9 		"/>
		<polygon class="st5 keyspoly" points="201.6,222.8 194.7,226.8 186,221.7 192.9,217.7 		"/>
		<polygon class="st5 keyspoly" points="179.5,223.9 172.5,228 163.8,222.9 170.7,218.9 		"/>
		<polygon class="st5 keyspoly" points="134.2,226.8 127.3,230.8 108.4,219.9 115.4,215.9 		"/>
		<polygon class="st5 keyspoly" points="211.8,228.6 204.8,232.6 196.1,227.6 203,223.6 		"/>
		<polygon class="st5 keyspoly" points="171.1,228.8 164.2,232.8 155.5,227.8 162.4,223.7 		"/>
		<polygon class="st5 keyspoly" points="189.6,229.8 182.6,233.8 173.9,228.8 180.9,224.7 		"/>
		<polygon class="st5 keyspoly" points="125.9,231.6 118.9,235.7 90,218.9 96.9,214.9 		"/>
		<polygon class="st5 keyspoly" points="162.8,233.6 155.9,237.6 147.1,232.6 154.1,228.6 		"/>
		<polygon class="st5 keyspoly" points="181.3,234.6 174.3,238.6 165.6,233.6 172.5,229.6 		"/>
		<polygon class="st5 keyspoly" points="199.7,235.6 192.8,239.6 184,234.6 191,230.6 		"/>
		<polygon class="st5 keyspoly" points="117.5,236.5 110.6,240.5 101.9,235.5 108.8,231.4 		"/>
		<polygon class="st5 keyspoly" points="154.5,238.5 147.5,242.5 138.8,237.4 145.7,233.4 		"/>
		<polygon class="st5 keyspoly" points="172.9,239.4 166,243.5 157.2,238.4 164.2,234.4 		"/>
		<polygon class="st5 keyspoly" points="191.4,240.4 184.4,244.5 175.7,239.4 182.6,235.4 		"/>
		<polygon class="st5 keyspoly" points="146.1,243.3 139.2,247.3 130.4,242.3 137.4,238.3 		"/>
		<polygon class="st5 keyspoly" points="164.6,244.3 157.6,248.3 148.9,243.3 155.8,239.3 		"/>
		<polygon class="st5 keyspoly" points="183,245.3 176.1,249.3 167.4,244.3 174.3,240.2 		"/>
		<polygon class="st5 keyspoly" points="137.8,248.2 130.8,252.2 122.1,247.1 129,243.1 		"/>
		<polygon class="st5 keyspoly" points="156.2,249.1 149.3,253.2 140.6,248.1 147.5,244.1 		"/>
		<polygon class="st5 keyspoly" points="174.7,250.1 167.8,254.2 159,249.1 166,245.1 		"/>
		<polygon class="st5 keyspoly" points="147.9,254 140.9,258 132.2,253 139.2,248.9 		"/>
		<polygon class="st5 keyspoly" points="166.4,255 159.4,259 150.7,254 157.6,249.9 		"/>
		<polygon class="st5 keyspoly" points="158,259.8 151.1,263.9 142.3,258.8 149.3,254.8 		"/>
		<polygon class="st5 keyspoly" points="70,170.4 63,174.4 54.3,169.3 61.2,165.3 		"/>
		<polygon class="st5 keyspoly" points="88.4,171.4 81.5,175.4 72.7,170.3 79.7,166.3 		"/>
		<polygon class="st5 keyspoly" points="120.7,176 113.8,180.1 105,175 112,171 		"/>
		<polygon class="st5 keyspoly" points="71.7,181 64.8,185.1 56.1,180 63,176 		"/>
		<polygon class="st5 keyspoly" points="130.8,181.9 123.9,185.9 115.2,180.9 122.1,176.8 		"/>
		<polygon class="st5 keyspoly" points="90.2,182 83.3,186.1 74.5,181 81.5,177 		"/>
		<polygon class="st5 keyspoly" points="44.9,184.9 38,188.9 29.3,183.9 36.2,179.9 		"/>
		<polygon class="st5 keyspoly" points="63.4,185.9 56.5,189.9 37.6,179 44.6,175 		"/>
		<polygon class="st5 keyspoly" points="81.9,186.9 74.9,190.9 66.2,185.9 73.1,181.8 		"/>
		<polygon class="st5 keyspoly" points="118.8,188.9 111.8,192.9 103.1,187.9 110,183.8 		"/>
		<polygon class="st5 keyspoly" points="36.6,189.7 29.7,193.8 20.9,188.7 27.9,184.7 		"/>
		<polygon class="st5 keyspoly" points="55.1,190.7 48.1,194.8 39.4,189.7 46.3,185.7 		"/>
		<polygon class="st5 keyspoly" points="73.5,191.7 66.6,195.8 57.8,190.7 64.8,186.7 		"/>
		<polygon class="st5 keyspoly" points="110.4,193.7 103.5,197.8 94.8,192.7 101.7,188.7 		"/>
		<polygon class="st5 keyspoly" points="46.7,195.6 39.8,199.6 31,194.6 38,190.5 		"/>
		<polygon class="st5 keyspoly" points="65.2,196.6 58.2,200.6 49.5,195.6 56.4,191.5 		"/>
		<polygon class="st5 keyspoly" points="83.6,197.6 76.7,201.6 68,196.6 74.9,192.5 		"/>
		<polygon class="st5 keyspoly" points="75.3,202.4 68.4,206.5 59.6,201.4 66.6,197.4 		"/>
		<polygon class="st5 keyspoly" points="85.4,208.3 78.5,212.3 69.7,207.3 76.7,203.2 		"/>
		<polygon class="st5 keyspoly" points="103.9,209.3 96.9,213.3 88.2,208.2 95.1,204.2 		"/>
		<polygon class="st5 keyspoly" points="114,215.1 107.1,219.1 98.3,214.1 105.3,210.1 		"/>
		<polygon class="st5 keyspoly" points="97.3,224.8 90.4,228.8 41.2,200.4 48.1,196.4 		"/>
		<polygon class="st5 keyspoly" points="107.4,230.6 100.5,234.7 91.8,229.6 98.7,225.6 		"/>
		<path class="st8" d="M164.6,80.4c0.9,0.5,1.6,0.1,1.6-0.9c-0.1-1.1-0.6-2.1-1.6-2.7c-0.9-0.5-1.6-0.1-1.6,0.9
			C163.1,78.8,163.7,79.8,164.6,80.4z"/>
		<polygon class="st15" points="237.7,298.6 268.2,291.4 276.3,295 327.9,265.4 237.7,213.6 		"/>
		
		<polygon class="st17" points="233.6,279.8 191.7,255.6 191.7,235 233.6,259.2 		"/>
		<polygon class="st18" points="237.7,257.2 188.1,228.6 188.1,224.3 237.7,252.9 		"/>
		
		<path class="st19" d="M266.6,236.6c10.2-5.9,20.4-11.8,30.6-17.8c0-3.9,0-7.9,0-11.8c-10.2,5.9-20.4,11.9-30.6,17.8
			C266.5,228.8,266.6,232.7,266.6,236.6z"/>
		
		
		<path class="st22" d="M207.8,189.9c10-5.6,20-11.3,30-16.9l59.5,34.1c-10.1,5.8-20.2,11.7-30.3,17.5
			C247.3,213.1,227.6,201.5,207.8,189.9z"/>
		<polygon class="st23" points="261.3,219.3 258.2,221.1 213.5,195.3 216.7,193.5 		"/>
		
		<path id="voteShadow" class="st24" d="M255.9,219.3l2.1-1.5c9.7-6.9,20.7-11.9,32.3-14.7l0,0l-38.5-22l-32.8,15.4L255.9,219.3z"/>
		<g id="vote">
			<defs>
				<polygon id="SVGID_1_" points="282.8,148.6 258.3,220.6 215.9,196.2 199.5,125.1 				"/>
			</defs>
			<clipPath id="SVGID_2_">
				<use xlink:href="#SVGID_1_"  style="overflow:visible;"/>
			</clipPath>
			<g class="st25">
				<path class="st26" d="M244.1,202.6c-0.6,5.4-0.6,10.8,0,16.2c-4.1-3.5-8.2-6.7-12.6-9.9c-0.6-4.9-0.6-9.9,0-14.8
					C235.9,196.6,240.1,199.5,244.1,202.6z"/>
				<g id="vote">
					<path class="st27" d="M230.1,191.2c5.5,3.1,10.7,6.5,15.7,10.4c-0.9,6.8-0.8,13.7,0.1,20.6c-5-4.5-10.2-8.7-15.7-12.6
						C229.4,203.5,229.4,197.3,230.1,191.2z M244.1,218.7c-0.6-5.4-0.6-10.8,0-16.2c-4-3.1-8.2-5.9-12.6-8.5
						c-0.5,4.9-0.5,9.9,0,14.8C235.9,212,240.1,215.3,244.1,218.7"/>
					<path class="st26" d="M236.2,174c0.6-1.8,2.1-3,3.8-3.1c1.7-0.2,2.9,0.8,3.2,1c2.4,1.1,4.9,2.2,7.3,3.3l0,0
						c-0.3,1.5-0.6,3-0.9,4.5c-0.7,1.7-1.3,3.5-1.9,5.5c-0.6,1.9-1.1,3.8-1.5,5.7c-4.1-2.8-8.3-5.3-12.8-7.6
						C234.1,180.2,235,177,236.2,174z"/>
					<path class="st26" d="M242.9,177.7c-1-2.6-1.6-3.8-2.6-6.2c-0.6,0.3-1.3,0.7-2,1.1c-1,0.6-1.8,1.1-2.6,1.7
						c0.5-1.1,0.9-2.2,1.4-3.4c0.4-0.9,0.8-1.9,1.1-2.8c2,0.9,4,1.9,6.1,2.9c1.9,0.9,3.8,1.9,5.6,2.9c1.6,0.6,2.4,1.2,2.4,1.7
						C252.2,176.4,249.1,177.1,242.9,177.7z"/>
					<path class="st28" d="M230,150.9c14.8,3.9,28.7,8.8,41.7,16.2c-15.4,26.8-19.2,52.4-12,78.7c-11.7-12.8-24.3-24.1-38.8-33.7
						C215.2,191.5,218.3,172.1,230,150.9z M251.6,177.9L251.6,177.9c0.3-0.9,0.6-1.7,0.9-2.6l0,0l1.2-2l0,0l0,0
						c-2.7-1.5-5.6-2.9-8.7-4.4c-2.5-1.2-5-2.3-7.4-3.2c-2.8,6-4.9,12.2-6.3,18.7c2.6,1.3,5.3,2.8,8.1,4.5c2.8,1.7,5.4,3.4,7.7,5.1
						C248.6,188.7,250.1,183.3,251.6,177.9z M245.9,222.1c-0.9-6.8-0.9-13.7-0.1-20.6c-5-3.8-10.2-7.3-15.7-10.4
						c-0.8,6.1-0.7,12.3,0.1,18.4C235.7,213.5,240.9,217.7,245.9,222.1"/>
					<path class="st27" d="M253.7,173.3l-1.2,2c-2.5-1.5-5.2-3-8.3-4.5c-2-1-3.9-1.8-5.8-2.5c-0.9,2.1-1.3,3.1-2.1,5.2l-0.3,0.1
						l0.1,0.3c-1.2,3.1-2.1,6.2-2.8,9.4c4.4,2.2,8.7,4.8,12.8,7.6c0.5-1.9,1-3.8,1.5-5.7c1-3.7,2-7.3,3-11c0.6,0.4,1.2,0.7,1.8,1.1
						c-1.1,3.4-2.2,7-3.3,10.7c-0.8,2.7-1.5,5.4-2.1,8c-5-3.6-10.3-6.8-15.8-9.6c1.4-6.4,3.5-12.7,6.3-18.7c2.4,1,4.9,2,7.4,3.2
						C248.1,170.4,251,171.9,253.7,173.3z"/>
					<path id="polycheck" class="st29" d="M258.3,169.1c0.5,1.9,0.7,2.9,1.2,4.9c-3.1,1.7-4.6,2.6-7.5,4.2c-1,0.6-1.5,0.8-2.4,1.4
						c-3.6,2.1-5.3,3-8.5,5c-2-4.5-2.9-6.6-4.9-10.7l-0.1-0.3l0.3-0.1c1.5-0.8,2.3-1.3,3.9-2.1c1,2.4,1.6,3.7,2.6,6.2
						c2.7-1.5,4.1-2.3,7-3.9c0.9-0.5,1.4-0.8,2.4-1.3C254.6,171.1,255.8,170.5,258.3,169.1z"/>
				</g>
				<polygon class="st30" points="218.2,196.2 256.1,217.7 256.2,219.4 218.3,197.5 				"/>
			</g>
		</g>
        
        <polygon class="st16" points="237.7,298.6 188.1,270 188.1,224.3 237.7,252.9 		"/>
        <polygon class="st16" points="237.7,252.9 178.2,218.6 178.2,207.2 237.7,241.4 		"/>
        <polygon class="st21" points="287.2,240.5 287.2,224.3 237.7,252.9 237.7,257.2 244.8,265.3 		"/>
        <polygon class="st20" points="287.2,270.2 287.2,224.3 237.7,252.9 237.7,298.6 		"/>
        
        <path class="st19" d="M237.7,253.4c9.7-5.6,19.4-11.3,29.2-16.9c0-3.9,0-7.8-0.1-11.7c-9.7,5.5-19.4,11.1-29.1,16.6
			C237.7,245.4,237.7,249.4,237.7,253.4z"/>
        
		<polygon class="st31" points="203.9,246.8 201.1,257.1 197.8,255.1 195.1,241.7 197.3,243 199.5,253.6 201.7,245.5 		"/>
		<path class="st31" d="M209.4,250c1.9,1,3,3,2.9,5.1l0,5.1c0,2.3-1,2.8-3,1.7l-1.8-1.1c-1.9-1-3-3-2.9-5.1l0-5.1
			c0-2.3,1-2.8,2.9-1.7L209.4,250z M210.1,258.9l0-5.1c0-0.5-0.3-1-0.7-1.3l-1.8-1.1c-0.5-0.3-0.7-0.1-0.7,0.4l0,5.1
			c0,0.5,0.3,1,0.7,1.3l1.8,1.1C209.9,259.6,210.1,259.4,210.1,258.9"/>
		<polygon class="st31" points="221.2,256.8 221.2,259.3 218.6,257.8 218.6,267.1 216.4,265.8 216.4,256.6 213.8,255.1 213.8,252.5 
					"/>
		<polygon class="st31" points="229.2,261.4 229.2,264 224.8,261.4 224.8,263.5 229.2,266.1 229.2,268.6 224.8,266.1 224.8,268.2 
			229.2,270.7 229.2,273.3 222.6,269.5 222.6,257.6 		"/>
		<path class="st3" d="M370.3,250.4l-36.9,21.4c-2.9,1.5-6.4,1.5-9.4,0l-25.2-14.6c-1.1-0.5-1.8-1.5-2-2.7l0,2.6
			c0.1,1.2,0.9,2.2,2,2.7l25.2,14.6c2.9,1.5,6.4,1.5,9.4,0l36.9-21.4c1.1-0.5,1.8-1.5,1.9-2.7l0-2.6
			C372.1,248.8,371.3,249.9,370.3,250.4z"/>
		<path class="st6" d="M370.3,247.8l-36.9,21.4c-2.9,1.5-6.4,1.5-9.4,0l-25.2-14.6c-1.1-0.5-1.8-1.5-2-2.7l0,2.6
			c0.1,1.2,0.9,2.2,2,2.7l25.2,14.6c2.9,1.5,6.4,1.5,9.4,0l36.9-21.4c1.1-0.5,1.8-1.5,1.9-2.7l0-2.6
			C372.1,246.3,371.4,247.4,370.3,247.8z"/>
		<path class="st12" d="M370.3,242.4c2.6,1.5,2.6,3.9,0,5.4l-36.9,21.4c-2.9,1.5-6.4,1.5-9.4,0l-25.2-14.6c-2.6-1.5-2.6-3.9,0-5.4
			l36.9-21.4c2.9-1.5,6.4-1.5,9.4,0L370.3,242.4z"/>
		<polygon class="st5" points="367.2,244.9 339.9,229.2 333.4,232.9 360.7,248.6 		"/>
		<polygon class="st5" points="328.2,243 322.1,239.5 328.2,236 334.3,239.5 		"/>
		<polygon class="st5" points="321,247.2 314.9,243.6 321,240.1 327.1,243.6 		"/>
		<polygon class="st5" points="313.9,251.2 307.8,247.7 313.9,244.2 320,247.7 		"/>
		<polygon class="st5" points="306.9,255.3 300.8,251.8 306.9,248.3 313,251.8 		"/>
		<polygon class="st5" points="335.3,247.1 329.2,243.6 335.3,240.1 341.4,243.6 		"/>
		<polygon class="st5" points="328.1,251.3 322,247.8 328.1,244.2 334.2,247.8 		"/>
		<polygon class="st5" points="321.1,255.3 315,251.8 321.1,248.3 327.2,251.8 		"/>
		<polygon class="st5" points="314,259.4 307.9,255.9 314,252.4 320.1,255.9 		"/>
		<polygon class="st5" points="342.3,251.2 336.2,247.6 342.3,244.1 348.4,247.6 		"/>
		<polygon class="st5" points="335.1,255.3 329,251.8 335.1,248.3 341.2,251.8 		"/>
		<polygon class="st5" points="328,259.4 322,255.9 328,252.3 334.1,255.9 		"/>
		<polygon class="st5" points="321,263.5 314.9,259.9 321,256.4 327.1,259.9 		"/>
		<polygon class="st32" points="349.3,255.2 343.2,251.7 349.3,248.2 355.4,251.7 		"/>
		<polygon class="st5" points="342.1,259.4 336,255.8 342.1,252.3 348.2,255.8 		"/>
		<polygon class="st5" points="335.1,263.4 329,259.9 335.1,256.4 341.2,259.9 		"/>
		<polygon class="st5" points="328,267.5 321.9,264 328,260.5 334.1,264 		"/>
		<polygon class="st12" points="332.1,215.7 317.3,207.1 337.9,195.3 352.7,203.8 		"/>
		<polygon class="st12" points="310.5,203.6 295.7,195.1 316.3,183.2 331.1,191.8 		"/>
	</g>
</g>
<path class="st33" d="M293.8,232"/>
<path class="st22" d="M178.2,207.1c9.9-5.7,19.8-11.5,29.6-17.2c19.7,11.6,39.4,23.1,59.2,34.7c-9.8,5.6-19.6,11.2-29.4,16.8
	L178.2,207.1z"/>
<path class="st23" d="M259.8,220.2c-0.5,0.3-1,0.6-1.6,0.9l-44.7-25.8c0.6-0.4,1.3-0.7,1.9-1.1C230.2,202.9,245,211.5,259.8,220.2z"
	/>
</svg>
