<svg xmlns="http://www.w3.org/2000/svg" viewBox="0 0 81.47 79.13"><defs><style>.cls-1{fill:#ffffff;}</style></defs><title>processing</title><g id="Layer_2" data-name="Layer 2"><g id="Layer_1-2" data-name="Layer 1"><path class="cls-1" d="M61.2,38.6l-.42,0V12.68C60.78,5.57,47.43,0,30.39,0S0,5.57,0,12.68V62.29C0,69.4,13.35,75,30.39,75a66.13,66.13,0,0,0,16.3-1.92l0,0A20.26,20.26,0,1,0,61.2,38.6ZM30.39,2c17,0,28.39,5.52,28.39,10.68S47.37,23.37,30.39,23.37,2,17.84,2,12.68,13.41,2,30.39,2ZM2,17.29c4.33,4.77,15.26,8.08,28.39,8.08s24.06-3.31,28.39-8.08V29.22c0,5.16-11.4,10.68-28.39,10.68S2,34.38,2,29.22ZM2,33.82c4.33,4.77,15.26,8.08,28.39,8.08s24.06-3.31,28.39-8.08v5A20.25,20.25,0,0,0,41.22,55.6a68.71,68.71,0,0,1-10.83.84C13.41,56.44,2,50.91,2,45.75ZM30.39,73C13.41,73,2,67.45,2,62.29V50.36c4.33,4.77,15.26,8.08,28.39,8.08A71.1,71.1,0,0,0,41,57.66c0,.4,0,.81,0,1.21a20.16,20.16,0,0,0,4.32,12.47A65.65,65.65,0,0,1,30.39,73ZM61.2,77.13A18.28,18.28,0,0,1,42.94,58.87a17.19,17.19,0,0,1,.14-2.27A18.27,18.27,0,1,1,61.2,77.13Zm2-8.4a10.06,10.06,0,0,1-8.43-17.64l-.27,1.83a1,1,0,0,0,.84,1.14h.15a1,1,0,0,0,1-.86l.57-3.81a1,1,0,0,0-.18-.74,1,1,0,0,0-.66-.4l-3.82-.56a1,1,0,0,0-1.13.84,1,1,0,0,0,.84,1.14l1.06.15a12.07,12.07,0,0,0,8,21.12,12.44,12.44,0,0,0,2.48-.26,1,1,0,0,0-.41-2Zm9.18-14.32a12,12,0,0,0-13.68-7.36A1,1,0,0,0,58,48.23a1,1,0,0,0,1.18.78A10.07,10.07,0,0,1,68,66.34l.25-1.66a1,1,0,1,0-2-.29l-.57,3.81a1,1,0,0,0,.84,1.14l3.82.56h.15a1,1,0,0,0,.14-2l-1.23-.19A12,12,0,0,0,72.43,54.41Z"/></g></g></svg>