<svg id="Layer_1" data-name="Layer 1" xmlns="http://www.w3.org/2000/svg" viewBox="0 0 436 406.1468">
    <defs>
        <style>
            .cls-1 {
                fill: #f59600;
            }
            
            .cls-2 {
                fill: #dc6500;
            }
            
            .cls-3 {
                fill: #006bd6;
            }
            
            .cls-4 {
                fill: #f0f0f0;
            }
            
            .cls-5 {
                fill: #e9e9e9;
            }
            
            .cls-6 {
                fill: #0090ef;
            }
            
            .cls-7 {
                fill: #ffba37;
            }
        </style>
    </defs>
    <title>quality</title>
    <g id="band1">
        <polygon class="cls-1" points="307.831 155.405 307.831 229.174 436 161.285 397.65 144.714 436 87.517 307.831 155.405" />
        <polygon class="cls-1" points="38.35 335.028 0 392.225 128.168 324.337 128.168 250.569 0 318.457 38.35 335.028" />
        <polygon class="cls-2" points="307.831 229.174 391.663 248.988 391.663 175.22 307.831 155.405 307.831 229.174" />
        <polygon class="cls-2" points="94.958 406.147 128.168 328.358 128.168 250.569 94.958 332.378 94.958 406.147" />
    </g>    
    <g id="dhal">
        <path class="cls-3" d="M250.68273,62.1612S196.18665,142.3441,125.0381,180.0296c0,0-9.083,78.5794,5.298,133.5055,14.38135,54.925,120.48707,83.8394,120.48707,83.8394s105.82613-141.1709,120.208-211.3306C380.706,138.8406,411.148,65.7186,411.148,65.7186l-34.81939-18.792C305.18044,84.6121,250.68273,62.1612,250.68273,62.1612Z" transform="translate(-50 -46.9266)" />
        <path class="cls-4" d="M285.50267,97.4093l-18.8243,227.2356,18.8243,66.259c32.14453-41.1437,98.47387-133.5512,108.57958-182.8734,10.50226-51.2357,7.89433-102.7001,6.091-124.0392C345.85335,109.0923,302.73361,102.0762,285.50267,97.4093Z" transform="translate(-50 -46.9266)" />
        <path class="cls-5" d="M170.83216,205.4686c-1.80384,23.2496-4.41177,77.4766,6.09049,117.5871,10.09372,38.5595,76.435,60.7387,108.58,67.8482V97.4093C268.27129,120.3304,225.15155,173.0255,170.83216,205.4686Z" transform="translate(-50 -46.9266)" />
        <path class="cls-6" d="M285.50223,80.9532s-54.49716,80.1829-125.64571,117.8689c0,0-9.083,78.5794,5.29838,133.505,14.3808,54.925,120.34733,74.169,120.34733,74.169s105.96587-131.5,120.34723-201.6602S411.148,65.7186,411.148,65.7186C339.99886,103.4046,285.50223,80.9532,285.50223,80.9532Zm96.81434,130.2751c-7.84919,38.2925-58.90785,114.3473-96.8248,163.9027-37.89974-9.3486-88.93452-31.2845-96.80453-61.3413-8.691-33.1951-8.00453-76.7738-6.53368-102.5552,45.96552-30.2294,83.2603-72.6309,103.34867-98.0284,20.08772,4.1171,57.38251,7.0103,103.34868-11.4546C390.3211,125.9809,391.00714,168.8301,382.31657,211.2283Z" transform="translate(-50 -46.9266)" />
    </g>    
    <polygon id="band2" class="cls-7" points="94.958 406.147 391.663 248.988 391.663 175.22 94.958 332.378 94.958 406.147" />

</svg>