<svg xmlns="http://www.w3.org/2000/svg" viewBox="0 0 697.34228 569.24493">
    <defs>
        <style>
            .cls-1 {
                isolation: isolate;
            }
            
            .cls-2 {
                fill: #f0f0f0;
            }
            
            .cls-3 {
                fill: #8bcc34;
            }
            
            .cls-4 {
                fill: #4b9c29;
            }
            
            .cls-42,
            .cls-5,
            .cls-8 {
                fill: #47881e;
            }
            
            .cls-6 {
                fill: #97dc4c;
            }
            
            .cls-7 {
                fill: #62a932;
            }
            
            .cls-8 {
                opacity: 0.4;
            }
            
            .cls-9 {
                fill: #798285;
            }
            
            .cls-12,
            .cls-13,
            .cls-18,
            .cls-29,
            .cls-32,
            .cls-33,
            .cls-36,
            .cls-9 {
                mix-blend-mode: multiply;
            }
            
            .cls-10 {
                fill: #edf0f1;
            }
            
            .cls-11 {
                fill: #78fbef;
            }
            
            .cls-12 {
                fill: #4cd9eb;
            }
            
            .cls-13 {
                fill: #4cc5eb;
            }
            
            .cls-14 {
                fill: #7c5b25;
            }
            
            .cls-15 {
                fill: #5da405;
            }
            
            .cls-16 {
                fill: #497e05;
            }
            
            .cls-17,
            .cls-30,
            .cls-34 {
                fill: #fff;
            }
            
            .cls-18 {
                fill: #7b8487;
                opacity: 0.55;
            }
            
            .cls-19 {
                fill: #bdbdbd;
            }
            
            .cls-20 {
                fill: #666;
            }
            
            .cls-21 {
                fill: #ebeced;
            }
            
            .cls-22 {
                fill: #e7e9e9;
                opacity: 0.5;
            }
            
            .cls-23,
            .cls-32,
            .cls-35 {
                fill: #0d1011;
            }
            
            .cls-24 {
                fill: #959595;
            }
            
            .cls-25 {
                fill: #7c7c7c;
            }
            
            .cls-26 {
                fill: #c1c5c6;
            }
            
            .cls-27 {
                fill: #909084;
            }
            
            .cls-28 {
                fill: #169cab;
            }
            
            .cls-29,
            .cls-33 {
                fill: #127d89;
            }
            
            .cls-29 {
                opacity: 0.7;
            }
            
            .cls-30 {
                opacity: 0.12;
            }
            
            .cls-31 {
                fill: #551ead;
            }
            
            .cls-32 {
                opacity: 0.42;
            }
            
            .cls-33 {
                opacity: 0.56;
            }
            
            .cls-34 {
                opacity: 0.59;
            }
            
            .cls-35 {
                opacity: 0.39;
            }
            
            .cls-36 {
                fill: #005b00;
                opacity: 0.35;
            }
            
            .cls-37 {
                fill: #3d7405;
            }
            
            .cls-38 {
                fill: #5da705;
            }
            
            .cls-39 {
                fill: #653e25;
            }
            
            .cls-40 {
                fill: #68b305;
            }
            
            .cls-41 {
                fill: #498b05;
            }
            
            .cls-42 {
                opacity: 0.75;
            }
            
            .cls-43 {
                fill: #90979a;
            }
            
            .cls-44 {
                fill: #cdd0d1;
            }
            
            .cls-45 {
                fill: #8235ff;
            }
            
            .cls-46 {
                fill: #485458;
            }
            
            .cls-47 {
                fill: #848686;
            }
            
            .cls-48 {
                fill: #5d9721;
            }
        </style>
    </defs>
    <title>realstate</title>
    <g class="cls-1">
        <g id="Layer_1" data-name="Layer 1">
            <polygon class="cls-2" points="8 432.774 233.611 293.021 448.668 427.129 224.033 566.166 8 432.774" />
            <polygon class="cls-2" points="242 432.774 467.611 293.021 682.668 427.129 458.033 566.166 242 432.774" />
            <polygon class="cls-3" points="0 338.05 357.022 116.895 697.342 329.116 341.865 549.137 0 338.05" />
            <polygon class="cls-4" points="341.841 569.245 697.342 349.224 697.342 329.116 341.865 549.137 341.841 569.245" />
            <polygon class="cls-5" points="341.841 569.245 0 358.159 0 338.05 341.865 549.137 341.841 569.245" />
            <polygon class="cls-5" points="657.907 306.866 378.569 133.808 378.569 164.171 657.907 337.224 657.907 306.866" />
            <path class="cls-6" d="M425.90039,218.56343,705.22558,391.6119h0l12.1035-7.49539L437.959,211.036Z" transform="translate(-47.3315 -84.75507)" />
            <polygon class="cls-7" points="669.994 299.364 657.894 306.857 657.881 337.217 669.994 329.716 669.994 299.364" />
            <polygon class="cls-8" points="112.853 298.091 241.56 218.477 476.539 365.009 348.899 443.84 112.853 298.091" />
            <polygon class="cls-9" points="354.751 423.156 259.673 364.295 259.685 366.76 354.693 425.632 449.951 366.435 449.953 364.004 354.751 423.156" />
            <polygon class="cls-10" points="353.966 305.707 259.685 364.344 354.693 423.219 449.951 364.021 354.907 305.124 353.966 305.707" />
            
            <polygon class="cls-11" points="445.282 364.025 354.909 308.019 264.351 364.34 354.691 420.322 445.282 364.025"/>
            
            <polygon class="cls-12" points="354.909 317.148 437.927 368.598 445.282 364.025 354.909 308.019 264.351 364.34 271.703 368.894 354.909 317.148" />
            <polygon class="cls-13" points="355.028 310.631 443.24 365.297 445.282 364.025 354.909 308.019 264.351 364.34 266.514 365.678 355.028 310.631" />
            <g id="tree1">
                <path class="cls-14" d="M143.1631,392.84713a2.126,2.126,0,0,1-1.8721,2.30825h0a2.12527,2.12527,0,0,1-1.8701-2.30825V187.1279a2.1249,2.1249,0,0,1,1.8701-2.3136h0a2.12563,2.12563,0,0,1,1.8721,2.3136Z" transform="translate(-47.3315 -84.75507)" />
                <path class="cls-15" d="M168.562,174.3447c5.2637,17.44454-2.6885,37.46667-17.7617,44.71424-15.0679,7.24993-31.5557-1.01974-36.8213-18.46243-5.2583-17.43786,2.6919-37.45557,17.7622-44.70844C146.8145,148.63913,163.2993,156.90536,168.562,174.3447Z" transform="translate(-47.3315 -84.75507)" />
                <path class="cls-16" d="M153.5571,211.31163c-15.0674,7.25042-31.5551-1.01915-36.8203-18.46144a39.68642,39.68642,0,0,1-.435-20.84869,40.20356,40.20356,0,0,0-2.3228,28.595c5.2656,17.44269,21.7534,25.71236,36.8213,18.46243,9.1401-4.39459,15.6553-13.48983,18.1992-23.8569A33.63779,33.63779,0,0,1,153.5571,211.31163Z" transform="translate(-47.3315 -84.75507)" />
            </g>
            <g id="tree2">
                <path class="cls-14" d="M127.457,382.6429a2.01222,2.01222,0,0,1-1.7734,2.18522h0a2.01123,2.01123,0,0,1-1.773-2.18522V245.90851a2.014,2.014,0,0,1,1.773-2.1936h0a2.015,2.015,0,0,1,1.7734,2.1936Z" transform="translate(-47.3315 -84.75507)" />
                <path class="cls-15" d="M141.3945,251.7888c3.4805,9.93633-.5991,21.68547-9.1113,26.23844-8.5098,4.55-18.2339.18533-21.7158-9.74915-3.47756-9.93162.6006-21.67789,9.1108-26.23323C128.1914,237.491,137.9141,241.85579,141.3945,251.7888Z" transform="translate(-47.3315 -84.75507)" />
                <path class="cls-16" d="M133.6772,273.48773c-8.5102,4.553-18.2343.1872-21.7158-9.74679a22.92149,22.92149,0,0,1-.7807-12.0189,23.202,23.202,0,0,0-.6133,16.55605c3.4819,9.93448,13.206,14.29917,21.7158,9.74915,5.1616-2.7633,8.6899-8.16978,9.894-14.21423A19.39133,19.39133,0,0,1,133.6772,273.48773Z" transform="translate(-47.3315 -84.75507)" />
            </g>  
            <g id="tree3">
                <path class="cls-14" d="M159.5469,403.99012a2.13743,2.13743,0,0,1-1.8819,2.319h0a2.13663,2.13663,0,0,1-1.8803-2.319V250.33922a2.13543,2.13543,0,0,1,1.8803-2.32519h0a2.13622,2.13622,0,0,1,1.8819,2.32519Z" transform="translate(-47.3315 -84.75507)" />
                <path class="cls-15" d="M178.2476,238.51163c3.9746,13.1701-2.0293,28.2859-13.4087,33.75766-11.375,5.47185-23.8228-.77141-27.7974-13.93865-3.9707-13.16431,2.0317-28.27677,13.4097-33.75245C161.8306,219.10446,174.2754,225.34634,178.2476,238.51163Z" transform="translate(-47.3315 -84.75507)" />
                <path class="cls-16" d="M166.9204,266.4197c-11.375,5.47372-23.8223-.769-27.7969-13.93629a29.96976,29.96976,0,0,1-.3291-15.7413,30.358,30.358,0,0,0-1.7529,21.58853c3.9746,13.16724,16.4224,19.4105,27.7974,13.93865,6.8999-3.31861,11.8188-10.18549,13.7392-18.01106A25.38655,25.38655,0,0,1,166.9204,266.4197Z" transform="translate(-47.3315 -84.75507)" />
            </g>    
            <polygon class="cls-17" points="541.756 409.752 625.296 357.833 384.39 208.508 300.885 260.446 541.756 409.752" />
            
            <path class="cls-19" d="M672.709,442.56292l-71.68071-44.43173h0l-.0234-.01459-128.5264-79.66682h0l-.039-.02534-.2852-.17556h-.001l-.0752-.04646-83.5063,51.93687.0659.03978,61.8662,38.34933h0l.0772.04942,66.8925,41.46244.0479.03014h0l71.6484,44.41122,22.0469-13.70208,61.0693-37.98249.0244.01446Zm-72.48051-44.43173-82.6963,51.43362-66.2148-41.0437,82.6943-51.43364ZM389.38479,370.132l82.6933-51.43425,61.5332,38.14114L450.917,408.27264Zm199.8056,123.84773-71.2558-44.16632,82.6943-51.43375,71.2578,44.16879Z" transform="translate(-47.3315 -84.75507)" />
            
            <g id="house">
                <polygon class="cls-18" points="424.732 233.502 384.39 208.508 300.885 260.446 341.194 285.416 424.732 233.502" />
                <polygon class="cls-20" points="131.676 282.195 131.676 289.307 253.519 363.079 253.519 355.964 131.676 282.195" />
                <polygon class="cls-20" points="359.628 289.916 253.519 355.964 253.519 363.079 359.628 297.026 359.628 289.916" />
                <polygon class="cls-21" points="359.628 289.916 253.519 355.964 131.676 282.216 237.8 216.166 359.628 289.916" />
                <polygon class="cls-22" points="335.229 62.395 423.615 116.772 423.615 149.579 335.229 95.203 335.229 62.395" />
                <polygon class="cls-23" points="327.569 90.122 423.867 148.854 423.867 160.892 327.569 102.163 327.569 90.122" />
                <polygon class="cls-24" points="327.592 100.932 415.976 155.308 415.976 239.013 327.592 184.632 327.592 100.932" />
                <polygon class="cls-25" points="383.494 171.711 309.654 217.328 309.654 264.741 383.494 219.126 383.494 171.711" />
                <polygon class="cls-25" points="159.699 117.067 247.985 171.676 248.002 339.733 159.699 285.356 159.699 117.067" />
                <polygon class="cls-26" points="415.957 166.656 415.957 239.013 423.867 234.125 423.867 161.77 415.957 166.656" />
                <polygon class="cls-26" points="423.867 158.398 267.826 252.862 267.826 268.223 423.867 173.758 423.867 158.398" />
                <polygon class="cls-21" points="335.126 8.245 159.699 117.067 247.985 171.676 423.635 63.175 335.126 8.245" />
                <polygon class="cls-26" points="247.985 171.676 248.002 339.733 321.841 294.116 321.841 214.886 383.494 176.8 383.524 101.785 423.635 76.859 423.635 63.175 247.985 171.676" />
                <polygon class="cls-27" points="286.396 160.58 267.438 172.295 267.454 324.453 286.396 312.751 286.396 160.58" />
                <polygon points="283.074 229.919 283.074 170.801 270.285 178.708 270.285 237.827 283.074 229.919" />
                <path class="cls-28" d="M318.84419,264.39838v55.725c2.4751-1.53171,9.2915-5.7415,10.3301-6.38769V258.0155C326.70459,259.54005,319.88379,263.75416,318.84419,264.39838Z" transform="translate(-47.3315 -84.75507)" />
                <path d="M330.03169,297.87727v-1.478l-12.249,7.5689v1.48057C320.19479,303.95682,326.74759,299.90741,330.03169,297.87727Z" transform="translate(-47.3315 -84.75507)" />
                <path class="cls-29" d="M318.84419,264.39838v2.68116c2.4917-1.54086,5.857-3.61746,7.44581-4.60084V315.519c1.39119-.85674,2.51319-1.55236,2.88429-1.7834V258.0155C326.70459,259.54005,319.88379,263.75416,318.84419,264.39838Z" transform="translate(-47.3315 -84.75507)" />
                <path class="cls-30" d="M324.25979,261.05076l-5.4156,14.93591v4.72563l7.6841-21.06056C325.80419,260.09752,325.03029,260.57532,324.25979,261.05076ZM318.84419,287.55v12.212l10.3301-28.305V259.24992Zm7.4092,27.99313,2.9209-8.01121V295.32238l-8.6792,23.77965C322.20309,318.04983,324.45069,316.65859,326.25339,315.54312Z" transform="translate(-47.3315 -84.75507)" />
                <polygon points="283.074 309.914 283.074 250.796 270.285 258.704 270.285 317.82 283.074 309.914" />
                <path class="cls-28" d="M318.84419,344.39288v55.72076c2.4751-1.52517,9.2915-5.741,10.3301-6.38412V338.00814C326.70459,339.53566,319.88379,343.75039,318.84419,344.39288Z" transform="translate(-47.3315 -84.75507)" />
                <path d="M330.03169,377.87239v-1.47811l-12.249,7.56778v1.47935C320.19479,383.95244,326.74759,379.90191,330.03169,377.87239Z" transform="translate(-47.3315 -84.75507)" />
                <path class="cls-29" d="M318.84419,344.39288v2.6798c2.4917-1.53777,5.857-3.618,7.44581-4.60072v53.04566c1.39119-.8639,2.51319-1.55532,2.88429-1.7881V338.00814C326.70459,339.53566,319.88379,343.75039,318.84419,344.39288Z" transform="translate(-47.3315 -84.75507)" />
                <path class="cls-30" d="M324.25979,341.04638l-5.4156,14.9359v4.725l7.6841-21.06055C325.80419,340.0908,325.03029,340.56921,324.25979,341.04638Zm-5.4156,26.4975v12.212l10.3301-28.30561V339.24247Zm7.4092,27.99314,2.9209-8.01061V375.31676l-8.6792,23.7784C322.20309,398.04433,324.45069,396.65186,326.25339,395.537Z" transform="translate(-47.3315 -84.75507)" />
                <polygon class="cls-31" points="286.014 160.954 286.014 233.654 322.036 211.4 322.036 139.133 286.014 160.954" />
                <polygon class="cls-23" points="423.867 148.881 267.282 243.676 267.282 255.719 423.867 160.922 423.867 148.881" />
                <polygon class="cls-32" points="383.53 101.916 268.046 171.827 268.046 174.619 383.53 104.707 383.53 101.916" />
                <polygon points="330.157 142.051 330.058 200.298 376.591 171.538 376.591 113.354 330.157 142.051" />
                <path class="cls-28" d="M378.53609,227.60808c-.0068,1.49379-.0932,51.5085-.09809,55.34723,2.80469-1.729,43.34619-26.78771,44.436-27.46035V200.20133C420.07619,201.93284,379.62109,226.93359,378.53609,227.60808Z" transform="translate(-47.3315 -84.75507)" />
                <path class="cls-33" d="M378.53609,227.60808c0,.20928-.0068,1.40631-.0088,3.30672,10.6665-6.59293,37.8282-23.38093,40.1026-24.786v51.98813c2.458-1.51552,4.039-2.49408,4.24411-2.622V200.20133C420.07619,201.93284,379.62109,226.93359,378.53609,227.60808Z" transform="translate(-47.3315 -84.75507)" />
                <path d="M413.50289,262.19761V204.53492c-.3603.22438-.7295.447-1.0898.67449v57.66392C412.77339,262.644,413.14259,262.4184,413.50289,262.19761Z" transform="translate(-47.3315 -84.75507)" />
                <path d="M402.24609,268.88518V211.22361c-.3604.22685-.7256.45135-1.0898.67338v57.66206C401.52049,269.33159,401.88569,269.10843,402.24609,268.88518Z" transform="translate(-47.3315 -84.75507)" />
                <path d="M390.98929,276.17966v-57.6633c-.3604.225-.7237.45308-1.0894.67869v57.65972C390.26559,276.63039,390.62889,276.40354,390.98929,276.17966Z" transform="translate(-47.3315 -84.75507)" />
                <path class="cls-30" d="M407.165,209.91034,379.93459,282.0341q.5559-.34214,1.2778-.79212l27.2368-72.12685C408.02339,209.377,407.59569,209.6448,407.165,209.91034Zm-2.78511,57.01352c.5224-.321,1.0459-.64249,1.5635-.96225L422.874,221.099v-3.15759Zm7.9365-4.90244L422.874,234.03075V225.736l-14.64941,38.81032C409.64839,263.67088,411.01559,262.82379,412.31639,262.02142ZM390.981,219.91056l-12.49321,33.11625c0,1.06-.0034,2.12848-.0034,3.19268l14.063-37.27415Q391.75269,219.43667,390.981,219.91056Zm3.86079-2.383-16.3687,43.35729c-.0009,2.89763-.0068,5.712-.0112,8.31282l20.457-54.19188C397.54439,215.85583,396.17719,216.701,394.84179,217.52754Z" transform="translate(-47.3315 -84.75507)" />
                <polygon class="cls-34" points="322.203 178.069 322.203 210.334 423.867 148.791 423.867 116.526 322.203 178.069" />
                <polygon class="cls-35" points="422.047 117.624 422.047 149.889 423.867 148.791 423.867 116.526 422.047 117.624" />
            </g>
            
            <path class="cls-36" d="M529.59669,476.26679c0,5.53592-6.9795,10.02321-15.5869,10.02321s-15.586-4.48729-15.586-10.02321c0-5.53467,6.9785-10.02073,15.586-10.02073S529.59669,470.73212,529.59669,476.26679Z" transform="translate(-47.3315 -84.75507)" />
            <path class="cls-37" d="M530.56149,472.11607c-3.5224,7.91782-11.5742,10.81-17.9814,6.46023-6.4102-4.351-8.751-14.29823-5.2295-22.21716,3.5215-7.92,11.5732-10.81112,17.98341-6.46134C531.74219,454.25,534.083,464.196,530.56149,472.11607Z" transform="translate(-47.3315 -84.75507)" />
            <path class="cls-38" d="M515.52829,471.94481c5.8262,3.95515,12.5332,2.955,15.833-2.0368,2.2451-7.47846-.2021-16.05371-6.02729-20.01021-5.82621-3.95514-12.99811-1.91116-16.90331,4.44033C506.791,460.45674,509.70209,467.98832,515.52829,471.94481Z" transform="translate(-47.3315 -84.75507)" />
            <path class="cls-6" d="M525.334,449.8978a10.98041,10.98041,0,0,0-11.375-.7999c.082,5.07245,2.28419,9.952,6.14059,12.56907a9.93462,9.93462,0,0,0,11.8779-.33422A16.56744,16.56744,0,0,0,525.334,449.8978Z" transform="translate(-47.3315 -84.75507)" />
            <path class="cls-36" d="M650.333,402.08274c0,5.53468-6.97951,10.022-15.58691,10.022s-15.585-4.4873-15.585-10.022c0-5.5359,6.9776-10.022,15.585-10.022S650.333,396.54684,650.333,402.08274Z" transform="translate(-47.3315 -84.75507)" />
            <path class="cls-37" d="M651.29789,397.932c-3.5215,7.91658-11.5733,10.81-17.9815,6.459-6.4092-4.351-8.75-14.29823-5.2295-22.21716,3.5215-7.91892,11.5733-10.81112,17.9844-6.4601C652.47749,380.06476,654.82029,390.012,651.29789,397.932Z" transform="translate(-47.3315 -84.75507)" />
            <path class="cls-38" d="M636.26459,397.76076c5.8272,3.954,12.5323,2.95373,15.8331-2.038,2.2461-7.47845-.2012-16.05371-6.0264-20.009-5.8262-3.95638-12.9981-1.91129-16.90429,4.43909C627.52829,386.27145,630.43849,393.803,636.26459,397.76076Z" transform="translate(-47.3315 -84.75507)" />
            <path class="cls-6" d="M646.07129,375.71375a10.978,10.978,0,0,0-11.375-.8c.082,5.07135,2.2832,9.95093,6.1396,12.5692a9.93808,9.93808,0,0,0,11.8789-.33422A16.56573,16.56573,0,0,0,646.07129,375.71375Z" transform="translate(-47.3315 -84.75507)" />
            
            <g id="tree6">
                <path class="cls-39" d="M512.09859,322.82612a1.98865,1.98865,0,0,1-1.68359,1.19762,1.81983,1.81983,0,0,1-1.60351-1.19762V289.08789h3.2871Z" transform="translate(-47.3315 -84.75507)" />
                <path class="cls-40" d="M510.751,306.90511c7.81049,0,15.07909-3.80267,21.17089-10.32369L510.751,84.75507,489.58009,296.58142C495.67289,303.10244,502.94039,306.90511,510.751,306.90511Z" transform="translate(-47.3315 -84.75507)" />
                <path class="cls-41" d="M510.44729,86.56566l-20.8672,210.01576c6.0137,6.43539,13.17091,10.21694,20.8672,10.314Z" transform="translate(-47.3315 -84.75507)" />
            </g>
            <g id="tree7">
                <path class="cls-39" d="M534.30959,339.63945a1.4789,1.4789,0,0,1-1.251.89047,1.35325,1.35325,0,0,1-1.1924-.89047V314.56037h2.4434Z" transform="translate(-47.3315 -84.75507)" />
                <path class="cls-40" d="M533.30759,327.80455c5.8057,0,11.209-2.82646,15.7363-7.67392l-15.7363-179.56917-15.7363,179.56917C522.09859,324.97809,527.502,327.80455,533.30759,327.80455Z" transform="translate(-47.3315 -84.75507)" />
                <path class="cls-41" d="M533.08109,141.90807l-15.5098,178.22256c4.46871,4.78358,9.79,7.59435,15.5098,7.66674Z" transform="translate(-47.3315 -84.75507)" />
            </g>  
            <g id="bench">
                <polygon class="cls-42" points="117.837 344.185 144.418 327.742 192.945 358.003 166.585 374.283 117.837 344.185" />
                <polygon class="cls-21" points="125.669 322.65 128.666 324.47 145.93 314.046 142.932 312.225 125.669 322.65" />
                <polygon class="cls-43" points="145.947 314.036 128.666 324.47 128.666 342 145.947 331.565 145.947 314.036" />
                <polygon class="cls-44" points="125.656 322.639 125.656 340.169 128.666 342 128.666 324.47 125.656 322.639" />
                <polygon class="cls-45" points="169.11 349.991 186.379 339.309 145.793 314.001 128.573 324.698 169.11 349.991" />
                <path class="cls-31" d="M188.29,401.7594l-.8921.55378L227.96,427.62281l.8916-.55266Zm-7.2006,4.47284,40.5483,25.3.8921-.55266L181.981,405.67723Z" transform="translate(-47.3315 -84.75507)" />
                <polygon class="cls-31" points="169.11 353.82 169.11 349.991 128.573 324.698 128.573 328.526 169.11 353.82" />
                <polygon class="cls-21" points="168.672 349.69 171.671 351.508 188.935 341.086 185.936 339.264 168.672 349.69" />
                <polygon class="cls-43" points="188.952 341.076 171.671 351.508 171.671 369.039 188.952 358.605 188.952 341.076" />
                <polygon class="cls-44" points="168.661 349.678 168.661 367.207 171.671 369.039 171.671 351.508 168.661 349.678" />
            </g>    
            <ellipse class="cls-36" cx="199.48687" cy="382.07976" rx="15.58647" ry="10.02206" />
            <path class="cls-37" d="M263.3691,462.6842c-3.5219,7.91769-11.5732,10.81112-17.9819,6.46011-6.4097-4.35225-8.7495-14.29947-5.229-22.21716,3.523-7.92128,11.5747-10.81224,17.9829-6.46246C264.5503,444.81805,266.8911,454.764,263.3691,462.6842Z" transform="translate(-47.3315 -84.75507)" />
            <path class="cls-38" d="M248.3364,462.51159c5.8267,3.9565,12.5327,2.9562,15.8335-2.03558,2.2456-7.47846-.2021-16.05371-6.0288-20.01132-5.8262-3.954-12.9975-1.91-16.9014,4.44146C239.5986,451.02475,242.5103,458.55632,248.3364,462.51159Z" transform="translate(-47.3315 -84.75507)" />
            <path class="cls-6" d="M258.1411,440.46469a10.97346,10.97346,0,0,0-11.3745-.79756c.083,5.07123,2.2847,9.95081,6.1406,12.56785a9.93346,9.93346,0,0,0,11.8784-.33422A16.562,16.562,0,0,0,258.1411,440.46469Z" transform="translate(-47.3315 -84.75507)" />
            <polygon class="cls-42" points="620.014 322.391 594.123 338.379 625.691 357.872 651.424 341.979 620.014 322.391" />
            <polygon class="cls-21" points="630.745 314.245 607.961 328.003 629.383 341.007 652.166 327.251 630.745 314.245" />
            <path class="cls-46" d="M666.73829,412.766c3.0439,1.846,9.1172,5.53466,9.9775,6.05707.9405-.567,7.8653-4.72378,11.336-6.82324-3.043-1.84852-9.1172-5.53591-9.9795-6.06078C677.13379,406.5085,670.207,410.66529,666.73829,412.766Z" transform="translate(-47.3315 -84.75507)" />
            <polygon class="cls-47" points="652.189 327.237 629.383 341.007 629.383 355.72 652.189 341.952 652.189 327.237" />
            <polygon class="cls-20" points="608.031 328.023 608.031 342.736 629.383 355.72 629.383 341.007 608.031 328.023" />
            
            <g id="tree5">
                <path class="cls-39" d="M694.541,304.63877c-1.23052,14.88982-17.98631,26.22295-17.98631,26.22295-1.4434-.837-9.2725-12.20441-11.5674-16.9523-.4248.17522-1.7588.81068-2.207.9611.6933,1.063,7.7246,13.24519,9.5332,15.67114,3.3398,4.47323,1.2666,75.89162.9404,82.39705-.0254.27664,1.1328,1.80414,3.7109,1.76474,2.17-.03431,3.8848-.80561,4.1426-1.63138.0752-.23829-3.5176-78.8506-.10939-82.19319,5.00879-4.91445,14.33108-13.18617,15.77348-27.37282A5.02766,5.02766,0,0,1,694.541,304.63877Z" transform="translate(-47.3315 -84.75507)" />
                <path class="cls-6" d="M655.97659,262.43692c.9043-11.81416,10.6005-20.73094,21.7998-19.96016,9.9013.68094,17.67669,8.71335,18.91309,18.74465,9.583,3.16851,16.22752,13.08465,15.5048,24.32246-.7841,12.19675-9.9668,21.65813-21.05269,22.30072-3.9902,8.5801-11.59859,14.49554-20.8262,14.9932-14.7549.79352-28.0586-12.54306-29.73339-29.79411C639.249,279.25493,645.76949,267.14337,655.97659,262.43692Z" transform="translate(-47.3315 -84.75507)" />
                <path class="cls-48" d="M691.56929,260.2109a21.05354,21.05354,0,0,0-13.6552,3.88263,19.91673,19.91673,0,0,1,16.24609-6.76789c.5947.04083,1.1777.11754,1.75482.213a23.41924,23.41924,0,0,1,.76858,3.68031A20.85193,20.85193,0,0,0,691.56929,260.2109Z" transform="translate(-47.3315 -84.75507)" />
                <path class="cls-48" d="M655.97659,262.43692a22.57739,22.57739,0,0,1,8.2929-2.05846,23.18656,23.18656,0,0,1,2.3321.001c-3.64459-8.36764,2.4052-16.67059,11.8681-17.2773.7461-.04745,1.4776-.18174,2.2149-.2019a19.13341,19.13341,0,0,0-2.9082-.42353C666.57709,241.706,656.88089,250.62276,655.97659,262.43692Z" transform="translate(-47.3315 -84.75507)" />
                <path class="cls-48" d="M694.001,290.167a35.20326,35.20326,0,0,0-11.77051-23.329c12.67279,4.57682,21.37109,17.87,20.40519,32.90349a35.23777,35.23777,0,0,1-.5439,4.25169,21.12562,21.12562,0,0,1-10.95019,3.85442A34.14037,34.14037,0,0,0,694.001,290.167Z" transform="translate(-47.3315 -84.75507)" />
                <path class="cls-48" d="M664.26949,260.37846a23.49321,23.49321,0,0,1,6.64851.5966c-12.96881,5.06341-15.49121,14.05939-15.13871,26.90028.458,16.5974,12.26271,31.25544,24.793,31.23932.3662-.001.7363-.01716,1.1035-.03938a22.73852,22.73852,0,0,1-11.3604,3.76251c-14.7549.79352-28.0586-12.54306-29.73339-29.79411C638.91409,275.79469,649.51759,261.17446,664.26949,260.37846Z" transform="translate(-47.3315 -84.75507)" />
            </g>
            
            <polygon class="cls-21" points="514.393 385.976 491.61 399.734 513.032 412.738 535.815 398.982 514.393 385.976" />
            <path class="cls-46" d="M550.387,484.49714c3.0439,1.846,9.1172,5.53466,9.9775,6.05707.9405-.567,7.8653-4.72378,11.336-6.82324-3.043-1.84852-9.1172-5.53591-9.9795-6.06078C560.78247,478.23965,553.85569,482.39644,550.387,484.49714Z" transform="translate(-47.3315 -84.75507)" />
            <polygon class="cls-47" points="535.838 398.969 513.032 412.738 513.032 427.452 535.838 413.683 535.838 398.969" />
            <polygon class="cls-20" points="491.679 399.754 491.679 414.467 513.032 427.452 513.032 412.738 491.679 399.754" />
            
            <g id="tree4">
                <path class="cls-39" d="M578.18969,376.38816c-1.23052,14.88982-17.98632,26.22295-17.98632,26.22295-1.4434-.83694-9.2725-12.20441-11.5674-16.9523-.4248.17522-1.7588.81068-2.207.9611.6933,1.063,7.7246,13.24519,9.5332,15.67114,3.3398,4.47323,1.2666,75.89162.9404,82.39705-.0254.27664,1.1328,1.80414,3.7109,1.76474,2.17-.03431,3.8848-.80561,4.1426-1.63138.0752-.23829-3.5176-78.8506-.10938-82.19319,5.00878-4.91445,14.33108-13.18617,15.77348-27.37282A5.02745,5.02745,0,0,1,578.18969,376.38816Z" transform="translate(-47.3315 -84.75507)" />
                <path class="cls-6" d="M539.62527,334.18631c.9043-11.81416,10.6005-20.73094,21.7998-19.96016,9.9013.68094,17.6767,8.71335,18.9131,18.74465,9.583,3.16851,16.22752,13.08465,15.5048,24.32247-.7841,12.19674-9.9668,21.65812-21.0527,22.30071-3.9902,8.5801-11.59858,14.49554-20.8262,14.9932-14.7549.79353-28.0586-12.543-29.73338-29.79411C522.89769,351.00432,529.41817,338.89276,539.62527,334.18631Z" transform="translate(-47.3315 -84.75507)" />
                <path class="cls-48" d="M575.218,331.96029a21.05354,21.05354,0,0,0-13.6552,3.88264,19.91675,19.91675,0,0,1,16.2461-6.7679c.5947.04084,1.1777.11754,1.75482.213a23.41937,23.41937,0,0,1,.76858,3.68032A20.85146,20.85146,0,0,0,575.218,331.96029Z" transform="translate(-47.3315 -84.75507)" />
                <path class="cls-48" d="M539.62527,334.18631a22.57739,22.57739,0,0,1,8.2929-2.05846,23.18656,23.18656,0,0,1,2.3321.001c-3.64458-8.36764,2.4052-16.67059,11.8681-17.2773.7461-.04745,1.4776-.18174,2.2149-.20189a19.13217,19.13217,0,0,0-2.9082-.42354C550.22577,313.45537,540.52957,322.37215,539.62527,334.18631Z" transform="translate(-47.3315 -84.75507)" />
                <path class="cls-48" d="M577.64969,361.91639a35.20327,35.20327,0,0,0-11.77052-23.329c12.6728,4.57682,21.3711,17.87,20.4052,32.90349a35.23819,35.23819,0,0,1-.5439,4.2517,21.12561,21.12561,0,0,1-10.9502,3.85441A34.14026,34.14026,0,0,0,577.64969,361.91639Z" transform="translate(-47.3315 -84.75507)" />
                <path class="cls-48" d="M547.91817,332.12785a23.49331,23.49331,0,0,1,6.64852.5966c-12.96882,5.06341-15.49122,14.05939-15.13872,26.90028.458,16.5974,12.26272,31.25544,24.793,31.23933.3662-.001.7363-.01717,1.1035-.03939a22.73849,22.73849,0,0,1-11.3604,3.76251c-14.7549.79353-28.0586-12.543-29.73338-29.79411C522.56277,347.54408,533.16627,332.92385,547.91817,332.12785Z" transform="translate(-47.3315 -84.75507)" />
            </g>
            
            <polygon class="cls-4" points="341.088 533.877 495.447 438.302 495.447 407.94 341.102 503.517 341.088 533.877" />
            <polygon class="cls-6" points="495.447 407.94 483.388 400.413 341.092 488.542 58.52 313.558 46.461 321.086 341.081 503.517 341.092 503.509 341.102 503.517 495.447 407.94" />
            <polygon class="cls-5" points="341.094 533.877 46.461 351.448 46.461 321.086 341.081 503.517 341.094 533.877" />
        </g>
    </g>
</svg>