<svg id="svg8" xmlns="http://www.w3.org/2000/svg" xmlns:xlink="http://www.w3.org/1999/xlink" viewBox="0 0 512.53049 401.42271">
    <defs>
        <style>
            .cls-1 {
                mask: url(#mask);
            }
            
            .cls-2 {
                mix-blend-mode: multiply;
                fill: url(#linear-gradient);
            }
            
            .cls-3 {
                fill: url(#linear-gradient-2);
            }
            
            .cls-4 {
                fill: #79b400;
            }
            
            .cls-5 {
                fill: #aad454;
            }
            
            .cls-6 {
                fill: url(#linear-gradient-3);
            }
            
            .cls-7 {
                fill: url(#linear-gradient-4);
            }
            
            .cls-8 {
                fill: url(#linear-gradient-5);
            }
            
            .cls-9 {
                fill: url(#linear-gradient-6);
            }
            
            .cls-10 {
                fill: #c2e084;
            }
            
            .cls-11 {
                fill: url(#linear-gradient-7);
            }
            
            .cls-12 {
                fill: #ffe47d;
            }
            
            .cls-13 {
                fill: #ffcd4d;
            }
            
            .cls-14 {
                fill: url(#linear-gradient-8);
            }
            
            .cls-15 {
                fill: url(#linear-gradient-9);
            }
            
            .cls-16 {
                fill: url(#linear-gradient-10);
            }
            
            .cls-17 {
                fill: url(#linear-gradient-11);
            }
            
            .cls-18 {
                fill: url(#linear-gradient-12);
            }
            
            .cls-19 {
                fill: url(#linear-gradient-13);
            }
            
            .cls-20 {
                fill: url(#linear-gradient-14);
            }
            
            .cls-21 {
                fill: url(#linear-gradient-15);
            }
            
            .cls-22 {
                fill: url(#linear-gradient-16);
            }
            
            .cls-23 {
                fill: url(#linear-gradient-17);
            }
            
            .cls-24 {
                fill: url(#linear-gradient-18);
            }
            
            .cls-25 {
                fill: url(#linear-gradient-19);
            }
            
            .cls-26 {
                fill: url(#linear-gradient-20);
            }
            
            .cls-27 {
                fill: url(#linear-gradient-21);
            }
            
            .cls-28 {
                mask: url(#mask-2);
            }
            
            .cls-29 {
                opacity: 0.4;
                isolation: isolate;
                fill: url(#linear-gradient-22);
            }
            
            .cls-30 {
                fill: url(#linear-gradient-23);
            }
            
            .cls-31 {
                fill: url(#linear-gradient-24);
            }
            
            .cls-32 {
                fill: url(#linear-gradient-25);
            }
            
            .cls-33 {
                filter: url(#luminosity-noclip);
            }
        </style>
        <filter id="luminosity-noclip" x="543.14279" y="-8692" width="241.81187" height="32766" filterUnits="userSpaceOnUse" color-interpolation-filters="sRGB">
            <feFlood flood-color="#fff" result="bg" />
            <feBlend in="SourceGraphic" in2="bg" />
        </filter>
        <mask id="mask" x="543.14279" y="-8692" width="241.81187" height="32766" maskUnits="userSpaceOnUse">
            <g class="cls-33" />
        </mask>
        <linearGradient id="linear-gradient" x1="537.14279" y1="540.57143" x2="778.95465" y2="540.57143" gradientTransform="matrix(1, 0, 0, -1, 6, 850)" gradientUnits="userSpaceOnUse">
            <stop offset="0" stop-color="#fff" />
            <stop offset="1" />
        </linearGradient>
        <linearGradient id="linear-gradient-2" x1="431.67767" y1="603.39476" x2="664.07091" y2="608.39475" gradientTransform="matrix(1, 0, 0, -1, -37.0415, 1025.6145)" gradientUnits="userSpaceOnUse">
            <stop offset="0" stop-color="#d0ff71" />
            <stop offset="1" stop-color="#690" />
        </linearGradient>
        <linearGradient id="linear-gradient-3" x1="431.67767" y1="603.39476" x2="664.07091" y2="608.39475" gradientTransform="matrix(1, 0, 0, -1, -37.0415, 1005.6145)" xlink:href="#linear-gradient-2" />
        <linearGradient id="linear-gradient-4" x1="431.67767" y1="603.39476" x2="664.07091" y2="608.39475" gradientTransform="matrix(1, 0, 0, -1, -37.0415, 985.6145)" xlink:href="#linear-gradient-2" />
        <linearGradient id="linear-gradient-5" x1="431.67767" y1="603.39476" x2="664.07091" y2="608.39475" gradientTransform="matrix(1, 0, 0, -1, -37.0415, 965.6145)" xlink:href="#linear-gradient-2" />
        <linearGradient id="linear-gradient-6" x1="431.67767" y1="603.39476" x2="664.07091" y2="608.39474" gradientTransform="matrix(1, 0, 0, -1, -37.0415, 945.6145)" xlink:href="#linear-gradient-2" />
        <linearGradient id="linear-gradient-7" x1="402.5582" y1="215.81892" x2="794.46326" y2="215.81892" gradientTransform="matrix(0.3803, 0, 0, -0.3803, 534.569, 573.0741)" gradientUnits="userSpaceOnUse">
            <stop offset="0" stop-color="#ffeeb9" />
            <stop offset="1" stop-color="#e2b428" />
        </linearGradient>
        <linearGradient id="linear-gradient-8" x1="539.59751" y1="245.81892" x2="657.42438" y2="245.81892" gradientTransform="matrix(0.3803, 0, 0, -0.3803, 534.5689, 573.0739)" gradientUnits="userSpaceOnUse">
            <stop offset="0" stop-color="#ffedb7" />
            <stop offset="1" stop-color="#e2b428" />
        </linearGradient>
        <linearGradient id="linear-gradient-9" x1="423.50955" y1="288.96959" x2="773.51165" y2="288.96959" gradientTransform="matrix(0.3803, 0, 0, -0.3803, 534.569, 573.0741)" gradientUnits="userSpaceOnUse">
            <stop offset="0" stop-color="#e2b428" />
            <stop offset="1" stop-color="#ffeeb8" />
        </linearGradient>
        <linearGradient id="linear-gradient-10" x1="402.55793" y1="215.81905" x2="794.46326" y2="215.81905" gradientTransform="matrix(0.3803, 0, 0, -0.3803, 550.1397, 551.0959)" xlink:href="#linear-gradient-7" />
        <linearGradient id="linear-gradient-11" x1="539.59751" y1="245.81892" x2="657.42438" y2="245.81892" gradientTransform="matrix(0.3803, 0, 0, -0.3803, 550.1396, 551.0956)" xlink:href="#linear-gradient-8" />
        <linearGradient id="linear-gradient-12" x1="423.50955" y1="288.96974" x2="773.51165" y2="288.96974" gradientTransform="matrix(0.3803, 0, 0, -0.3803, 550.1397, 551.0959)" xlink:href="#linear-gradient-9" />
        <linearGradient id="linear-gradient-13" x1="402.5582" y1="215.81905" x2="794.46326" y2="215.81905" gradientTransform="matrix(0.3803, 0, 0, -0.3803, 542.9968, 525.3816)" xlink:href="#linear-gradient-7" />
        <linearGradient id="linear-gradient-14" x1="539.59751" y1="245.81879" x2="657.42438" y2="245.81879" gradientTransform="matrix(0.3803, 0, 0, -0.3803, 542.9968, 525.3813)" xlink:href="#linear-gradient-8" />
        <linearGradient id="linear-gradient-15" x1="423.50981" y1="288.96972" x2="773.51191" y2="288.96972" gradientTransform="matrix(0.3803, 0, 0, -0.3803, 542.9968, 525.3816)" xlink:href="#linear-gradient-9" />
        <linearGradient id="linear-gradient-16" x1="402.55821" y1="215.81893" x2="794.46327" y2="215.81893" gradientTransform="matrix(0.3803, 0, 0, -0.3803, 410.1397, 638.2387)" xlink:href="#linear-gradient-7" />
        <linearGradient id="linear-gradient-17" x1="539.59726" y1="245.81893" x2="657.42413" y2="245.81893" gradientTransform="matrix(0.3803, 0, 0, -0.3803, 410.1397, 638.2385)" xlink:href="#linear-gradient-8" />
        <linearGradient id="linear-gradient-18" x1="423.50956" y1="288.9696" x2="773.51165" y2="288.9696" gradientTransform="matrix(0.3803, 0, 0, -0.3803, 410.1397, 638.2387)" xlink:href="#linear-gradient-9" />
        <linearGradient id="linear-gradient-19" x1="402.55821" y1="215.81906" x2="794.46327" y2="215.81906" gradientTransform="matrix(0.3803, 0, 0, -0.3803, 400.1397, 623.953)" xlink:href="#linear-gradient-7" />
        <linearGradient id="linear-gradient-20" x1="539.59726" y1="245.81881" x2="657.42413" y2="245.81881" gradientTransform="matrix(0.3803, 0, 0, -0.3803, 400.1397, 623.9527)" xlink:href="#linear-gradient-8" />
        <linearGradient id="linear-gradient-21" x1="423.50956" y1="288.9696" x2="773.51166" y2="288.9696" gradientTransform="matrix(0.3803, 0, 0, -0.3803, 400.1397, 623.953)" xlink:href="#linear-gradient-9" />
        <mask id="mask-2" x="203.39919" y="63.46302" width="241.81187" height="95.7143" maskUnits="userSpaceOnUse">
            <g transform="translate(-339.74359 -198.1084)">
                <g class="cls-1">
                    <path id="path5749" class="cls-2" d="M543.14279,357.28572H696.71418l75.0893-42.8572c23.4877-16.0918,10.8548-35.8613-1.9643-42.1428l-18.3789-10.6793-208.31749-.035Z" />
                </g>
            </g>
        </mask>
        <linearGradient id="linear-gradient-22" x1="537.14279" y1="540.57143" x2="778.95465" y2="540.57143" gradientTransform="matrix(1, 0, 0, -1, 6, 850)" gradientUnits="userSpaceOnUse">
            <stop offset="0" stop-color="#213200" />
            <stop offset="1" stop-color="#213200" />
        </linearGradient>
        <linearGradient id="linear-gradient-23" x1="402.55821" y1="215.81904" x2="794.46328" y2="215.81904" gradientTransform="matrix(0.3803, 0, 0, -0.3803, 315.854, 396.8102)" xlink:href="#linear-gradient-7" />
        <linearGradient id="linear-gradient-24" x1="539.59753" y1="245.81891" x2="657.4244" y2="245.81891" gradientTransform="matrix(0.3803, 0, 0, -0.3803, 315.8539, 396.8099)" xlink:href="#linear-gradient-8" />
        <linearGradient id="linear-gradient-25" x1="423.50957" y1="288.96984" x2="773.51166" y2="288.96984" gradientTransform="matrix(0.3803, 0, 0, -0.3803, 315.854, 396.8102)" xlink:href="#linear-gradient-9" />
    </defs>
    <title>saving</title>
    <g id="layer3">
        <g id="g5385">
            <path id="rect4992" class="cls-3" d="M618.98,290.07932c-13.77462,0-27.54871,3.0468-38.10351,9.1406L355.59719,429.28631a38.78721,38.78721,0,0,0-10.5079,8.543l-5.3457.7852v12.8574l.0293-.004c.0806,7.8914,5.3507,15.7695,15.8243,21.8164L467.689,538.00111c21.10959,12.1876,55.09739,12.1876,76.207,0l225.27928-130.0644c11.4776-6.62659,16.7008-15.45129,15.6973-24.084l.0977-10.6504-4.2344.6211a37.18044,37.18044,0,0,0-11.5606-9.8867l-112.0918-64.7168C646.52868,293.12612,632.75458,290.07932,618.98,290.07932Z" transform="translate(-339.74359 -198.1084)" />
            <path id="rect4676" class="cls-4" d="M657.08348,287.22082l112.0921,64.7164c21.0442,12.1499,21.0442,31.84878,0,43.9987L543.89689,526.00061c-21.0443,12.1499-55.1638,12.1499-76.208,0l-112.0921-64.7164c-21.0443-12.1499-21.0443-31.8488,0-43.9987l225.2787-130.06469C601.91968,275.07092,636.03918,275.07092,657.08348,287.22082Z" transform="translate(-339.74359 -198.1084)" />
            <path id="path4678" class="cls-5" d="M660.27528,303.20512c-22.4791,12.9783-58.9255,12.978-81.40528-.0006v-.0001L383.28089,416.12791c22.4776,12.9785,22.4765,34.0203.001,46.9993l81.2153,46.8897c22.479-12.9784,58.9254-12.9781,81.4051.0006L741.49168,397.09412c-22.4809-12.97812-22.4855-34.01912-.0075-46.99812l.0065-.00128Z" transform="translate(-339.74359 -198.1084)" />
            <ellipse id="ellipse4680" class="cls-4" cx="562.38611" cy="406.61071" rx="35.55404" ry="72.43807" transform="matrix(0.3022, -0.95325, 0.95325, 0.3022, -334.90786, 621.71895)" />
            <ellipse id="ellipse4682" class="cls-4" cx="638.49304" cy="362.67042" rx="16.10823" ry="32.25682" transform="translate(-233.30523 670.64602) rotate(-73.16396)" />
            <ellipse id="ellipse4684" class="cls-4" cx="486.27924" cy="450.55109" rx="16.10827" ry="32.25683" transform="translate(-425.54685 587.38359) rotate(-73.16393)" />
            <ellipse id="ellipse4686" class="cls-5" cx="562.38614" cy="406.61071" rx="28.65549" ry="58.38288" transform="translate(-334.90813 621.71857) rotate(-72.41047)" />
        </g>
        <g id="g5437">
            <path id="path5423" class="cls-6" d="M618.98,270.07932c-13.77462,0-27.54871,3.0468-38.10351,9.1406L355.59719,409.28631a38.78721,38.78721,0,0,0-10.5079,8.543l-5.3457.7852v12.8574l.0293-.004c.0806,7.8914,5.3507,15.7695,15.8243,21.8164L467.689,518.00111c21.10959,12.1876,55.09739,12.1876,76.207,0L769.17528,387.93672c11.4776-6.6266,16.7008-15.4513,15.6973-24.084l.0977-10.6504-4.2344.6211a37.18044,37.18044,0,0,0-11.5606-9.8867l-112.0918-64.7168C646.52868,273.12612,632.75458,270.07932,618.98,270.07932Z" transform="translate(-339.74359 -198.1084)" />
            <path id="rect5425" class="cls-4" d="M657.08348,267.22082l112.0921,64.7164c21.0442,12.1499,21.0442,31.84878,0,43.9987L543.89689,506.00061c-21.0443,12.1499-55.1638,12.1499-76.208,0l-112.0921-64.7164c-21.0443-12.1499-21.0443-31.8488,0-43.99869l225.2787-130.0647C601.91968,255.07092,636.03918,255.07092,657.08348,267.22082Z" transform="translate(-339.74359 -198.1084)" />
            <path id="path5427" class="cls-5" d="M660.27528,283.20512c-22.4791,12.9783-58.9255,12.978-81.40528-.0006v-.0001L383.28089,396.12792c22.4776,12.97849,22.4765,34.02029.001,46.99929l81.2153,46.8897c22.479-12.9784,58.9254-12.9781,81.4051.0006L741.49168,377.09412c-22.4809-12.97812-22.4855-34.01912-.0075-46.99812l.0065-.00128Z" transform="translate(-339.74359 -198.1084)" />
            <ellipse id="ellipse5429" class="cls-4" cx="562.38611" cy="386.61072" rx="35.55404" ry="72.43807" transform="translate(-315.84294 607.76285) rotate(-72.41051)" />
            <ellipse id="ellipse5431" class="cls-4" cx="638.49304" cy="342.67042" rx="16.10823" ry="32.25682" transform="translate(-214.16248 656.4387) rotate(-73.16396)" />
            <ellipse id="ellipse5433" class="cls-4" cx="486.27924" cy="430.55109" rx="16.10827" ry="32.25683" transform="translate(-406.4041 573.17627) rotate(-73.16393)" />
            <ellipse id="ellipse5435" class="cls-5" cx="562.38614" cy="386.61071" rx="28.65549" ry="58.38288" transform="translate(-315.84322 607.76249) rotate(-72.41047)" />
        </g>
        <g id="g5455">
            <path id="path5441" class="cls-7" d="M618.98,250.07932c-13.77462,0-27.54871,3.0468-38.10351,9.1406l-225.2793,130.0664a38.78721,38.78721,0,0,0-10.5079,8.543l-5.3457.7852v12.85739l.0293-.004c.0806,7.8914,5.3507,15.7695,15.8243,21.8164L467.689,498.00111c21.10959,12.1876,55.09739,12.1876,76.207,0L769.17528,367.93672c11.4776-6.6266,16.7008-15.4513,15.6973-24.084l.0977-10.6504-4.2344.6211a37.18044,37.18044,0,0,0-11.5606-9.8867l-112.0918-64.7168C646.52868,253.12612,632.75458,250.07932,618.98,250.07932Z" transform="translate(-339.74359 -198.1084)" />
            <path id="rect5443" class="cls-4" d="M657.08348,247.22082l112.0921,64.7164c21.0442,12.1499,21.0442,31.84878,0,43.9987L543.89689,486.00061c-21.0443,12.1499-55.1638,12.1499-76.208,0l-112.0921-64.7164c-21.0443-12.1499-21.0443-31.84879,0-43.99869l225.2787-130.0647C601.91968,235.07092,636.03918,235.07092,657.08348,247.22082Z" transform="translate(-339.74359 -198.1084)" />
            <path id="path5445" class="cls-5" d="M660.27528,263.20512c-22.4791,12.9783-58.9255,12.978-81.40528-.0006v-.0001L383.28089,376.12792c22.4776,12.9785,22.4765,34.02029.001,46.99929l81.2153,46.8897c22.479-12.9784,58.9254-12.9781,81.4051.0006L741.49168,357.09412c-22.4809-12.97812-22.4855-34.01912-.0075-46.99812l.0065-.00128Z" transform="translate(-339.74359 -198.1084)" />
            <ellipse id="ellipse5447" class="cls-4" cx="562.38611" cy="366.61072" rx="35.55404" ry="72.43807" transform="matrix(0.3022, -0.95325, 0.95325, 0.3022, -296.77802, 593.80675)" />
            <ellipse id="ellipse5449" class="cls-4" cx="638.49304" cy="322.67042" rx="16.10823" ry="32.25682" transform="translate(-195.01973 642.23137) rotate(-73.16396)" />
            <ellipse id="ellipse5451" class="cls-4" cx="486.27924" cy="410.55109" rx="16.10827" ry="32.25683" transform="translate(-387.26135 558.96896) rotate(-73.16393)" />
            <ellipse id="ellipse5453" class="cls-5" cx="562.38614" cy="366.61071" rx="28.65549" ry="58.38288" transform="translate(-296.7783 593.8064) rotate(-72.41047)" />
        </g>
        <g id="g5473">
            <path id="path5459" class="cls-8" d="M618.98,230.07932c-13.77462,0-27.54871,3.0468-38.10351,9.1406l-225.2793,130.0664a38.78721,38.78721,0,0,0-10.5079,8.543l-5.3457.7852v12.8574l.0293-.004c.0806,7.8914,5.3507,15.76949,15.8243,21.81639L467.689,478.00111c21.10959,12.1876,55.09739,12.1876,76.207,0L769.17528,347.93672c11.4776-6.6266,16.7008-15.4513,15.6973-24.084l.0977-10.6504-4.2344.6211a37.18044,37.18044,0,0,0-11.5606-9.8867l-112.0918-64.7168C646.52868,233.12612,632.75458,230.07932,618.98,230.07932Z" transform="translate(-339.74359 -198.1084)" />
            <path id="rect5461" class="cls-4" d="M657.08348,227.22082l112.0921,64.7164c21.0442,12.1499,21.0442,31.84878,0,43.9987L543.89689,466.00061c-21.0443,12.1499-55.1638,12.1499-76.208,0l-112.0921-64.71639c-21.0443-12.1499-21.0443-31.8488,0-43.9987l225.2787-130.0647C601.91968,215.07092,636.03918,215.07092,657.08348,227.22082Z" transform="translate(-339.74359 -198.1084)" />
            <path id="path5463" class="cls-5" d="M660.27528,243.20512c-22.4791,12.9783-58.9255,12.978-81.40528-.0006v-.0001L383.28089,356.12792c22.4776,12.9785,22.4765,34.0203.001,46.9993l81.2153,46.88969c22.479-12.9784,58.9254-12.9781,81.4051.0006L741.49168,337.09412c-22.4809-12.97812-22.4855-34.01912-.0075-46.99812l.0065-.00128Z" transform="translate(-339.74359 -198.1084)" />
            <ellipse id="ellipse5465" class="cls-4" cx="562.38611" cy="346.61072" rx="35.55404" ry="72.43807" transform="translate(-277.7131 579.85065) rotate(-72.41051)" />
            <ellipse id="ellipse5467" class="cls-4" cx="638.49304" cy="302.67042" rx="16.10823" ry="32.25682" transform="translate(-175.87698 628.02405) rotate(-73.16396)" />
            <ellipse id="ellipse5469" class="cls-4" cx="486.27924" cy="390.55109" rx="16.10827" ry="32.25683" transform="translate(-368.11861 544.76165) rotate(-73.16393)" />
            <ellipse id="ellipse5471" class="cls-5" cx="562.38614" cy="346.61071" rx="28.65549" ry="58.38288" transform="translate(-277.71339 579.85031) rotate(-72.41047)" />
        </g>
        <g id="g5491">
            <path id="path5477" class="cls-9" d="M618.98,210.07932c-13.77462,0-27.54871,3.0468-38.10351,9.1406l-225.2793,130.0664a38.78721,38.78721,0,0,0-10.5079,8.543l-5.3457.7852v12.8574l.0293-.004c.0806,7.8914,5.3507,15.7695,15.8243,21.8164L467.689,458.00111c21.10959,12.1876,55.09739,12.1876,76.207,0L769.17528,327.93672c11.4776-6.6266,16.7008-15.4513,15.6973-24.084l.0977-10.6503-4.2344.621a37.18044,37.18044,0,0,0-11.5606-9.8867l-112.0918-64.7168C646.52868,213.12612,632.75458,210.07932,618.98,210.07932Z" transform="translate(-339.74359 -198.1084)" />
            <path id="rect5479" class="cls-4" d="M657.08348,207.22082l112.0921,64.7164c21.0442,12.1499,21.0442,31.84878,0,43.9987L543.89689,446.00061c-21.0443,12.1499-55.1638,12.1499-76.208,0l-112.0921-64.71639c-21.0443-12.1499-21.0443-31.8488,0-43.9987l225.2787-130.0647C601.91968,195.07092,636.03918,195.07092,657.08348,207.22082Z" transform="translate(-339.74359 -198.1084)" />
            <path id="path5481" class="cls-10" d="M660.27528,223.20512c-22.4791,12.9783-58.9255,12.978-81.40528-.0006v-.0001L383.28089,336.12792c22.4776,12.9785,22.4765,34.0203.001,46.9993l81.2153,46.88969c22.479-12.9784,58.9254-12.9781,81.4051.0006L741.49168,317.09412c-22.4809-12.97812-22.4855-34.01912-.0075-46.99812l.0065-.00128Z" transform="translate(-339.74359 -198.1084)" />
            <ellipse id="ellipse5483" class="cls-4" cx="562.38611" cy="326.61074" rx="35.55401" ry="72.43807" transform="translate(-258.64803 565.89476) rotate(-72.41053)" />
            <ellipse id="ellipse5485" class="cls-4" cx="638.49304" cy="282.67042" rx="16.10823" ry="32.25682" transform="translate(-156.73423 613.81673) rotate(-73.16396)" />
            <ellipse id="ellipse5487" class="cls-4" cx="486.27924" cy="370.55109" rx="16.10827" ry="32.25683" transform="translate(-348.97586 530.55434) rotate(-73.16393)" />
            <ellipse id="ellipse5489" class="cls-5" cx="562.38614" cy="326.61071" rx="28.65549" ry="58.38288" transform="translate(-258.64847 565.89422) rotate(-72.41047)" />
        </g>
        <g id="g5316">
            <path id="path5300" class="cls-11" d="M762.18258,447.62981c34.8379.0175,65.006,14.0794,72.6438,33.8607h1.877v9.5076c-.00038,23.9517-33.3643,43.3683-74.5208,43.3684-41.1564-.0001-74.5204-19.4167-74.5207-43.3684v-9.5076h1.9082C697.20518,461.71581,727.35648,447.65581,762.18258,447.62981Z" transform="translate(-339.74359 -198.1084)" />
            <ellipse id="ellipse5302" class="cls-12" cx="422.43901" cy="283.38212" rx="74.52087" ry="43.3687" />
            <ellipse id="ellipse5304" class="cls-13" cx="422.43899" cy="283.38212" rx="66.5532" ry="38.7318" />
            <g id="g5308">
                <path id="path5306" class="cls-14" d="M776.11128,447.86681l-1.7745,3.8409-17.1747.3662v5.6578a56.32726,56.32726,0,0,0-9.4252,2.1942,30.53929,30.53929,0,0,0-7.34088,3.5216,16.9845,16.9845,0,0,0-4.86162,4.8503,10.24479,10.24479,0,0,0-.5838,1.0919h-.9203v4.0222c-.0016.0754-.0002.1515,0,.2273v.3484h.0089c.0034.1052.0011.2088.0074.3149a6.95127,6.95127,0,0,0,1.5873,4.1567,14.31528,14.31528,0,0,0,3.7696,3.2333,29.11787,29.11787,0,0,0,5.2582,2.3673q2.87715.98145,5.6549,1.67419t5.1586,1.09711q2.3811.4041,3.8692.6351,2.38095.5196,3.9687,1.0391,1.5873.51975,1.68692,1.5012.09912,1.5012-2.48092,2.1363a28.93594,28.93594,0,0,1-6.15108.7509,32.32163,32.32163,0,0,1-5.05912-.2889q-2.48025-.3465-4.8615-.8082-2.38107-.46185-4.4642-.9819-2.08335-.57735-3.572-.9233l-5.2589,8.5784-2.2804-.0839v3.803q4.6629,1.32795,10.4168,2.3673a90.08086,90.08086,0,0,0,11.508,1.3281l-.7532,1.5851-1.82648.03859v3.80311l18.94918-.40411v-5.77359a65.02616,65.02616,0,0,0,10.0202-2.1363,32.50385,32.50385,0,0,0,7.8379-3.4636,15.40653,15.40653,0,0,0,4.9603-4.79251,9.96512,9.96512,0,0,0,1.4878-6.00459v-3.8031h-1.1505a8.24088,8.24088,0,0,0-.8334-1.1625,15.81754,15.81754,0,0,0-4.4641-3.6374,27.17133,27.17133,0,0,0-5.8539-2.5975q-3.17472-1.03936-6.2498-1.7901a46.42467,46.42467,0,0,0-5.3578-.982l-1.6861-.2303q-1.5873-.23085-4.4649-.5779-.5952-.0576-1.7856-.1151-1.0914-.1155-2.18228-.2889a16.70992,16.70992,0,0,1-1.78572-.4041q-.6945-.28877-.6945-.7502.09933-1.0392,1.5873-1.6171a14.27958,14.27958,0,0,1,3.5714-.8081,37.78494,37.78494,0,0,1,4.167-.231q2.08335,0,3.373.1151a60.38723,60.38723,0,0,1,7.6388,1.0399q3.2739.6351,7.2429,1.6163l5.8532-13.3375v-3.803l-1.5176,3.4569q-3.10245-.67665-6.5187-1.0971-4.26585-.5196-8.7299-.693l2.4801-5.3689Z" transform="translate(-339.74359 -198.1084)" />
            </g>
            <path id="path5310" class="cls-15" d="M762.18258,442.69921c-36.7562.0001-66.5529,17.3409-66.5529,38.7319q.0126,1.11465.1352,2.2276c1.4509-20.7429,30.7456-37.1313,66.4177-37.1564,35.2597.0078,64.3899,16.0182,66.4177,36.5042q.09525-.7869.1352-1.5754C828.73558,460.04011,798.93888,442.69931,762.18258,442.69921Z" transform="translate(-339.74359 -198.1084)" />
            <g id="g5314">
                <path id="path5312" class="cls-12" d="M793.47288,484.933a9.96612,9.96612,0,0,1-1.4882,6.00461,15.40628,15.40628,0,0,1-4.9604,4.7922,32.50147,32.50147,0,0,1-7.8376,3.46419,65.02292,65.02292,0,0,1-10.0201,2.13631v5.7736l-18.949.4042,2.57942-5.4273a90.08149,90.08149,0,0,1-11.50822-1.3279q-5.75415-1.03936-10.417-2.3672l7.5399-12.2979q1.48815.34635,3.5715.9238,2.08335.51959,4.4644.9815t4.8613.8083a32.31641,32.31641,0,0,0,5.0597.2887,28.93693,28.93693,0,0,0,6.151-.7506q2.5794-.6351,2.4802-2.1362-.09915-.9816-1.6865-1.5012t-3.9684-1.0393q-1.48815-.23085-3.8692-.6351t-5.1589-1.097q-2.77785-.6927-5.6549-1.6743a29.11178,29.11178,0,0,1-5.2581-2.3672,14.31511,14.31511,0,0,1-3.77-3.2333,6.953,6.953,0,0,1-1.5873-4.157,9.9662,9.9662,0,0,1,1.4881-6.0046,16.9823,16.9823,0,0,1,4.8613-4.8499,30.54481,30.54481,0,0,1,7.3415-3.5219,56.321,56.321,0,0,1,9.4249-2.194v-5.6582l18.949-.4041-2.48028,5.3695q4.46442.1731,8.73038.6928a68.67745,68.67745,0,0,1,8.036,1.4434l-5.85338,13.3372q-3.96828-.9816-7.24222-1.6167a60.42,60.42,0,0,0-7.6392-1.0392q-1.2897-.1155-3.3731-.1155a37.78269,37.78269,0,0,0-4.1668.231,14.27707,14.27707,0,0,0-3.5715.80829q-1.48815.57737-1.5874,1.61661,0,.46185.6945.7506a16.73432,16.73432,0,0,0,1.78572.4041q1.09137.17325,2.18258.28869,1.19055.05777,1.7858.11551,2.87715.34635,4.4644.5774,1.6866.23085,1.6866.2309a46.41313,46.41313,0,0,1,5.3573.9815q3.0756.7506,6.2502,1.7899a27.1619,27.1619,0,0,1,5.8534,2.5981,15.81953,15.81953,0,0,1,4.4644,3.6374,8.279,8.279,0,0,1,1.9842,4.9654Z" transform="translate(-339.74359 -198.1084)" />
            </g>
        </g>
        <g id="g5511">
            <path id="path5495" class="cls-16" d="M777.75328,425.65161c34.8379.01739,65.006,14.07939,72.64372,33.8606h1.87708v9.5077c-.0004,23.9517-33.3644,43.3683-74.5208,43.3683s-74.5204-19.4166-74.5208-43.3683v-9.5077h1.9083C712.77588,439.73761,742.92708,425.67751,777.75328,425.65161Z" transform="translate(-339.74359 -198.1084)" />
            <ellipse id="ellipse5497" class="cls-12" cx="438.00969" cy="261.40382" rx="74.5208" ry="43.3687" />
            <ellipse id="ellipse5499" class="cls-13" cx="438.00969" cy="261.40382" rx="66.5532" ry="38.73179" />
            <g id="g5503">
                <path id="path5501" class="cls-17" d="M791.682,425.88851l-1.77452,3.8409-17.1747.3662v5.6578a56.33433,56.33433,0,0,0-9.4252,2.1942,30.54281,30.54281,0,0,0-7.341,3.5216,16.98571,16.98571,0,0,0-4.8615,4.8504,10.23515,10.23515,0,0,0-.5838,1.0919H749.601v4.0222c-.00162.07529-.00022.1515,0,.22729v.34831h.00878c.0035.1052.00122.2089.0075.315a6.95122,6.95122,0,0,0,1.5873,4.1566,14.31528,14.31528,0,0,0,3.7696,3.2333,29.11856,29.11856,0,0,0,5.2582,2.3673q2.877.98145,5.6548,1.6742t5.1587,1.0971q2.381.40425,3.8692.6351,2.38095.5196,3.9687,1.0392,1.58733.5196,1.6868,1.5011.0993,1.50119-2.4809,2.1363a28.93428,28.93428,0,0,1-6.151.751,32.33323,32.33323,0,0,1-5.0591-.289q-2.48025-.34635-4.8615-.8081-2.3811-.462-4.4642-.982-2.08332-.57735-3.572-.9233l-5.259,8.5784-2.2803-.0839v3.8031q4.66275,1.32793,10.4168,2.3672a90.05928,90.05928,0,0,0,11.508,1.32809l-.7532,1.58511-1.8265.0387v3.803l18.9492-.404v-5.7737a65.02549,65.02549,0,0,0,10.0202-2.1363,32.50473,32.50473,0,0,0,7.83792-3.4636,15.40854,15.40854,0,0,0,4.96028-4.7924,9.9656,9.9656,0,0,0,1.4878-6.0047V462.955h-1.1505a8.24567,8.24567,0,0,0-.8334-1.16239,15.81736,15.81736,0,0,0-4.46418-3.6375,27.16975,27.16975,0,0,0-5.85392-2.5975q-3.1746-1.0392-6.2498-1.7901a46.44116,46.44116,0,0,0-5.3577-.982l-1.6861-.2302q-1.5873-.231-4.4649-.5779-.5952-.05775-1.7857-.1152-1.09125-.11535-2.1823-.2889a16.70692,16.70692,0,0,1-1.78558-.4041q-.6945-.2886-.69452-.75021.09915-1.03918,1.5873-1.617a14.28,14.28,0,0,1,3.5713-.80819,37.81153,37.81153,0,0,1,4.1671-.231q2.08335,0,3.373.1151a60.3881,60.3881,0,0,1,7.63882,1.0399q3.27387.63525,7.24288,1.6163l5.85312-13.3374v-3.8031l-1.51752,3.4569q-3.10245-.67665-6.5187-1.0971-4.266-.51961-8.7299-.693l2.48012-5.3688Z" transform="translate(-339.74359 -198.1084)" />
            </g>
            <path id="path5505" class="cls-18" d="M777.75328,420.721c-36.7562,0-66.553,17.34091-66.5529,38.73181q.01245,1.11465.1352,2.2276c1.4509-20.7428,30.7456-37.1313,66.4177-37.15641,35.25972.00781,64.3899,16.01821,66.41772,36.50421q.09522-.78675.13518-1.5754C844.30628,438.06191,814.50948,420.721,777.75328,420.721Z" transform="translate(-339.74359 -198.1084)" />
            <g id="g5509">
                <path id="path5507" class="cls-12" d="M809.04348,462.95481a9.9655,9.9655,0,0,1-1.4881,6.0046,15.40622,15.40622,0,0,1-4.9605,4.7921,32.49461,32.49461,0,0,1-7.8375,3.4642,65.025,65.025,0,0,1-10.0201,2.13629v5.77361l-18.949.4042,2.5794-5.4273a90.08313,90.08313,0,0,1-11.5083-1.3279q-5.75415-1.0392-10.4169-2.3672l7.5399-12.2979q1.488.34635,3.5715.9238,2.08335.5196,4.4644.9815t4.8613.8083a32.31573,32.31573,0,0,0,5.0597.2887,28.93693,28.93693,0,0,0,6.151-.7506q2.5794-.6351,2.4802-2.13621-.09915-.98159-1.68648-1.50119t-3.96842-1.0392q-1.48815-.231-3.8692-.6351-2.38095-.40427-5.1589-1.097t-5.6549-1.6744a29.10348,29.10348,0,0,1-5.2581-2.3672,14.31665,14.31665,0,0,1-3.77-3.2332,6.95263,6.95263,0,0,1-1.5873-4.1571,9.96555,9.96555,0,0,1,1.4881-6.00461,16.98239,16.98239,0,0,1,4.8613-4.84989,30.54856,30.54856,0,0,1,7.3415-3.5219,56.31847,56.31847,0,0,1,9.42492-2.194V426.292l18.94888-.40409-2.4802,5.3695q4.46448.17325,8.7304.6928a68.6562,68.6562,0,0,1,8.036,1.4435l-5.8534,13.3371q-3.9684-.98145-7.2422-1.6166a60.4003,60.4003,0,0,0-7.6392-1.0393q-1.2897-.1155-3.3731-.1155a37.78269,37.78269,0,0,0-4.1668.231,14.27453,14.27453,0,0,0-3.5715.8083q-1.48815.57735-1.5874,1.6166,0,.462.6944.7506a16.716,16.716,0,0,0,1.7858.40409q1.09125.17327,2.1826.28871,1.19058.05775,1.7858.1155,2.877.34635,4.4644.5774,1.6866.231,1.6866.2309a46.41228,46.41228,0,0,1,5.3573.9816q3.07545.75045,6.2502,1.7898A27.16885,27.16885,0,0,1,802.595,454.352a15.8199,15.8199,0,0,1,4.46438,3.63751,8.27873,8.27873,0,0,1,1.9842,4.9653Z" transform="translate(-339.74359 -198.1084)" />
            </g>
        </g>
        <g id="g5557">
            <path id="path5541" class="cls-19" d="M770.61048,399.93732c34.8378.0174,65.006,14.07939,72.6437,33.86068h1.877v9.50761c-.0003,23.9517-33.3643,43.3683-74.5207,43.3683s-74.5204-19.4166-74.5208-43.3683V433.798h1.9082C705.63308,414.02331,735.78428,399.96322,770.61048,399.93732Z" transform="translate(-339.74359 -198.1084)" />
            <ellipse id="ellipse5543" class="cls-12" cx="430.86686" cy="235.68959" rx="74.52082" ry="43.36863" />
            <ellipse id="ellipse5545" class="cls-13" cx="430.86689" cy="235.68959" rx="66.5532" ry="38.73173" />
            <g id="g5549">
                <path id="path5547" class="cls-20" d="M784.53918,400.17422l-1.7745,3.841-17.17468.3662v5.65779a56.32426,56.32426,0,0,0-9.42522,2.1942,30.53678,30.53678,0,0,0-7.341,3.5215,16.98583,16.98583,0,0,0-4.8615,4.8504,10.25775,10.25775,0,0,0-.5839,1.0919h-.9203v4.0222c-.0015.0753-.00008.1515,0,.2273v.3484h.00892c.00338.1052.00118.2088.00738.31489a6.952,6.952,0,0,0,1.5874,4.15661A14.3116,14.3116,0,0,0,747.83138,434a29.107,29.107,0,0,0,5.2582,2.36721q2.877.9816,5.6548,1.6743t5.1587,1.0971q2.38095.40408,3.8691.6351,2.3811.5196,3.9687,1.0391t1.6869,1.50119q.09933,1.50106-2.4809,2.13621a28.93428,28.93428,0,0,1-6.151.751,32.309,32.309,0,0,1-5.0591-.289q-2.48025-.34635-4.8616-.8081-2.38095-.46185-4.4641-.982-2.08335-.57735-3.57208-.9233l-5.25892,8.5785-2.2803-.084v3.8031q4.66275,1.32795,10.4168,2.3673a90.097,90.097,0,0,0,11.508,1.3281l-.7532,1.5851-1.8265.0386v3.8031l18.9492-.4041v-5.7737a65.02579,65.02579,0,0,0,10.0202-2.1362,32.50947,32.50947,0,0,0,7.8379-3.46361,15.4075,15.4075,0,0,0,4.9603-4.79249,9.9656,9.9656,0,0,0,1.4878-6.0047v-3.8031h-1.1505a8.26192,8.26192,0,0,0-.8334-1.1624,15.8149,15.8149,0,0,0-4.4642-3.6374,27.16927,27.16927,0,0,0-5.8539-2.5976q-3.1746-1.0392-6.2498-1.7901a46.41984,46.41984,0,0,0-5.3577-.9819l-1.6861-.23031q-1.58745-.231-4.4649-.57789-.59517-.05775-1.7857-.11511-1.09125-.1155-2.1823-.289a16.70479,16.70479,0,0,1-1.7856-.404q-.6945-.28873-.6945-.75029.09915-1.0392,1.58732-1.617a14.275,14.275,0,0,1,3.57128-.8081,37.78645,37.78645,0,0,1,4.167-.2311q2.0835,0,3.373.1152a60.36641,60.36641,0,0,1,7.6388,1.0399q3.27405.63509,7.243,1.6163l5.8531-13.3375v-3.8031l-1.5175,3.457q-3.10245-.67665-6.51868-1.0971-4.266-.5196-8.73-.693l2.48018-5.36889Z" transform="translate(-339.74359 -198.1084)" />
            </g>
            <path id="path5551" class="cls-21" d="M770.61048,395.00672c-36.7563.0001-66.553,17.34089-66.5529,38.73179q.01245,1.1148.1352,2.2276c1.4509-20.7428,30.7456-37.13129,66.4177-37.15629,35.2597.0078,64.3898,16.01818,66.4177,36.50418q.0951-.78689.1352-1.57549C837.16338,412.34761,807.36668,395.00682,770.61048,395.00672Z" transform="translate(-339.74359 -198.1084)" />
            <g id="g5555">
                <path id="path5553" class="cls-12" d="M801.90068,437.24051a9.96608,9.96608,0,0,1-1.4881,6.0046,15.40768,15.40768,0,0,1-4.9605,4.7922,32.50452,32.50452,0,0,1-7.8375,3.4642,65.03757,65.03757,0,0,1-10.0202,2.1362v5.7737l-18.9489.4041,2.5794-5.4272a90.0834,90.0834,0,0,1-11.5083-1.328q-5.75415-1.0392-10.417-2.3672l7.5399-12.2979q1.48815.3465,3.5716.92379,2.08338.51976,4.4644.98161t4.8613.8083a32.328,32.328,0,0,0,5.0597.2887,28.93793,28.93793,0,0,0,6.151-.75061q2.5794-.63508,2.4802-2.13629-.09915-.98145-1.6866-1.5011t-3.9683-1.0393q-1.48815-.23085-3.8692-.6351t-5.1589-1.097q-2.77785-.69285-5.655-1.6744a29.10622,29.10622,0,0,1-5.258-2.3672,14.31321,14.31321,0,0,1-3.77-3.2332,6.95312,6.95312,0,0,1-1.5874-4.157,9.96609,9.96609,0,0,1,1.4882-6.0046,16.98342,16.98342,0,0,1,4.8612-4.8499,30.5451,30.5451,0,0,1,7.3415-3.52191,56.31591,56.31591,0,0,1,9.4249-2.194v-5.65818l18.949-.4042-2.4802,5.3695q4.4643.17325,8.7304.69288a68.65687,68.65687,0,0,1,8.0359,1.44341l-5.8533,13.3371q-3.9684-.98145-7.2423-1.6166a60.37934,60.37934,0,0,0-7.6391-1.0392q-1.2897-.1155-3.3731-.1155a37.78119,37.78119,0,0,0-4.1668.2309,14.28045,14.28045,0,0,0-3.57158.8083q-1.488.57735-1.58732,1.6167,0,.46183.6944.7505a16.71156,16.71156,0,0,0,1.7858.4042q1.09125.17325,2.1826.2887,1.19055.05773,1.7858.1154,2.877.3465,4.4644.5774l1.6866.231a46.41707,46.41707,0,0,1,5.3573.9815q3.07545.7506,6.2502,1.7898a27.16789,27.16789,0,0,1,5.8534,2.5982,15.82018,15.82018,0,0,1,4.4644,3.6374,8.279,8.279,0,0,1,1.9842,4.9653Z" transform="translate(-339.74359 -198.1084)" />
            </g>
        </g>
        <g id="g5583">
            <path id="path5567" class="cls-22" d="M637.75328,512.79441c34.8379.0175,65.006,14.0794,72.6438,33.8607h1.877v9.5077c-.0003,23.9517-33.3643,43.3683-74.5208,43.3683s-74.52039-19.4166-74.52069-43.3683v-9.5077h1.9082C572.776,526.88051,602.92718,512.82041,637.75328,512.79441Z" transform="translate(-339.74359 -198.1084)" />
            <ellipse id="ellipse5569" class="cls-12" cx="298.00972" cy="348.54672" rx="74.52087" ry="43.3687" />
            <ellipse id="ellipse5571" class="cls-13" cx="298.00969" cy="348.54672" rx="66.5532" ry="38.7318" />
            <g id="g5575">
                <path id="path5573" class="cls-23" d="M651.68208,513.03141l-1.7746,3.8409-17.1747.3662v5.6578a56.32679,56.32679,0,0,0-9.4252,2.1942,30.54018,30.54018,0,0,0-7.3409,3.5216,16.985,16.985,0,0,0-4.8616,4.8504,10.22552,10.22552,0,0,0-.5838,1.0919H609.601v4.0221c-.00152.0754-.00022.15149,0,.2273v.3484h.00888c.0034.1052.00112.20879.0074.3149a6.95127,6.95127,0,0,0,1.5873,4.1567,14.31546,14.31546,0,0,0,3.7697,3.2333,29.11441,29.11441,0,0,0,5.2581,2.3673q2.87715.98145,5.6549,1.6742t5.1586,1.0971q2.3811.40425,3.8692.6351,2.3811.5196,3.9687,1.03919,1.58733.51962,1.6869,1.50111.09915,1.5012-2.4809,2.1363a28.9358,28.9358,0,0,1-6.151.7509,32.32277,32.32277,0,0,1-5.0592-.2889q-2.48025-.34635-4.8615-.8082t-4.46408-.9819q-2.0835-.57735-3.57212-.92331l-5.25888,8.57841-2.28042-.0839v3.8031q4.6629,1.3278,10.4168,2.3672a90.0611,90.0611,0,0,0,11.508,1.3281l-.7532,1.58509-1.8265.03871v3.803l18.94932-.4041V570.298a65.02577,65.02577,0,0,0,10.02008-2.13629,32.50473,32.50473,0,0,0,7.83792-3.4636,15.40654,15.40654,0,0,0,4.96028-4.7925,9.96531,9.96531,0,0,0,1.4878-6.00461v-3.80309h-1.1505a8.24088,8.24088,0,0,0-.8334-1.1625,15.81973,15.81973,0,0,0-4.4641-3.63741,27.1718,27.1718,0,0,0-5.8539-2.59749q-3.17475-1.0392-6.2498-1.7901a46.42157,46.42157,0,0,0-5.3577-.982l-1.6862-.2303q-1.5873-.23085-4.4649-.5778-.5952-.05775-1.78558-.1152-1.09143-.1155-2.18232-.2889a16.70906,16.70906,0,0,1-1.78568-.4041q-.6945-.2886-.69452-.7502.0993-1.0392,1.5873-1.617a14.275,14.275,0,0,1,3.5714-.8082,37.7863,37.7863,0,0,1,4.167-.231q2.08335,0,3.373.1151a60.3881,60.3881,0,0,1,7.63882,1.0399q3.27387.6351,7.24288,1.61629l5.8532-13.33739v-3.8031l-1.5176,3.4569q-3.10245-.67665-6.5186-1.0971-4.266-.5196-8.73-.693l2.4802-5.3688Z" transform="translate(-339.74359 -198.1084)" />
            </g>
            <path id="path5577" class="cls-24" d="M637.75328,507.86381c-36.7562.0001-66.55289,17.341-66.55289,38.7319q.0126,1.11465.1352,2.2276c1.4509-20.7428,30.74559-37.13131,66.41769-37.1564,35.25972.0078,64.3899,16.0182,66.41772,36.5042q.09522-.78675.13518-1.5754C704.30628,525.20481,674.50958,507.86391,637.75328,507.86381Z" transform="translate(-339.74359 -198.1084)" />
            <g id="g5581">
                <path id="path5579" class="cls-12" d="M669.04358,550.09771a9.96574,9.96574,0,0,1-1.4882,6.0046,15.40719,15.40719,0,0,1-4.96038,4.7921,32.50164,32.50164,0,0,1-7.83762,3.4642,65.02311,65.02311,0,0,1-10.0201,2.1363v5.7736l-18.949.4042,2.5794-5.4273a90.08546,90.08546,0,0,1-11.5082-1.3279q-5.75415-1.03935-10.417-2.3672l7.5399-12.2979q1.48815.34635,3.5715.9238,2.0835.5196,4.4645.9815t4.8612.80829a32.31644,32.31644,0,0,0,5.0597.28871,28.93693,28.93693,0,0,0,6.151-.7506q2.5794-.6351,2.4802-2.1362-.09915-.9816-1.68648-1.5012t-3.96842-1.0392q-1.48815-.231-3.8692-.6351t-5.1589-1.0971q-2.77785-.6927-5.6549-1.67431a29.10968,29.10968,0,0,1-5.2581-2.36719,14.3132,14.3132,0,0,1-3.7699-3.2333,6.95223,6.95223,0,0,1-1.5874-4.157,9.96632,9.96632,0,0,1,1.4881-6.0046,16.98372,16.98372,0,0,1,4.8613-4.84991,30.54893,30.54893,0,0,1,7.3415-3.52189,56.32311,56.32311,0,0,1,9.42492-2.194v-5.6582l18.949-.4041-2.48032,5.3695q4.46448.17325,8.7304.6928a68.67745,68.67745,0,0,1,8.036,1.4434l-5.8533,13.3372q-3.9684-.9816-7.2423-1.6166a60.4003,60.4003,0,0,0-7.6392-1.0393q-1.2897-.1155-3.3731-.1155a37.784,37.784,0,0,0-4.1668.231,14.27681,14.27681,0,0,0-3.5715.8083q-1.48815.57735-1.5874,1.6166,0,.46185.69452.7506a16.73346,16.73346,0,0,0,1.78568.4041q1.0914.17325,2.1827.2887,1.19043.05775,1.7857.1155,2.87715.34634,4.4645.5774,1.68645.23085,1.6865.2309a46.41235,46.41235,0,0,1,5.3573.9815q3.0756.7506,6.2502,1.7899a27.16618,27.16618,0,0,1,5.85342,2.5981,15.81972,15.81972,0,0,1,4.46438,3.6374,8.279,8.279,0,0,1,1.9842,4.9654Z" transform="translate(-339.74359 -198.1084)" />
            </g>
        </g>
        <g id="g5609">
            <path id="path5593" class="cls-25" d="M627.75328,498.50871c34.8379.0175,65.006,14.0794,72.6438,33.8607h1.877V541.877c-.0003,23.95171-33.3643,43.36831-74.5208,43.36831s-74.52039-19.4166-74.52069-43.36831v-9.50759h1.9082C562.776,512.59471,592.92719,498.53461,627.75328,498.50871Z" transform="translate(-339.74359 -198.1084)" />
            <ellipse id="ellipse5595" class="cls-12" cx="288.00972" cy="334.26099" rx="74.52087" ry="43.36862" />
            <ellipse id="ellipse5597" class="cls-13" cx="288.00969" cy="334.26099" rx="66.5532" ry="38.73172" />
            <g id="g5601">
                <path id="path5599" class="cls-26" d="M641.68208,498.74561l-1.7746,3.841-17.1747.3662v5.6578a56.32581,56.32581,0,0,0-9.4252,2.1942,30.536,30.536,0,0,0-7.3409,3.5215,16.98736,16.98736,0,0,0-4.8616,4.8504,10.23515,10.23515,0,0,0-.5838,1.0919H599.601v4.0222c-.00152.0753-.00022.1515,0,.2273v.3484h.00888c.0034.1052.00112.2088.0074.3149a6.95119,6.95119,0,0,0,1.5873,4.15659,14.31376,14.31376,0,0,0,3.7697,3.23341,29.10661,29.10661,0,0,0,5.2581,2.3672q2.87715.98158,5.6549,1.6743t5.1586,1.09709q2.3811.40412,3.8692.63511,2.3811.5196,3.9687,1.0391,1.58733.5196,1.6869,1.5012.09915,1.5012-2.4809,2.1362a28.93578,28.93578,0,0,1-6.151.751,32.32277,32.32277,0,0,1-5.0592-.2889q-2.48025-.3465-4.8615-.8082-2.3811-.46185-4.46408-.982-2.0835-.57735-3.57212-.9232l-5.25888,8.5784-2.28042-.0839v3.803q4.6629,1.328,10.4168,2.3673a90.097,90.097,0,0,0,11.508,1.3281l-.7532,1.5851-1.8265.0386V562.19l18.94932-.40409v-5.7737a65.026,65.026,0,0,0,10.02008-2.13621,32.50824,32.50824,0,0,0,7.83792-3.46359,15.40664,15.40664,0,0,0,4.96028-4.7925,9.9656,9.9656,0,0,0,1.4878-6.0047v-3.803h-1.1505a8.24088,8.24088,0,0,0-.8334-1.1625,15.81594,15.81594,0,0,0-4.4641-3.6374,27.166,27.166,0,0,0-5.8539-2.5975q-3.17475-1.03935-6.2498-1.7902a46.42377,46.42377,0,0,0-5.3577-.9819l-1.6862-.2303q-1.5873-.231-4.4649-.5779-.5952-.05776-1.78558-.1151-1.09143-.1155-2.18232-.289a16.7127,16.7127,0,0,1-1.78568-.404q-.6945-.28875-.69452-.7502.0993-1.03935,1.5873-1.6171a14.27559,14.27559,0,0,1,3.5714-.80811,37.7863,37.7863,0,0,1,4.167-.231q2.08335,0,3.373.11511A60.37,60.37,0,0,1,642.872,521.775q3.27387.63511,7.24288,1.61631l5.8532-13.3375v-3.803l-1.5176,3.4569q-3.10245-.67665-6.5186-1.0971-4.266-.5196-8.73-.693l2.4802-5.3689Z" transform="translate(-339.74359 -198.1084)" />
            </g>
            <path id="path5603" class="cls-27" d="M627.75328,493.57811c-36.75619.0001-66.55289,17.34089-66.55289,38.7318q.0126,1.1148.1352,2.2277c1.4509-20.7429,30.7456-37.1314,66.41769-37.1564,35.25972.00779,64.3899,16.0182,66.41772,36.5042q.09522-.7869.13518-1.5755C694.30628,510.919,664.50958,493.57821,627.75328,493.57811Z" transform="translate(-339.74359 -198.1084)" />
            <g id="g5607">
                <path id="path5605" class="cls-12" d="M659.04358,535.81191a9.96557,9.96557,0,0,1-1.4882,6.0046,15.40651,15.40651,0,0,1-4.96038,4.7922,32.50554,32.50554,0,0,1-7.83762,3.4642,65.03519,65.03519,0,0,1-10.0201,2.1362v5.7737l-18.949.4041,2.5794-5.4272a90.08393,90.08393,0,0,1-11.5082-1.328q-5.75415-1.0392-10.417-2.3671l7.5399-12.2979q1.48815.34635,3.5715.9237,2.0835.51975,4.4645.98159t4.8612.80831a32.3273,32.3273,0,0,0,5.0597.28869,28.937,28.937,0,0,0,6.151-.75059q2.5794-.63512,2.4802-2.1363-.09915-.98145-1.68648-1.50111t-3.96842-1.03929q-1.48815-.23085-3.8692-.6351t-5.1589-1.097q-2.77785-.69285-5.6549-1.6743a29.11039,29.11039,0,0,1-5.2581-2.3672,14.31485,14.31485,0,0,1-3.7699-3.2333,6.95247,6.95247,0,0,1-1.5874-4.157,9.96616,9.96616,0,0,1,1.4881-6.0046,16.98344,16.98344,0,0,1,4.8613-4.8499,30.54106,30.54106,0,0,1,7.3415-3.5219,56.31326,56.31326,0,0,1,9.42492-2.194v-5.6582l18.949-.40421-2.48032,5.36951q4.46448.17324,8.7304.6929a68.65661,68.65661,0,0,1,8.036,1.4434l-5.8533,13.33719q-3.9684-.98158-7.2423-1.61669a60.38163,60.38163,0,0,0-7.6392-1.0392q-1.2897-.1155-3.3731-.1155a37.80841,37.80841,0,0,0-4.1668.2309,14.28122,14.28122,0,0,0-3.5715.8083q-1.48815.5775-1.5874,1.6167,0,.46185.69452.75049a16.70774,16.70774,0,0,0,1.78568.40421q1.0914.17325,2.1827.2887,1.19043.05775,1.7857.1155,2.87715.34635,4.4645.5773l1.6865.231a46.41235,46.41235,0,0,1,5.3573.9815q3.0756.7506,6.2502,1.78979a27.16681,27.16681,0,0,1,5.85342,2.59821,15.81784,15.81784,0,0,1,4.46438,3.6374,8.279,8.279,0,0,1,1.9842,4.96539Z" transform="translate(-339.74359 -198.1084)" />
            </g>
        </g>
        <g class="cls-28">
            <path id="path5749-2" data-name="path5749" class="cls-29" d="M543.14279,357.28572H696.71418l75.0893-42.8572c23.4877-16.0918,10.8548-35.8613-1.9643-42.1428l-18.3789-10.6793-208.31749-.035Z" transform="translate(-339.74359 -198.1084)" />
        </g>
        <g id="g5635">
            <path id="path5619" class="cls-30" d="M543.46759,271.36592c34.8379.0174,65.006,14.0794,72.64379,33.8606h1.877v9.5077c-.00038,23.9517-33.36429,43.3683-74.52079,43.3683s-74.5204-19.4166-74.5207-43.3683v-9.5077h1.9082C478.49029,285.45192,508.64149,271.39182,543.46759,271.36592Z" transform="translate(-339.74359 -198.1084)" />
            <ellipse id="ellipse5621" class="cls-12" cx="203.72402" cy="107.11812" rx="74.52087" ry="43.3687" />
            <ellipse id="ellipse5623" class="cls-13" cx="203.72399" cy="107.11812" rx="66.5532" ry="38.7318" />
            <g id="g5627">
                <path id="path5625" class="cls-31" d="M557.39629,271.60282l-1.7745,3.8409-17.1747.3662v5.6578a56.327,56.327,0,0,0-9.4252,2.1942,30.53956,30.53956,0,0,0-7.34089,3.5216,16.98363,16.98363,0,0,0-4.86161,4.8504,10.23322,10.23322,0,0,0-.5838,1.0919h-.9203V297.148c-.0015.07532-.0002.15152,0,.22722v.3484h.0089c.0034.1052.0011.2089.0074.315a6.95122,6.95122,0,0,0,1.5873,4.1566,14.314,14.314,0,0,0,3.7697,3.2333,29.11371,29.11371,0,0,0,5.2581,2.3673q2.87715.98145,5.6549,1.67418t5.1586,1.09712q2.3811.40425,3.8692.6351,2.381.5196,3.9687,1.0392,1.5873.5196,1.68691,1.5011.09914,1.5012-2.48091,2.1363a28.92947,28.92947,0,0,1-6.15109.7509,32.32157,32.32157,0,0,1-5.05911-.2889q-2.48025-.34635-4.8615-.8081-2.38109-.462-4.4642-.982-2.08335-.57735-3.572-.9233l-5.2589,8.5784-2.2804-.0839V325.925q4.6629,1.328,10.4168,2.36722a90.0611,90.0611,0,0,0,11.508,1.3281l-.7532,1.5851-1.82649.0387v3.803l18.94929-.404v-5.7737a65.02878,65.02878,0,0,0,10.0201-2.1363,32.504,32.504,0,0,0,7.8379-3.4636,15.4074,15.4074,0,0,0,4.9603-4.7924,9.96557,9.96557,0,0,0,1.4878-6.0047v-3.8031h-1.1505a8.25242,8.25242,0,0,0-.8334-1.1625,15.81939,15.81939,0,0,0-4.4641-3.6374,27.17133,27.17133,0,0,0-5.8539-2.5975q-3.17474-1.0392-6.2498-1.7901a46.44645,46.44645,0,0,0-5.3578-.982l-1.6861-.2302q-1.5873-.231-4.4649-.5779-.5952-.05775-1.7856-.1152-1.0914-.1155-2.18229-.2889a16.71026,16.71026,0,0,1-1.78571-.4041q-.6945-.2886-.6945-.7502.09932-1.0392,1.5873-1.617a14.27935,14.27935,0,0,1,3.5714-.8082,37.78494,37.78494,0,0,1,4.167-.231q2.08335,0,3.373.1151a60.38723,60.38723,0,0,1,7.6388,1.0399q3.2739.6351,7.2429,1.6163l5.8532-13.33742v-3.80308l-1.5176,3.4569q-3.10245-.67665-6.5186-1.0971-4.266-.5196-8.73-.693l2.4801-5.3688Z" transform="translate(-339.74359 -198.1084)" />
            </g>
            <path id="path5629" class="cls-32" d="M543.46759,266.43522c-36.7562.0001-66.5529,17.341-66.5529,38.7319q.0126,1.11465.1352,2.2276c1.4509-20.7428,30.7456-37.1313,66.4177-37.1564,35.2597.0078,64.38989,16.0182,66.41769,36.5042q.09525-.78678.1352-1.5754C610.02058,283.77622,580.22389,266.43532,543.46759,266.43522Z" transform="translate(-339.74359 -198.1084)" />
            <g id="g5633">
                <path id="path5631" class="cls-12" d="M574.75789,308.66912a9.96627,9.96627,0,0,1-1.4882,6.0046,15.40707,15.40707,0,0,1-4.9604,4.7921,32.50148,32.50148,0,0,1-7.8376,3.46418,65.02172,65.02172,0,0,1-10.0201,2.13632v5.7736l-18.949.4042,2.57941-5.4273a90.08382,90.08382,0,0,1-11.50821-1.3279q-5.75415-1.0392-10.417-2.3672l7.5399-12.2979q1.48815.34635,3.5715.9238,2.08335.51957,4.4644.9815t4.8613.8083a32.31641,32.31641,0,0,0,5.0597.2887,28.93693,28.93693,0,0,0,6.151-.7506q2.5794-.6351,2.4802-2.1362-.09915-.9816-1.6865-1.5012t-3.9684-1.0392q-1.48815-.231-3.8692-.6351-2.38095-.40425-5.1589-1.097t-5.6549-1.6744a29.10486,29.10486,0,0,1-5.2581-2.3672,14.31425,14.31425,0,0,1-3.7699-3.23322,6.95264,6.95264,0,0,1-1.5874-4.15708,9.9662,9.9662,0,0,1,1.4881-6.0046,16.9823,16.9823,0,0,1,4.8613-4.8499,30.54856,30.54856,0,0,1,7.3415-3.5219,56.321,56.321,0,0,1,9.4249-2.194v-5.6582l18.949-.4041-2.48029,5.3695q4.46443.17325,8.73039.6928a68.67745,68.67745,0,0,1,8.036,1.4434l-5.8533,13.3372q-3.9684-.98145-7.2423-1.6166a60.4003,60.4003,0,0,0-7.6392-1.0393q-1.2897-.1155-3.3731-.1155a37.78269,37.78269,0,0,0-4.1668.231,14.27753,14.27753,0,0,0-3.5715.80828q-1.48815.57738-1.5874,1.61662,0,.46185.6945.7506a16.71026,16.71026,0,0,0,1.78571.4041q1.09138.17325,2.18269.28868,1.1904.05778,1.7857.11552,2.87715.34635,4.4645.5774,1.68645.231,1.6865.2309a46.43452,46.43452,0,0,1,5.3573.9815q3.0756.7506,6.2502,1.7899a27.16678,27.16678,0,0,1,5.8534,2.5981,15.81953,15.81953,0,0,1,4.4644,3.6374,8.279,8.279,0,0,1,1.9842,4.9654Z" transform="translate(-339.74359 -198.1084)" />
            </g>
        </g>
    </g>
</svg>