<svg id="_1" data-name="1" xmlns="http://www.w3.org/2000/svg" viewBox="0 0 216.39181 224.7896">
    <defs>
        <style>
            .cls-1 {
                fill: #b7bac0;
            }
            
            .cls-2 {
                fill: #dcdddf;
            }
            
            .cls-3 {
                fill: #e97a65;
            }
            
            .cls-4 {
                fill: #e9bcb3;
            }
            
            .cls-5 {
                fill: #f4f7f7;
            }
            
            .cls-6 {
                fill: #71777d;
            }
            
            .cls-17,
            .cls-7 {
                fill: #1a1c1d;
            }
            
            .cls-7 {
                opacity: 0.3;
            }
            
            .cls-8 {
                fill: #9f59c2;
            }
            
            .cls-9 {
                fill: #8203c2;
            }
            
            .cls-10 {
                fill: #660399;
            }
            
            .cls-11 {
                fill: #7b7d80;
            }
            
            .cls-12 {
                fill: #e99d8e;
            }
            
            .cls-13 {
                fill: #e9d4cf;
            }
            
            .cls-14 {
                fill: #cb97e6;
            }
            
            .cls-15 {
                fill: #505154;
            }
            
            .cls-16 {
                fill: #95989d;
            }
            
            .cls-17 {
                opacity: 0.1;
            }
        </style>
    </defs>
    <title>speed</title>
    <path class="cls-1" d="M688.415,257.07352l19.70162,10.20407c14.30987,7.41169,23.18279,23.17209,23.25406,45.57168.04992,15.72258-4.24775,32.64226-11.729,48.97024l-19.70159-10.20407c7.48123-16.328,11.7789-33.24777,11.729-48.97036C711.59785,280.2455,702.72493,264.4851,688.415,257.07352Z" transform="translate(-533.60819 -230.92308)" />
    <polygon class="cls-2" points="50.333 200.723 30.631 190.519 166.332 120.692 186.034 130.896 50.333 200.723" />
    <path class="cls-3" d="M651.33625,253.14972c54.31333-27.94743,98.48625-5.51229,98.66322,50.11389.04878,15.33152-3.25279,31.58093-9.19751,47.66775a189.25074,189.25074,0,0,1-11.40109,24.97616l-25.62534,13.18575L599.93239,442.52681l-25.6255,13.18587a49.37717,49.37717,0,0,1-11.52584-13.179c-6.024-9.928-9.422-22.73019-9.47076-38.06171C553.13332,348.84582,597.01952,281.099,651.33625,253.14972Zm68.30548,108.66979c7.48123-16.328,11.7789-33.24766,11.729-48.97024-.14343-45.08744-35.94764-63.27519-79.97386-40.62108-44.02556,22.65376-79.6006,77.57039-79.4573,122.65794.05006,15.72258,4.44072,28.17149,12.00122,36.75966l135.701-69.82628" transform="translate(-533.60819 -230.92308)" />
    <path class="cls-4" d="M701.60992,236.838c-17.88156-9.26139-42.64454-7.95572-69.97526,6.10761-54.31673,27.94913-98.20293,95.696-98.02593,151.32217.04875,15.33153,3.44662,28.13368,9.47073,38.06183a49.37823,49.37823,0,0,0,11.52585,13.17885l19.70158,10.20418a49.37717,49.37717,0,0,1-11.52584-13.179c-6.024-9.928-9.422-22.73019-9.47076-38.06171-.17684-55.62619,43.70913-123.37305,98.026-151.32229,27.33069-14.06333,52.09373-15.36888,69.97526-6.1075Z" transform="translate(-533.60819 -230.92308)" />
    <path class="cls-5" d="M725.85741,309.99462c-.06669-20.9713-7.852-36.11861-20.58843-44.04761-14.222-5.99575-33.13392-4.38993-53.872,6.28106-44.02568,22.65388-79.60072,77.57062-79.45742,122.65806.04269,13.39441,3.24479,24.40269,8.86416,32.68234l133.32511-68.60372C721.61005,342.63665,725.90734,325.71709,725.85741,309.99462Z" transform="translate(-533.60819 -230.92308)" />
    <path class="cls-6" d="M645.91833,281.09183a5.31515,5.31515,0,0,0-2.74652,4.23987l.02655,8.34558c.005,1.561,1.244,2.19024,2.76447,1.40777a5.317,5.317,0,0,0,2.75024-4.24548l-.02655-8.34552C648.68158,280.9368,647.44269,280.30753,645.91833,281.09183Zm-38.98492,34.97711a1.96049,1.96049,0,0,0-2.23614-.0144,5.09843,5.09843,0,0,0-1.61731,1.37109c-1.22858,1.55115-1.49775,3.45825-.59784,4.262l4.81183,4.28687a1.9629,1.9629,0,0,0,2.23455.0144,5.09506,5.09506,0,0,0,1.61884-1.37475c1.22858-1.54749,1.49792-3.45844.59784-4.25849Zm-28.45612,55.00311,7.75751-1.41028a3.08063,3.08063,0,0,0,.85431-.3,5.54554,5.54554,0,0,0,2.61664-3.302c.46643-1.72674-.33106-2.91272-1.78186-2.64587l-7.75763,1.40668a3.08262,3.08262,0,0,0-.85425.30017,5.544,5.544,0,0,0-2.61658,3.30206C576.22913,370.14932,577.02661,371.33518,578.47729,371.07205Zm8.71882,31.91626a4.53847,4.53847,0,0,0-.85346.57862l-7.74109,6.56451c-1.44763,1.22827-2.235,3.22992-1.75915,4.47162.38293.99646,1.46759,1.20013,2.63086.6015a4.52385,4.52385,0,0,0,.85138-.57727l7.74121-6.56842c1.44781-1.22827,2.23517-3.22614,1.75927-4.46784C589.44238,402.59232,588.35876,402.39011,587.19611,402.98831ZM713.83856,340.544l-7.76111,1.41223a3.0692,3.0692,0,0,0-.85266.29931,5.54364,5.54364,0,0,0-2.6148,3.301c-.4665,1.7265.33105,2.90887,1.78192,2.64563l7.75757-1.40662a3.07464,3.07464,0,0,0,.85241-.29938,5.55337,5.55337,0,0,0,2.61835-3.30267C716.08313,341.46878,715.28577,340.28269,713.83856,340.544Zm-8.72076-31.915a4.52889,4.52889,0,0,0,.8518-.57788l7.74469-6.56653c1.444-1.22638,2.23139-3.22791,1.7591-4.47132-.38275-.99871-1.46643-1.20117-2.62891-.603a4.54214,4.54214,0,0,0-.85345.57867l-7.74115,6.5683c-1.44782,1.22473-2.23523,3.22626-1.75934,4.46808C702.87341,309.024,703.95691,309.22617,705.1178,308.62894Zm-16.27033-35.33582a2.43134,2.43134,0,0,0-1.6195.29437,5.459,5.459,0,0,0-2.23,2.31257l-4.76874,9.21643c-.88837,1.72039-.61139,3.35022.62286,3.63043a2.43687,2.43687,0,0,0,1.62506-.2945,5.455,5.455,0,0,0,2.22809-2.31073l4.7652-9.21484C690.36255,275.20114,690.08557,273.575,688.84747,273.29312Z" transform="translate(-533.60819 -230.92308)" />
    
    <g id="niddle">
        <path class="cls-7" d="M653.03233,329.51125l48.05127-36.4705-36.937,51.75039c-.18649,13.31766-10.66834,29.359-23.61116,36.01875-13.08587,6.7335-23.73236,1.32616-23.775-12.07516-.04269-13.40472,10.53482-29.72954,23.62056-36.463C645.02834,329.88035,649.36615,329.02519,653.03233,329.51125Z" transform="translate(-533.60819 -230.92308)" />
        <polygon class="cls-8" points="129.062 99.895 125.122 97.855 172.046 61.253 174.26 62.393 129.062 99.895" />
        <path class="cls-8" d="M633.31206,383.58755l-3.94031-2.04082c-4.2541-2.2034-6.89229-6.888-6.91351-13.54556-.04268-13.40484,10.53483-29.72965,23.62057-36.46315,4.64741-2.39123,8.98526-3.2465,12.6514-2.76033l3.94031,2.04081c-3.66617-.48617-8.004.3691-12.65139,2.76045-13.08574,6.73338-23.66325,23.0582-23.62057,36.463C626.41978,376.6995,629.058,381.38415,633.31206,383.58755Z" transform="translate(-533.60819 -230.92308)" />
        <path class="cls-9" d="M662.67052,330.8185,707.86867,293.316l-34.0839,52.7824c-.18649,13.31755-10.66835,29.35885-23.61117,36.01875-13.08586,6.73339-23.73248,1.32605-23.775-12.07516-.04268-13.40483,10.53483-29.72965,23.62057-36.463C654.66653,331.1876,659.00435,330.33233,662.67052,330.8185Z" transform="translate(-533.60819 -230.92308)" />
        <path class="cls-10" d="M650.17335,382.11714c12.9432-6.6599,23.425-22.70109,23.61142-36.01886l34.0839-52.78229L657.35388,360.101,631.09145,382.0817C635.42825,385.82774,642.36563,386.13469,650.17335,382.11714Z" transform="translate(-533.60819 -230.92308)" />
        <path class="cls-11" d="M655.91989,348.91862l3.94031,2.04082c-1.49472-.77421-3.565-.66518-5.85032.51074l-3.94032-2.04081C652.35484,348.25345,654.42516,348.14442,655.91989,348.91862Z" transform="translate(-533.60819 -230.92308)" />
        <path class="cls-6" d="M648.21405,368.81466l-3.94031-2.04081c-1.47554-.76436-2.39047-2.38954-2.39783-4.69959-.01474-4.64615,3.65334-10.30869,8.19365-12.64489l3.94032,2.04081c-4.54032,2.33632-8.20839,7.99874-8.19366,12.64489C645.82359,366.42513,646.73851,368.0503,648.21405,368.81466Z" transform="translate(-533.60819 -230.92308)" />
        <path class="cls-1" d="M654.00988,351.47018c4.54044-2.33632,8.23253-.46115,8.24726,4.18511.01487,4.64977-3.65334,10.31231-8.19365,12.64863s-8.2325.461-8.24727-4.18885C645.80149,359.46892,649.46956,353.8065,654.00988,351.47018Z" transform="translate(-533.60819 -230.92308)" />
        
        <path class="cls-10" d="M629.37187,381.54673l3.94019,2.04082c-3.759-1.94684-6.25481-5.83226-6.7998-11.303l-3.94032-2.04081C623.11693,375.71448,625.61284,379.59989,629.37187,381.54673Z" transform="translate(-533.60819 -230.92308)" />
        <path class="cls-14" d="M650.03551,333.60347c4.61293-2.4438,8.9382-3.34814,12.611-2.90353l-3.96911-1.996c-3.67278-.4446-7.99808.45963-12.611,2.90343a36.61408,36.61408,0,0,0-4.3271,2.709l3.9691,1.996A36.60955,36.60955,0,0,1,650.03551,333.60347Z" transform="translate(-533.60819 -230.92308)" />
        
    </g>
    
    
    <path class="cls-12" d="M543.07946,432.32965a49.37823,49.37823,0,0,0,11.52585,13.17885l19.70158,10.20418a49.37717,49.37717,0,0,1-11.52584-13.179,57.44027,57.44027,0,0,1-3.85-7.59024L539.22947,424.7393A57.44241,57.44241,0,0,0,543.07946,432.32965Z" transform="translate(-533.60819 -230.92308)" />
    <path class="cls-13" d="M721.31151,247.04222,701.60992,236.838c-8.49118-4.39785-18.53491-6.41093-29.66758-5.8087L691.644,241.23352C702.77663,240.6313,712.82033,242.64437,721.31151,247.04222Z" transform="translate(-533.60819 -230.92308)" />
    
    <path class="cls-15" d="M645.8349,364.624l-3.94032-2.04081a4.76951,4.76951,0,0,0,2.37916,4.19066l3.94031,2.04081A4.76951,4.76951,0,0,1,645.8349,364.624Z" transform="translate(-533.60819 -230.92308)" />
    <path class="cls-16" d="M660.15468,351.14184c-.00813.05366-.01055.10292-.01868.15692-1.84229,12.07211-12.66613,16.68791-12.90992,16.79061,1.48278,1.48818,3.99342,1.67793,6.83715.21455,4.5407-2.33632,8.20878-7.99886,8.19391-12.64863A5.06179,5.06179,0,0,0,660.15468,351.14184Z" transform="translate(-533.60819 -230.92308)" />
    <path class="cls-17" d="M710.32392,319.01552c-1.60969,18.20938-7.979,37.75806-17.71015,56.71141l27.02771-13.90742c7.48135-16.328,11.77941-33.24766,11.72923-48.97024-.1043-32.76817-19.05319-51.30736-46.29613-50.30694C702.93987,270.40147,712.88258,290.07854,710.32392,319.01552Z" transform="translate(-533.60819 -230.92308)" />
</svg>